<svg width="332" height="104" viewBox="0 0 332 104" fill="none" xmlns="http://www.w3.org/2000/svg">
<g filter="url(#filter0_d_73_74)">
<rect x="27" y="22" width="301" height="74" rx="37" fill="#03023E" shape-rendering="crispEdges"/>
<path d="M148.58 45.916C147.092 47.188 145.808 48.772 144.728 50.668C144.32 51.34 143.936 52.096 143.576 52.936C143.216 53.752 142.928 54.46 142.712 55.06C142.496 55.636 142.232 56.476 141.92 57.58C141.632 58.66 141.44 59.392 141.344 59.776C141.248 60.16 141.044 61.012 140.732 62.332C140.42 63.652 140.24 64.42 140.192 64.636C140.048 65.212 139.688 65.512 139.112 65.536C138.32 65.608 137.78 65.56 137.492 65.392C137.228 65.224 136.964 64.756 136.7 63.988C136.556 63.58 136.376 62.992 136.16 62.224C135.968 61.456 135.836 60.952 135.764 60.712C134.3 55.84 133.22 52.264 132.524 49.984C132.332 49.336 131.996 48.304 131.516 46.888C131.06 45.448 130.712 44.344 130.472 43.576C130.28 42.904 129.812 42.184 129.068 41.416C128.948 41.296 128.876 41.2 128.852 41.128C128.78 40.984 128.792 40.876 128.888 40.804C128.936 40.756 129.02 40.72 129.14 40.696C129.26 40.648 129.368 40.624 129.464 40.624C129.56 40.624 129.668 40.636 129.788 40.66C129.908 40.66 129.98 40.66 130.004 40.66C130.676 40.636 131.348 40.612 132.02 40.588C132.836 40.588 133.652 40.588 134.468 40.588C136.052 40.588 136.856 40.588 136.88 40.588C137.336 40.612 137.636 40.804 137.78 41.164C137.876 41.38 137.972 41.764 138.068 42.316C138.26 43.564 138.632 45.352 139.184 47.68C139.256 47.92 139.484 48.832 139.868 50.416C139.988 50.992 140.096 51.448 140.192 51.784C140.216 51.88 140.252 52.06 140.3 52.324C140.348 52.588 140.396 52.792 140.444 52.936C140.468 52.936 140.48 52.936 140.48 52.936C140.528 52.84 140.588 52.66 140.66 52.396C140.732 52.132 140.792 51.916 140.84 51.748C140.984 51.244 141.104 50.8 141.2 50.416C141.44 49.48 141.632 48.82 141.776 48.436C142.544 46.084 143.456 44.092 144.512 42.46C145.592 40.804 147.02 39.448 148.796 38.392C149.444 38.008 150.104 37.732 150.776 37.564C151.472 37.372 152.192 37.312 152.936 37.384C153.704 37.432 154.376 37.66 154.952 38.068C155.624 38.5 156.068 39.112 156.284 39.904C156.452 40.36 156.476 40.888 156.356 41.488C156.26 42.064 156.02 42.496 155.636 42.784C155.276 43.072 154.808 43.288 154.232 43.432C154.136 43.456 153.992 43.492 153.8 43.54C152.936 43.78 152.288 43.972 151.856 44.116C151.424 44.236 150.896 44.452 150.272 44.764C149.672 45.076 149.108 45.46 148.58 45.916ZM162.908 47.752C164.9 49.648 165.968 52 166.112 54.808C166.256 57.616 165.428 60.064 163.628 62.152C161.828 64.216 159.584 65.32 156.896 65.464C154.232 65.584 151.904 64.696 149.912 62.8C147.944 60.904 146.888 58.552 146.744 55.744C146.624 52.936 147.452 50.5 149.228 48.436C151.028 46.348 153.26 45.244 155.924 45.124C158.612 44.98 160.94 45.856 162.908 47.752ZM155.96 60.352C157.04 59.344 158.012 57.964 158.876 56.212C159.764 54.46 160.28 52.852 160.424 51.388C160.592 49.9 160.34 49 159.668 48.688C158.996 48.352 158.12 48.688 157.04 49.696C155.96 50.68 154.976 52.048 154.088 53.8C153.224 55.552 152.72 57.172 152.576 58.66C152.432 60.124 152.684 61.024 153.332 61.36C154.004 61.672 154.88 61.336 155.96 60.352ZM175.764 65.068C175.788 65.212 175.788 65.32 175.764 65.392C175.716 65.56 175.488 65.656 175.08 65.68C174.96 65.704 174.528 65.704 173.784 65.68C173.04 65.68 172.608 65.68 172.488 65.68C170.664 65.68 169.392 65.692 168.672 65.716C168.216 65.716 168.048 65.512 168.168 65.104C168.36 64.408 168.516 63.688 168.636 62.944C168.78 62.2 168.864 61.396 168.888 60.532C168.936 59.668 168.96 58.948 168.96 58.372C168.984 57.796 168.984 56.992 168.96 55.96C168.936 54.928 168.924 54.184 168.924 53.728C168.924 49.816 168.924 46.24 168.924 43C168.924 42.4 168.876 41.932 168.78 41.596C168.636 41.14 168.42 40.78 168.132 40.516C167.772 40.18 167.604 39.808 167.628 39.4C167.652 38.968 167.88 38.632 168.312 38.392C168.576 38.224 169.032 37.984 169.68 37.672C170.76 37.168 171.9 36.148 173.1 34.612C173.124 34.588 173.148 34.564 173.172 34.54C173.196 34.492 173.208 34.468 173.208 34.468C173.616 33.94 174.024 33.736 174.432 33.856C174.84 33.976 175.044 34.384 175.044 35.08C175.068 37.144 175.068 38.836 175.044 40.156C175.02 41.164 174.972 42.556 174.9 44.332C174.852 46.108 174.804 47.74 174.756 49.228C174.732 50.692 174.72 52.072 174.72 53.368C174.744 55.768 174.804 57.772 174.9 59.38C174.972 60.556 175.056 61.516 175.152 62.26C175.224 62.812 175.308 63.328 175.404 63.808C175.452 63.928 175.512 64.132 175.584 64.42C175.68 64.708 175.74 64.924 175.764 65.068ZM188.744 62.476C188.816 62.764 188.78 63.148 188.636 63.628C188.516 64.108 188.18 64.576 187.628 65.032C187.076 65.488 186.368 65.704 185.504 65.68C184.928 65.68 184.268 65.536 183.524 65.248C182.804 64.96 182.192 64.576 181.688 64.096C181.592 64 181.508 63.904 181.436 63.808C181.316 63.688 181.208 63.568 181.112 63.448C181.016 63.304 180.92 63.172 180.824 63.052C180.752 62.908 180.68 62.764 180.608 62.62C180.536 62.476 180.464 62.332 180.392 62.188C180.32 62.044 180.26 61.888 180.212 61.72C180.164 61.552 180.116 61.384 180.068 61.216C180.044 61.024 180.008 60.82 179.96 60.604C179.936 60.388 179.912 60.172 179.888 59.956C179.864 59.716 179.852 59.464 179.852 59.2C179.828 58.96 179.816 58.696 179.816 58.408C179.792 58.12 179.78 57.82 179.78 57.508C179.78 57.196 179.78 56.848 179.78 56.464C179.78 56.128 179.78 55.756 179.78 55.348C179.78 54.964 179.78 54.544 179.78 54.088C179.78 53.776 179.78 53.32 179.78 52.72C179.78 52.168 179.78 51.652 179.78 51.172C179.78 50.596 179.792 50.044 179.816 49.516C179.816 49.204 179.816 48.904 179.816 48.616C179.816 48.52 179.816 48.364 179.816 48.148C179.816 47.932 179.792 47.8 179.744 47.752C179.696 47.68 179.6 47.644 179.456 47.644H178.232C177.8 47.644 177.512 47.452 177.368 47.068C177.224 46.66 177.26 46.288 177.476 45.952C177.668 45.616 178.112 45.292 178.808 44.98C179.528 44.644 179.972 44.248 180.14 43.792C180.212 43.576 180.248 43.216 180.248 42.712C180.272 42.208 180.332 41.836 180.428 41.596C180.644 41.188 181.124 40.828 181.868 40.516C181.916 40.492 182.132 40.396 182.516 40.228C182.9 40.036 183.212 39.904 183.452 39.832C183.692 39.736 183.98 39.652 184.316 39.58C184.676 39.484 184.964 39.472 185.18 39.544C185.42 39.616 185.588 39.772 185.684 40.012C185.756 40.18 185.792 40.36 185.792 40.552C185.816 40.744 185.816 41.008 185.792 41.344C185.792 41.656 185.792 41.824 185.792 41.848C185.792 42.352 185.792 43.216 185.792 44.44C185.792 44.656 185.792 44.86 185.792 45.052C185.792 45.076 185.792 45.112 185.792 45.16C185.792 45.184 185.792 45.22 185.792 45.268C185.792 45.316 185.792 45.352 185.792 45.376C185.792 45.496 185.804 45.58 185.828 45.628C185.852 45.676 185.96 45.7 186.152 45.7H187.412C187.844 45.7 188.144 45.868 188.312 46.204C188.48 46.516 188.48 46.84 188.312 47.176C188.144 47.488 187.844 47.644 187.412 47.644H186.152C185.96 47.644 185.84 47.668 185.792 47.716C185.768 47.764 185.756 47.908 185.756 48.148C185.756 48.316 185.756 48.472 185.756 48.616C185.756 48.952 185.756 49.264 185.756 49.552C185.756 50.248 185.744 50.98 185.72 51.748C185.72 52.276 185.708 52.924 185.684 53.692C185.684 54.532 185.684 55.108 185.684 55.42C185.66 56.02 185.648 56.524 185.648 56.932C185.648 57.436 185.648 57.868 185.648 58.228C185.672 58.636 185.696 58.996 185.72 59.308C185.72 59.644 185.744 59.944 185.792 60.208C185.816 60.472 185.864 60.712 185.936 60.928C185.984 61.12 186.044 61.3 186.116 61.468C186.212 61.612 186.308 61.732 186.404 61.828C186.5 61.924 186.608 61.996 186.728 62.044C186.872 62.092 187.028 62.116 187.196 62.116C187.364 62.116 187.556 62.104 187.772 62.08C187.868 62.008 188.024 61.996 188.24 62.044C188.48 62.068 188.648 62.212 188.744 62.476ZM216.072 67.588C216.552 68.068 216.804 68.632 216.828 69.28C216.876 69.952 216.744 70.576 216.432 71.152C216.144 71.728 215.748 72.244 215.244 72.7C213.924 73.852 212.256 74.344 210.24 74.176C208.248 74.032 206.664 73.312 205.488 72.016C204.504 70.936 203.82 69.508 203.436 67.732C203.364 67.444 203.256 66.652 203.112 65.356C203.04 64.828 202.992 64.324 202.968 63.844C202.968 63.82 202.956 63.7 202.932 63.484C202.932 63.244 202.932 63.052 202.932 62.908C202.932 62.74 202.956 62.62 203.004 62.548C202.62 63.22 202.092 63.772 201.42 64.204C199.5 65.428 197.16 65.68 194.4 64.96C193.2 64.648 192.264 64.012 191.592 63.052C190.92 62.068 190.596 60.952 190.62 59.704C190.644 57.952 191.28 56.5 192.528 55.348C193.8 54.196 195.312 53.596 197.064 53.548C197.856 53.524 198.624 53.608 199.368 53.8C199.944 53.944 200.4 54.112 200.736 54.304C201.432 54.688 201.78 54.976 201.78 55.168C201.876 54.088 201.876 53.008 201.78 51.928C201.684 50.56 201.48 49.612 201.168 49.084C200.832 48.508 200.388 48.184 199.836 48.112C199.548 48.088 199.236 48.124 198.9 48.22C198.564 48.316 198.312 48.472 198.144 48.688C198.048 48.832 197.964 49.012 197.892 49.228C197.844 49.42 197.82 49.576 197.82 49.696C197.82 49.816 197.82 50.02 197.82 50.308C197.844 50.596 197.856 50.764 197.856 50.812C197.856 51.1 197.832 51.316 197.784 51.46C197.688 51.892 197.436 52.24 197.028 52.504C196.212 53.056 195.324 53.164 194.364 52.828C193.428 52.492 192.888 51.832 192.744 50.848C192.576 49.6 193.032 48.472 194.112 47.464C195.216 46.456 196.44 45.796 197.784 45.484C199.584 45.052 201.324 45.076 203.004 45.556C205.116 46.204 206.58 47.32 207.396 48.904C207.516 49.168 207.624 49.468 207.72 49.804C207.816 50.116 207.888 50.392 207.936 50.632C207.984 50.848 208.008 51.172 208.008 51.604C208.032 52.036 208.044 52.336 208.044 52.504C208.044 52.672 208.044 53.008 208.044 53.512C208.044 53.992 208.044 54.28 208.044 54.376C207.972 56.248 207.96 58.396 208.008 60.82C208.08 63.244 208.272 65.38 208.584 67.228C208.824 68.62 209.232 69.628 209.808 70.252C210.432 70.948 211.332 71.44 212.508 71.728C211.548 70.984 211.188 70.072 211.428 68.992C211.692 67.936 212.292 67.252 213.228 66.94C214.164 66.628 215.112 66.844 216.072 67.588ZM196.74 61.936C197.34 61.48 197.844 60.832 198.252 59.992C198.684 59.128 198.9 58.324 198.9 57.58C198.924 56.836 198.732 56.368 198.324 56.176C197.916 55.96 197.412 56.08 196.812 56.536C196.236 56.992 195.732 57.652 195.3 58.516C194.868 59.356 194.64 60.148 194.616 60.892C194.616 61.636 194.82 62.116 195.228 62.332C195.66 62.524 196.164 62.392 196.74 61.936ZM226.131 47.752C226.419 49.912 225.855 51.4 224.439 52.216C222.999 53.056 221.895 52.816 221.127 51.496C221.079 51.4 221.007 51.304 220.911 51.208C220.287 50.368 219.627 50.068 218.931 50.308C218.787 50.356 218.655 50.416 218.535 50.488C218.415 50.536 218.307 50.62 218.211 50.74C218.139 50.836 218.067 50.932 217.995 51.028C217.947 51.1 217.899 51.22 217.851 51.388C217.827 51.532 217.803 51.64 217.779 51.712C217.755 51.784 217.731 51.916 217.707 52.108C217.707 52.3 217.707 52.432 217.707 52.504C217.707 52.576 217.707 52.72 217.707 52.936C217.707 53.128 217.707 53.248 217.707 53.296C217.683 55.6 217.683 57.232 217.707 58.192C217.707 58.336 217.695 58.828 217.671 59.668C217.671 60.508 217.671 61.096 217.671 61.432C217.695 61.744 217.743 62.2 217.815 62.8C217.887 63.4 218.007 63.928 218.175 64.384C218.367 64.912 218.355 65.248 218.139 65.392C217.995 65.464 217.779 65.5 217.491 65.5C216.099 65.524 215.055 65.536 214.359 65.536C212.463 65.536 211.515 65.536 211.515 65.536C211.083 65.488 210.927 65.26 211.047 64.852C211.215 64.348 211.347 63.832 211.443 63.304C211.563 62.776 211.635 62.212 211.659 61.612C211.707 60.988 211.731 60.472 211.731 60.064C211.755 59.656 211.755 59.08 211.731 58.336C211.731 57.592 211.731 57.064 211.731 56.752C211.755 55.288 211.743 54.304 211.695 53.8C211.599 52.504 211.455 51.544 211.263 50.92C210.999 50.056 211.203 49.324 211.875 48.724C213.027 47.74 214.215 46.78 215.439 45.844C215.799 45.58 216.243 45.4 216.771 45.304C217.107 45.232 217.359 45.28 217.527 45.448C217.719 45.616 217.815 45.88 217.815 46.24C217.815 46.336 217.815 46.936 217.815 48.04C219.207 47.032 219.951 46.492 220.047 46.42C221.199 45.724 222.255 45.364 223.215 45.34C223.911 45.34 224.547 45.568 225.123 46.024C225.699 46.456 226.035 47.032 226.131 47.752Z" fill="#FDDFFC"/>
</g>
<g clip-path="url(#clip0_73_74)">
<path d="M251.47 11.7822C251.768 8.77125 248.29 7.13765 245.685 8.16266C243.096 9.18232 241.996 12.7912 243.107 15.1935C243.67 16.4161 244.493 17.5105 245.598 18.3112C247.174 19.4537 249.146 19.7313 251.053 19.5017C252.737 19.3042 254.411 18.7437 255.83 17.8254C260.841 14.5849 259.914 7.57008 256.491 3.5021C251.199 -2.78138 240.068 -0.0426993 237.175 7.22307C235.832 10.5917 235.588 14.3394 236.704 17.8148C237.907 21.5464 240.729 24.4132 243.632 26.9597C247.017 29.9279 251.026 32.704 255.391 34.0493C257.211 34.6098 259.113 34.9782 260.981 35.3412C265.721 36.2755 270.515 36.9214 275.319 37.3966C278.179 37.6795 281.088 37.7382 283.91 38.3255C287.36 39.0409 291.277 40.4235 293.172 43.5733C295.567 47.5505 294.294 52.7609 291.087 55.9053C288.866 58.0835 285.914 59.1725 282.832 59.0017C280.671 58.8789 278.25 57.966 276.831 56.2897C275.606 54.843 274.794 52.7129 274.664 50.8551C274.528 48.8638 275.265 46.7444 276.717 45.3403C277.481 44.6036 278.428 44.1071 279.474 43.8829C279.918 43.7868 280.389 43.7334 280.839 43.7388C280.996 43.7388 280.72 43.7228 280.85 43.7388C280.953 43.7548 281.055 43.7761 281.153 43.7922C282.61 44.0804 284.175 44.6784 285.096 45.8902C286.228 47.385 286.158 50.1023 284.869 51.4957C283.796 52.6542 282.106 52.7342 280.671 52.2805C280.113 52.1043 278.829 52.9051 279.728 53.1934C281.44 53.7379 283.401 53.6044 284.977 52.7236C286.667 51.7733 287.485 50.0436 287.42 48.1538C287.35 46.1038 286.391 44.5983 284.517 43.6854C283.558 43.2156 282.383 42.7992 281.299 42.7725C276.852 42.6497 273.109 46.2052 273.061 50.5668C273.039 52.7396 273.922 54.859 275.151 56.6314C276.246 58.2116 278.39 59.2473 280.232 59.685C287.637 61.4468 295.978 55.7452 295.984 48.0203C295.984 45.9276 295.366 43.7868 294.039 42.1265C292.891 40.6958 291.282 39.6601 289.608 38.9127C286.819 37.6688 283.726 37.0496 280.682 36.8307C273.017 36.2755 265.304 35.3839 257.834 33.5368C255.153 32.8748 252.683 31.695 250.343 30.2429C246.649 27.9527 243.204 25.0218 240.507 21.6265C237.809 18.2312 236.991 13.5706 237.999 9.36917C238.112 8.89938 238.248 8.42958 238.416 7.97581C238.459 7.85836 238.416 7.96513 238.405 7.99182C238.486 7.76227 238.567 7.52737 238.654 7.29781C238.871 6.72659 239.147 6.17672 239.467 5.65354C240.534 3.91317 242.153 2.60522 244.044 1.82046C247.397 0.427093 251.372 0.66199 254.119 3.17111C255.63 4.55379 256.805 6.44898 257.325 8.42425C258.159 11.5687 257.889 15.2256 254.953 17.2008C254.081 17.7881 253.23 18.1191 252.293 18.3593C252.12 18.402 251.952 18.4394 251.779 18.4767C251.54 18.5248 251.93 18.4554 251.714 18.4874C251.649 18.4981 251.589 18.5088 251.524 18.5194C251.242 18.5568 250.961 18.5942 250.679 18.6102C247.711 18.8024 245.257 16.7364 244.379 14.0351C243.995 12.8499 244.379 11.3765 244.954 10.3141C245.327 9.62008 245.88 8.87268 246.747 8.86201C247.613 8.85133 248.561 9.09157 249.168 9.75355C249.704 10.3354 249.969 11.2483 249.899 11.953C249.829 12.6577 251.421 12.3748 251.475 11.7875L251.47 11.7822Z" fill="#03023E"/>
</g>
<g clip-path="url(#clip1_73_74)">
<path d="M39.1376 46.9461C39.1376 46.9461 38.8352 46.9193 39.2005 46.953C39.3989 46.9716 39.6049 46.9783 39.8054 47.0067C40.3971 47.0938 41.0567 47.2584 41.4987 47.695C42.1897 48.3848 42.0366 49.2874 41.6997 50.0966C40.9069 52.017 38.9827 52.0128 37.2994 51.4655C34.6386 50.6074 33.0708 48.2245 33.3929 45.403C33.7151 42.5816 36.0983 39.7349 38.6488 38.6118C42.3294 36.989 47.4546 38.5532 50.4354 40.9893C51.5395 41.8866 52.3647 43.151 53.06 44.3821C54.1929 46.4087 54.9644 48.6566 55.0585 50.9892C55.1944 54.2744 53.7466 57.2364 51.3457 59.4322C50.6279 60.0884 49.8381 60.6475 49.0364 61.199C48.6812 61.4495 49.2018 61.1122 48.9819 61.2312C48.2199 61.6821 47.4494 62.0938 46.6509 62.4707C42.9336 64.2549 38.9312 65.4765 34.9326 66.4313C29.611 67.7023 24.053 68.257 19.0661 70.6527C16.7956 71.7462 14.5538 73.304 12.7292 75.089C10.5489 77.2167 8.959 79.9945 8.7112 83.0659C8.40654 86.9167 10.3049 90.9266 13.5786 93.013C16.256 94.7064 19.6786 95.349 22.7546 94.4807C24.8658 93.882 26.6845 92.3541 27.9524 90.5971C29.7292 88.1166 29.652 85.3404 28.3799 82.6686C26.7757 79.3114 23.1692 77.0103 19.4588 78.2099C15.9668 79.3316 12.6365 83.6205 14.0135 87.3949C15.0183 90.1551 18.5453 91.614 21.2961 90.8978C22.7106 90.5312 23.8234 89.667 24.3676 88.3015C24.6398 87.6188 23.788 87.3218 23.2747 87.3609C22.5302 87.4192 21.873 87.9293 21.6107 88.61C21.5313 88.8112 21.4804 88.812 21.2296 88.8354C20.6186 88.8956 20.0507 88.8238 19.4651 88.6228C18.1738 88.1853 16.9879 87.1931 16.6318 85.8274C16.1592 84.0164 17.2533 81.7854 18.7143 80.7336C20.3365 79.5755 22.1575 80.1442 23.5951 81.3071C25.69 83.0035 27.3121 86.2545 26.3003 88.8666C25.8737 89.9715 25.0544 90.9155 24.1377 91.6453C23.8837 91.8433 23.6179 92.0336 23.35 92.2142C23.5384 92.0917 23.7381 92.0691 23.3925 92.1743C23.1426 92.2487 22.8955 92.3839 22.6337 92.4506C15.4642 94.3555 9.47656 85.9493 12.2689 79.5463C13.1656 77.491 14.6783 75.9677 16.41 74.6529C16.4798 74.5969 16.5614 74.5486 16.6333 74.5024C15.9404 74.9895 16.8154 74.3506 17.0191 74.2043C18.2045 73.345 19.4174 72.6127 20.7659 72.0353C23.1999 70.9884 25.8154 70.4036 28.3925 69.8782C35.6939 68.3949 43.4206 66.8915 49.8986 62.9669C54.9537 59.8916 58.7291 54.678 57.7007 48.5368C57.1118 45.0015 55.1944 40.9037 52.1944 38.7582C48.9427 36.4419 44.5158 35.2692 40.5665 35.9781C36.6172 36.687 33.0851 39.5667 31.451 43.1827C30.424 45.4401 30.1476 48.047 31.3842 50.3172C32.6208 52.5875 34.8957 53.6005 37.2463 53.9219C39.9037 54.2898 42.6232 53.1915 43.9839 50.8212C45.1878 48.72 45.1108 46.087 42.5113 45.1338C41.6238 44.8138 40.6591 44.7048 39.7163 44.7446C38.3265 44.7989 37.1772 47.0111 39.1355 46.9364L39.1376 46.9461Z" fill="#03023E"/>
</g>
<defs>
<filter id="filter0_d_73_74" x="23" y="22" width="309" height="82" filterUnits="userSpaceOnUse" color-interpolation-filters="sRGB">
<feFlood flood-opacity="0" result="BackgroundImageFix"/>
<feColorMatrix in="SourceAlpha" type="matrix" values="0 0 0 0 0 0 0 0 0 0 0 0 0 0 0 0 0 0 127 0" result="hardAlpha"/>
<feOffset dy="4"/>
<feGaussianBlur stdDeviation="2"/>
<feComposite in2="hardAlpha" operator="out"/>
<feColorMatrix type="matrix" values="0 0 0 0 0 0 0 0 0 0 0 0 0 0 0 0 0 0 0.25 0"/>
<feBlend mode="normal" in2="BackgroundImageFix" result="effect1_dropShadow_73_74"/>
<feBlend mode="normal" in="SourceGraphic" in2="effect1_dropShadow_73_74" result="shape"/>
</filter>
<clipPath id="clip0_73_74">
<rect width="60" height="60" fill="white" transform="translate(236)"/>
</clipPath>
<clipPath id="clip1_73_74">
<rect width="55.62" height="53.45" fill="white" transform="translate(65.642 85.2477) rotate(167.824)"/>
</clipPath>
</defs>
</svg>
