<svg width="347" height="102" viewBox="0 0 347 102" fill="none" xmlns="http://www.w3.org/2000/svg">
<g filter="url(#filter0_d_75_75)">
<rect x="18" y="3" width="301" height="73" rx="36.5" fill="#03023E" shape-rendering="crispEdges"/>
<path d="M52.2129 22.42C54.1329 21.148 56.2929 20.524 58.6929 20.548C60.7569 20.572 62.6289 21.196 64.3089 22.42C65.9889 23.644 66.9969 25.24 67.3329 27.208C67.5969 28.696 67.4769 30.088 66.9729 31.384C66.4689 32.68 65.5689 33.604 64.2729 34.156C63.8409 34.348 63.3009 34.456 62.6529 34.48C62.0289 34.504 61.4169 34.384 60.8169 34.12C60.2169 33.832 59.7849 33.436 59.5209 32.932C58.9689 31.948 59.2449 30.52 60.3489 28.648C60.3729 28.6 60.4569 28.468 60.6009 28.252C60.7449 28.012 60.8409 27.844 60.8889 27.748C60.9609 27.628 61.0449 27.46 61.1409 27.244C61.2609 27.004 61.3329 26.812 61.3569 26.668C61.4049 26.524 61.4409 26.356 61.4649 26.164C61.4889 25.972 61.4649 25.804 61.3929 25.66C61.3449 25.492 61.2729 25.324 61.1769 25.156C60.8169 24.7 60.3009 24.436 59.6289 24.364C58.7169 24.244 57.8529 24.472 57.0369 25.048C56.0529 25.744 55.2729 26.704 54.6969 27.928C54.1449 29.128 53.8689 30.352 53.8689 31.6C53.8689 32.848 54.0729 34.06 54.4809 35.236C55.0089 36.484 55.8369 37.552 56.9649 38.44C58.1169 39.328 59.3649 39.88 60.7089 40.096C62.0529 40.288 63.3849 40.084 64.7049 39.484C65.3769 39.172 65.8689 38.848 66.1809 38.512C66.3249 38.368 66.5409 38.104 66.8289 37.72C67.1169 37.336 67.3569 37.048 67.5489 36.856C67.6929 36.736 67.8489 36.676 68.0169 36.676C68.1849 36.676 68.3289 36.748 68.4489 36.892C68.4969 36.988 68.5209 37.144 68.5209 37.36C68.4729 38.44 68.1969 39.508 67.6929 40.564C67.1889 41.596 66.5289 42.496 65.7129 43.264C65.3049 43.648 64.8249 44.008 64.2729 44.344C61.9209 45.712 59.3769 46.12 56.6409 45.568C56.0409 45.472 55.4649 45.316 54.9129 45.1C52.8969 44.356 51.2049 43.096 49.8369 41.32C48.4689 39.52 47.5689 37.516 47.1369 35.308C46.6809 33.052 46.7409 30.868 47.3169 28.756C47.6289 27.556 48.2409 26.392 49.1529 25.264C50.0889 24.112 51.1089 23.164 52.2129 22.42ZM87.0957 28.288C89.0877 30.184 90.1437 32.536 90.2637 35.344C90.4077 38.152 89.5797 40.6 87.7797 42.688C85.9797 44.752 83.7357 45.844 81.0477 45.964C78.3837 46.084 76.0557 45.196 74.0637 43.3C72.0957 41.404 71.0397 39.052 70.8957 36.244C70.7757 33.436 71.6037 31 73.3797 28.936C75.1797 26.848 77.4117 25.744 80.0757 25.624C82.7637 25.504 85.1037 26.392 87.0957 28.288ZM80.1117 40.852C81.2157 39.844 82.1997 38.476 83.0637 36.748C83.9277 34.996 84.4317 33.388 84.5757 31.924C84.7437 30.436 84.4917 29.524 83.8197 29.188C83.1717 28.852 82.2957 29.188 81.1917 30.196C80.1117 31.204 79.1277 32.584 78.2397 34.336C77.3757 36.088 76.8717 37.708 76.7277 39.196C76.5837 40.66 76.8357 41.56 77.4837 41.896C78.1557 42.208 79.0317 41.86 80.1117 40.852ZM118.66 48.196C119.164 48.676 119.428 49.24 119.452 49.888C119.5 50.56 119.368 51.184 119.056 51.76C118.768 52.336 118.372 52.852 117.868 53.308C116.548 54.46 114.88 54.952 112.864 54.784C110.872 54.64 109.276 53.92 108.076 52.624C106.804 51.232 106.036 49.348 105.772 46.972C105.484 44.428 105.328 41.872 105.304 39.304C105.304 38.776 105.304 38.272 105.304 37.792C105.304 37.288 105.292 36.772 105.268 36.244C105.268 35.692 105.244 35.176 105.196 34.696C105.172 34.216 105.112 33.712 105.016 33.184C104.92 32.656 104.8 32.152 104.656 31.672C104.464 31.096 104.128 30.58 103.648 30.124C103.192 29.644 102.676 29.368 102.1 29.296C101.548 29.2 101.008 29.428 100.48 29.98C99.8076 30.676 99.3036 31.66 98.9676 32.932C98.3196 35.452 98.1516 38.104 98.4636 40.888C98.5836 42.088 98.8476 43.396 99.2556 44.812C99.4476 45.484 99.4236 45.88 99.1836 46C99.0876 46.048 98.9436 46.084 98.7516 46.108C96.6636 46.132 94.7556 46.108 93.0276 46.036C92.5716 46.012 92.3076 45.88 92.2356 45.64C92.2116 45.52 92.2116 45.4 92.2356 45.28C92.2836 45.16 92.3316 45.016 92.3796 44.848C92.4516 44.656 92.4996 44.536 92.5236 44.488C92.6676 44.008 92.7876 43.504 92.8836 42.976C93.0756 42.04 93.2076 41.032 93.2796 39.952C93.5436 36.496 93.4476 33.724 92.9916 31.636C92.8476 31.252 92.7756 30.82 92.7756 30.34C92.7996 29.86 92.9556 29.452 93.2436 29.116C93.4596 28.852 93.8316 28.54 94.3596 28.18C95.7516 27.22 96.4596 26.74 96.4836 26.74C96.5316 26.692 96.6516 26.596 96.8436 26.452C97.0596 26.284 97.2156 26.164 97.3116 26.092C97.4316 26.02 97.5756 25.96 97.7436 25.912C97.9356 25.84 98.1156 25.828 98.2836 25.876C98.4756 25.924 98.6076 26.008 98.6796 26.128C98.7516 26.248 98.8236 26.44 98.8956 26.704C98.9196 26.752 98.9316 26.788 98.9316 26.812C98.9556 26.812 98.9676 26.812 98.9676 26.812C99.0156 26.86 99.1476 26.824 99.3636 26.704C100.612 26.104 101.968 25.912 103.432 26.128C104.752 26.296 105.988 26.812 107.14 27.676C107.38 27.844 107.608 28.024 107.824 28.216C109.504 29.728 110.404 31.732 110.524 34.228C110.572 34.996 110.584 36.088 110.56 37.504C110.56 38.92 110.56 40.024 110.56 40.816C110.656 43.408 110.776 45.256 110.92 46.36C111.184 48.544 111.676 50.044 112.396 50.86C113.02 51.556 113.932 52.048 115.132 52.336C114.148 51.592 113.788 50.68 114.052 49.6C114.316 48.544 114.916 47.86 115.852 47.548C116.788 47.236 117.724 47.452 118.66 48.196ZM132.849 44.92C132.873 45.16 132.825 45.376 132.705 45.568C132.609 45.736 132.441 45.832 132.201 45.856C131.577 45.856 130.605 45.868 129.285 45.892C127.989 45.916 127.005 45.94 126.333 45.964C126.261 45.964 126.129 45.976 125.937 46C125.769 46 125.637 46 125.541 46C125.469 46 125.373 45.976 125.253 45.928C125.157 45.856 125.085 45.76 125.037 45.64C124.917 45.352 125.001 44.836 125.289 44.092C125.889 42.46 126.165 40.048 126.117 36.856C126.117 35.392 126.045 34.264 125.901 33.472C125.781 32.776 125.637 32.236 125.469 31.852C125.445 31.78 125.397 31.684 125.325 31.564C125.253 31.42 125.193 31.312 125.145 31.24C125.097 31.144 125.049 31.036 125.001 30.916C124.977 30.772 124.977 30.64 125.001 30.52C125.001 30.208 125.133 29.896 125.397 29.584C125.661 29.272 125.913 29.032 126.153 28.864C126.417 28.672 126.777 28.444 127.233 28.18C127.713 27.916 128.001 27.748 128.097 27.676C128.313 27.556 128.673 27.256 129.177 26.776C129.681 26.296 130.101 25.984 130.437 25.84C130.821 25.672 131.145 25.696 131.409 25.912C131.697 26.104 131.877 26.416 131.949 26.848C132.045 27.376 132.093 27.976 132.093 28.648C132.117 29.296 132.117 29.812 132.093 30.196C132.093 30.556 132.069 31.18 132.021 32.068C131.973 32.932 131.937 33.472 131.913 33.688C131.913 33.832 131.913 33.964 131.913 34.084C131.769 35.524 131.733 37.192 131.805 39.088C131.877 40.984 132.153 42.616 132.633 43.984C132.777 44.416 132.849 44.728 132.849 44.92ZM128.889 23.284C128.433 24.244 127.761 24.976 126.873 25.48C126.009 25.984 125.121 25.996 124.209 25.516C123.513 25.132 123.069 24.568 122.877 23.824C122.685 23.08 122.817 22.36 123.273 21.664C123.585 21.16 123.957 20.824 124.389 20.656C124.821 20.464 125.241 20.392 125.649 20.44C126.057 20.488 126.549 20.608 127.125 20.8C127.173 20.512 127.077 20.176 126.837 19.792C126.621 19.408 126.369 19.108 126.081 18.892C125.721 18.604 125.289 18.436 124.785 18.388C123.801 18.292 123.021 18.532 122.445 19.108C121.869 19.684 121.557 20.464 121.509 21.448C121.413 23.584 121.389 24.904 121.437 25.408C121.461 25.456 121.473 25.492 121.473 25.516C121.521 25.588 121.617 25.636 121.761 25.66C121.905 25.684 122.061 25.696 122.229 25.696C122.421 25.672 122.553 25.66 122.625 25.66C123.081 25.708 123.333 25.984 123.381 26.488C123.405 26.872 123.297 27.136 123.057 27.28C122.841 27.4 122.325 27.496 121.509 27.568C121.437 27.784 121.401 27.904 121.401 27.928C121.425 28.6 121.437 29.812 121.437 31.564C121.437 33.316 121.449 34.672 121.473 35.632C121.473 36.04 121.485 36.664 121.509 37.504C121.533 38.32 121.557 38.932 121.581 39.34C121.581 40.468 121.665 41.416 121.833 42.184C121.929 42.688 122.049 43.156 122.193 43.588C122.217 43.636 122.301 43.828 122.445 44.164C122.613 44.476 122.709 44.716 122.733 44.884C122.757 45.172 122.673 45.4 122.481 45.568C122.313 45.736 122.085 45.82 121.797 45.82C118.461 45.844 116.433 45.844 115.713 45.82C115.233 45.82 114.897 45.724 114.705 45.532C114.609 45.412 114.549 45.28 114.525 45.136C114.501 44.968 114.501 44.836 114.525 44.74C114.573 44.62 114.633 44.476 114.705 44.308C114.801 44.14 114.861 44.008 114.885 43.912C115.077 43.24 115.209 42.472 115.281 41.608C115.305 41.032 115.317 40.276 115.317 39.34C115.317 38.38 115.317 37.612 115.317 37.036C115.341 35.596 115.353 34.588 115.353 34.012C115.353 33.412 115.329 32.392 115.281 30.952C115.233 29.512 115.209 28.504 115.209 27.928C115.209 27.928 115.185 27.82 115.137 27.604C115.065 27.604 114.897 27.616 114.633 27.64C114.393 27.664 114.189 27.676 114.021 27.676C113.877 27.676 113.709 27.652 113.517 27.604C113.349 27.532 113.217 27.424 113.121 27.28C113.049 27.112 113.013 26.896 113.013 26.632C113.037 26.008 113.541 25.696 114.525 25.696C114.789 25.696 114.981 25.648 115.101 25.552C115.221 25.456 115.281 25.264 115.281 24.976C115.329 23.848 115.377 22.984 115.425 22.384C115.497 21.784 115.617 21.016 115.785 20.08C115.953 19.144 116.229 18.328 116.613 17.632C116.997 16.912 117.489 16.264 118.089 15.688C118.929 14.872 120.057 14.32 121.473 14.032C122.889 13.744 124.197 13.816 125.397 14.248C126.045 14.464 126.585 14.764 127.017 15.148C128.121 16.132 128.865 17.404 129.249 18.964C129.633 20.5 129.513 21.94 128.889 23.284ZM151.402 43.876C152.722 44.14 153.826 44.692 154.714 45.532C155.626 46.372 156.274 47.452 156.658 48.772C157.186 50.668 156.946 52.456 155.938 54.136C154.954 55.84 153.538 57.184 151.69 58.168C150.034 59.032 148.198 59.548 146.182 59.716C144.166 59.884 142.258 59.728 140.458 59.248C138.538 58.768 137.146 58 136.282 56.944C135.106 55.528 134.698 54.088 135.058 52.624C135.226 51.952 135.574 51.388 136.102 50.932C136.606 50.524 137.194 50.272 137.866 50.176C138.538 50.104 139.15 50.248 139.702 50.608C140.254 50.968 140.566 51.508 140.638 52.228C140.686 52.876 140.926 53.44 141.358 53.92C141.814 54.4 142.366 54.772 143.014 55.036C143.566 55.276 144.202 55.432 144.922 55.504C145.666 55.576 146.398 55.564 147.118 55.468C147.838 55.372 148.462 55.108 148.99 54.676C149.542 54.244 149.878 53.668 149.998 52.948C150.094 52.108 149.914 51.316 149.458 50.572C149.002 49.852 148.342 49.312 147.478 48.952C147.286 48.856 147.082 48.772 146.866 48.7C146.674 48.652 146.458 48.604 146.218 48.556C145.978 48.532 145.774 48.508 145.606 48.484C145.462 48.46 145.246 48.436 144.958 48.412C144.67 48.412 144.466 48.4 144.346 48.376C144.25 48.376 144.034 48.376 143.698 48.376C143.362 48.376 143.146 48.376 143.05 48.376C141.73 48.352 140.554 48.232 139.522 48.016C138.514 47.8 137.662 47.356 136.966 46.684C136.198 45.964 135.754 45.1 135.634 44.092C135.538 43.06 135.802 42.112 136.426 41.248C136.45 41.2 136.822 40.756 137.542 39.916C137.422 39.724 137.218 39.448 136.93 39.088C136.666 38.704 136.438 38.368 136.246 38.08C136.054 37.768 135.898 37.468 135.778 37.18C135.202 35.956 134.962 34.72 135.058 33.472C135.178 32.2 135.502 31.036 136.03 29.98C136.582 28.9 137.386 27.976 138.442 27.208C139.522 26.416 140.746 25.9 142.114 25.66C142.81 25.54 144.394 25.456 146.866 25.408C147.154 25.408 147.358 25.36 147.478 25.264C147.622 25.168 147.73 24.988 147.802 24.724C148.018 23.956 148.33 23.212 148.738 22.492C149.218 21.556 149.986 20.944 151.042 20.656C152.122 20.344 153.19 20.38 154.246 20.764C155.302 21.148 156.082 21.796 156.586 22.708C156.85 23.188 156.958 23.716 156.91 24.292C156.862 24.868 156.658 25.36 156.298 25.768C155.842 26.272 155.302 26.596 154.678 26.74C154.054 26.86 153.43 26.764 152.806 26.452C152.182 26.116 151.606 26.104 151.078 26.416C151.222 26.536 151.426 26.692 151.69 26.884C151.954 27.076 152.158 27.232 152.302 27.352C152.446 27.472 152.626 27.628 152.842 27.82C153.058 28.012 153.238 28.204 153.382 28.396C154.006 29.116 154.498 29.92 154.858 30.808C155.554 32.608 155.662 34.42 155.182 36.244C154.822 37.612 154.102 38.776 153.022 39.736C151.942 40.696 150.706 41.38 149.314 41.788C147.946 42.172 146.518 42.352 145.03 42.328C143.542 42.304 142.186 42.064 140.962 41.608C140.53 41.416 140.062 41.404 139.558 41.572C139.054 41.716 138.778 42.064 138.73 42.616C138.658 43.36 138.958 43.912 139.63 44.272C140.302 44.632 141.034 44.788 141.826 44.74C142.354 44.692 143.134 44.524 144.166 44.236C145.198 43.948 145.978 43.792 146.506 43.768C148.642 43.6 150.274 43.636 151.402 43.876ZM145.21 29.656C144.37 30.304 143.638 31.24 143.014 32.464C142.414 33.688 142.102 34.84 142.078 35.92C142.078 37 142.366 37.696 142.942 38.008C143.542 38.296 144.262 38.116 145.102 37.468C145.966 36.796 146.698 35.848 147.298 34.624C147.922 33.4 148.246 32.248 148.27 31.168C148.294 30.088 148.006 29.404 147.406 29.116C146.806 28.804 146.074 28.984 145.21 29.656ZM182.758 48.304C183.262 48.784 183.526 49.348 183.55 49.996C183.574 50.668 183.43 51.292 183.118 51.868C182.83 52.444 182.446 52.96 181.966 53.416C180.646 54.568 178.978 55.06 176.962 54.892C174.97 54.748 173.374 54.028 172.174 52.732C171.142 51.628 170.458 50.296 170.122 48.736C169.81 47.2 169.666 45.46 169.69 43.516C169.186 44.284 168.502 44.932 167.638 45.46C166.798 45.964 165.922 46.216 165.01 46.216C163.21 46.216 161.71 45.736 160.51 44.776C159.766 44.176 159.238 43.504 158.926 42.76C158.638 41.992 158.482 41.056 158.458 39.952C158.458 39.88 158.458 39.772 158.458 39.628C158.434 39.028 158.41 38.176 158.386 37.072C158.362 35.944 158.35 35.164 158.35 34.732C158.302 33.316 158.266 32.44 158.242 32.104C158.194 31.672 158.062 31.048 157.846 30.232C157.654 29.416 157.546 28.936 157.522 28.792C157.474 28.672 157.462 28.552 157.486 28.432C157.534 28.312 157.606 28.204 157.702 28.108C157.822 27.988 157.942 27.892 158.062 27.82C158.206 27.724 158.41 27.628 158.674 27.532C158.938 27.412 159.178 27.304 159.394 27.208C159.634 27.112 159.958 26.98 160.366 26.812C160.798 26.644 161.194 26.488 161.554 26.344C162.298 26.032 162.874 25.888 163.282 25.912C163.642 25.912 163.942 26.032 164.182 26.272C164.446 26.512 164.566 26.812 164.542 27.172C164.542 27.292 164.506 27.484 164.434 27.748C164.386 28.012 164.362 28.168 164.362 28.216C164.218 29.008 164.122 29.884 164.074 30.844C163.906 33.916 163.93 36.376 164.146 38.224C164.146 38.344 164.158 38.464 164.182 38.584C164.398 40.288 164.782 41.392 165.334 41.896C165.694 42.232 166.162 42.412 166.738 42.436C167.314 42.436 167.794 42.28 168.178 41.968C168.874 41.488 169.282 40.18 169.402 38.044C169.522 35.884 169.486 33.88 169.294 32.032C169.102 30.16 168.922 28.9 168.754 28.252C168.658 27.844 168.67 27.556 168.79 27.388C168.91 27.196 169.186 27.04 169.618 26.92C169.93 26.848 170.386 26.692 170.986 26.452C171.586 26.212 171.946 26.068 172.066 26.02C173.554 25.492 174.49 25.54 174.874 26.164C175.018 26.404 175.09 26.944 175.09 27.784C175.09 29.032 175.03 31.576 174.91 35.416C174.79 39.928 174.766 42.796 174.838 44.02C174.838 44.044 174.838 44.272 174.838 44.704C174.862 45.112 174.874 45.352 174.874 45.424C174.898 45.496 174.922 45.724 174.946 46.108C174.97 46.516 174.994 46.78 175.018 46.9C175.042 47.044 175.078 47.284 175.126 47.62C175.174 47.98 175.222 48.244 175.27 48.412C175.342 48.58 175.414 48.808 175.486 49.096C175.558 49.384 175.642 49.612 175.738 49.78C175.834 49.972 175.942 50.176 176.062 50.392C176.206 50.608 176.35 50.8 176.494 50.968C177.118 51.664 178.018 52.156 179.194 52.444C178.234 51.7 177.886 50.788 178.15 49.708C178.414 48.652 179.002 47.968 179.914 47.656C180.85 47.344 181.798 47.56 182.758 48.304ZM193.242 28.252C193.53 30.412 192.966 31.9 191.55 32.716C190.11 33.556 189.006 33.316 188.238 31.996C188.19 31.9 188.118 31.804 188.022 31.708C187.398 30.868 186.738 30.568 186.042 30.808C185.898 30.856 185.766 30.916 185.646 30.988C185.526 31.036 185.418 31.12 185.322 31.24C185.25 31.336 185.178 31.432 185.106 31.528C185.058 31.6 185.01 31.72 184.962 31.888C184.938 32.032 184.914 32.14 184.89 32.212C184.866 32.284 184.842 32.416 184.818 32.608C184.818 32.8 184.818 32.932 184.818 33.004C184.818 33.076 184.818 33.22 184.818 33.436C184.818 33.628 184.818 33.748 184.818 33.796C184.794 36.1 184.794 37.732 184.818 38.692C184.818 38.836 184.806 39.328 184.782 40.168C184.782 41.008 184.782 41.596 184.782 41.932C184.806 42.244 184.854 42.7 184.926 43.3C184.998 43.9 185.118 44.428 185.286 44.884C185.478 45.412 185.466 45.748 185.25 45.892C185.106 45.964 184.89 46 184.602 46C183.21 46.024 182.166 46.036 181.47 46.036C179.574 46.036 178.626 46.036 178.626 46.036C178.194 45.988 178.038 45.76 178.158 45.352C178.326 44.848 178.458 44.332 178.554 43.804C178.674 43.276 178.746 42.712 178.77 42.112C178.818 41.488 178.842 40.972 178.842 40.564C178.866 40.156 178.866 39.58 178.842 38.836C178.842 38.092 178.842 37.564 178.842 37.252C178.866 35.788 178.854 34.804 178.806 34.3C178.71 33.004 178.566 32.044 178.374 31.42C178.11 30.556 178.314 29.824 178.986 29.224C180.138 28.24 181.326 27.28 182.55 26.344C182.91 26.08 183.354 25.9 183.882 25.804C184.218 25.732 184.47 25.78 184.638 25.948C184.83 26.116 184.926 26.38 184.926 26.74C184.926 26.836 184.926 27.436 184.926 28.54C186.318 27.532 187.062 26.992 187.158 26.92C188.31 26.224 189.366 25.864 190.326 25.84C191.022 25.84 191.658 26.068 192.234 26.524C192.81 26.956 193.146 27.532 193.242 28.252ZM218.234 48.088C218.714 48.568 218.966 49.132 218.99 49.78C219.038 50.452 218.906 51.076 218.594 51.652C218.306 52.228 217.91 52.744 217.406 53.2C216.086 54.352 214.418 54.844 212.402 54.676C210.41 54.532 208.826 53.812 207.65 52.516C206.666 51.436 205.982 50.008 205.598 48.232C205.526 47.944 205.418 47.152 205.274 45.856C205.202 45.328 205.154 44.824 205.13 44.344C205.13 44.32 205.118 44.2 205.094 43.984C205.094 43.744 205.094 43.552 205.094 43.408C205.094 43.24 205.118 43.12 205.166 43.048C204.782 43.72 204.254 44.272 203.582 44.704C201.662 45.928 199.322 46.18 196.562 45.46C195.362 45.148 194.426 44.512 193.754 43.552C193.082 42.568 192.758 41.452 192.782 40.204C192.806 38.452 193.442 37 194.69 35.848C195.962 34.696 197.474 34.096 199.226 34.048C200.018 34.024 200.786 34.108 201.53 34.3C202.106 34.444 202.562 34.612 202.898 34.804C203.594 35.188 203.942 35.476 203.942 35.668C204.038 34.588 204.038 33.508 203.942 32.428C203.846 31.06 203.642 30.112 203.33 29.584C202.994 29.008 202.55 28.684 201.998 28.612C201.71 28.588 201.398 28.624 201.062 28.72C200.726 28.816 200.474 28.972 200.306 29.188C200.21 29.332 200.126 29.512 200.054 29.728C200.006 29.92 199.982 30.076 199.982 30.196C199.982 30.316 199.982 30.52 199.982 30.808C200.006 31.096 200.018 31.264 200.018 31.312C200.018 31.6 199.994 31.816 199.946 31.96C199.85 32.392 199.598 32.74 199.19 33.004C198.374 33.556 197.486 33.664 196.526 33.328C195.59 32.992 195.05 32.332 194.906 31.348C194.738 30.1 195.194 28.972 196.274 27.964C197.378 26.956 198.602 26.296 199.946 25.984C201.746 25.552 203.486 25.576 205.166 26.056C207.278 26.704 208.742 27.82 209.558 29.404C209.678 29.668 209.786 29.968 209.882 30.304C209.978 30.616 210.05 30.892 210.098 31.132C210.146 31.348 210.17 31.672 210.17 32.104C210.194 32.536 210.206 32.836 210.206 33.004C210.206 33.172 210.206 33.508 210.206 34.012C210.206 34.492 210.206 34.78 210.206 34.876C210.134 36.748 210.122 38.896 210.17 41.32C210.242 43.744 210.434 45.88 210.746 47.728C210.986 49.12 211.394 50.128 211.97 50.752C212.594 51.448 213.494 51.94 214.67 52.228C213.71 51.484 213.35 50.572 213.59 49.492C213.854 48.436 214.454 47.752 215.39 47.44C216.326 47.128 217.274 47.344 218.234 48.088ZM198.902 42.436C199.502 41.98 200.006 41.332 200.414 40.492C200.846 39.628 201.062 38.824 201.062 38.08C201.086 37.336 200.894 36.868 200.486 36.676C200.078 36.46 199.574 36.58 198.974 37.036C198.398 37.492 197.894 38.152 197.462 39.016C197.03 39.856 196.802 40.648 196.778 41.392C196.778 42.136 196.982 42.616 197.39 42.832C197.822 43.024 198.326 42.892 198.902 42.436ZM230.555 39.052C231.011 39.244 231.071 39.796 230.735 40.708C230.495 41.38 230.075 42.148 229.475 43.012C228.899 43.852 228.155 44.572 227.243 45.172C226.595 45.58 225.803 45.868 224.867 46.036C225.035 47.26 224.687 48.328 223.823 49.24C222.983 50.152 221.903 50.488 220.583 50.248C219.503 50.104 218.927 49.648 218.855 48.88C218.783 48.28 219.023 47.824 219.575 47.512C219.815 47.368 220.091 47.32 220.403 47.368C220.475 47.368 220.571 47.38 220.691 47.404C220.835 47.428 220.931 47.44 220.979 47.44C221.051 47.44 221.123 47.44 221.195 47.44C221.291 47.44 221.375 47.428 221.447 47.404C221.519 47.38 221.591 47.344 221.663 47.296C222.095 47.056 222.215 46.672 222.023 46.144C221.879 46.144 221.735 46.132 221.591 46.108C219.647 45.868 217.955 45.1 216.515 43.804C215.267 42.676 214.391 41.284 213.887 39.628C213.383 37.948 213.263 36.256 213.527 34.552C213.815 32.824 214.427 31.276 215.363 29.908C216.419 28.372 217.571 27.316 218.819 26.74C220.091 26.188 221.435 25.948 222.851 26.02C224.291 26.092 225.635 26.428 226.883 27.028C227.675 27.412 228.371 28 228.971 28.792C229.571 29.584 229.943 30.436 230.087 31.348C230.231 32.26 230.039 33.148 229.511 34.012C229.247 34.372 228.863 34.636 228.359 34.804C227.879 34.972 227.423 35.008 226.991 34.912C226.559 34.816 226.199 34.576 225.911 34.192C225.623 33.784 225.455 33.34 225.407 32.86C225.359 32.596 225.347 32.32 225.371 32.032C225.395 31.72 225.407 31.42 225.407 31.132C225.407 30.844 225.407 30.58 225.407 30.34C225.407 30.076 225.359 29.848 225.263 29.656C225.167 29.464 225.035 29.308 224.867 29.188C224.723 29.068 224.483 29.02 224.147 29.044C223.835 29.044 223.451 29.116 222.995 29.26C221.891 29.572 221.027 30.604 220.403 32.356C220.091 33.268 219.911 34.288 219.863 35.416C219.839 36.544 220.043 37.648 220.475 38.728C220.931 39.784 221.627 40.516 222.563 40.924C223.859 41.452 225.179 41.584 226.523 41.32C227.171 41.2 227.807 40.888 228.431 40.384C228.503 40.36 228.731 40.156 229.115 39.772C229.523 39.388 229.859 39.148 230.123 39.052C230.291 39.004 230.435 39.004 230.555 39.052ZM240.31 24.616C239.926 24.832 239.566 24.784 239.23 24.472C238.894 24.136 238.882 23.668 239.194 23.068C239.914 21.796 240.838 21.16 241.966 21.16C242.206 21.16 242.458 21.196 242.722 21.268C242.962 21.316 243.262 21.46 243.622 21.7C244.006 21.916 244.246 22.048 244.342 22.096C244.582 22.216 244.762 22.264 244.882 22.24C244.978 22.216 245.086 22.168 245.206 22.096C245.302 22.024 245.422 21.904 245.566 21.736C245.734 21.544 245.89 21.412 246.034 21.34C246.178 21.244 246.346 21.196 246.538 21.196C246.826 21.196 247.066 21.268 247.258 21.412C247.474 21.556 247.594 21.748 247.618 21.988C247.666 22.18 247.63 22.372 247.51 22.564C247.15 23.212 246.658 23.728 246.034 24.112C245.698 24.328 245.398 24.448 245.134 24.472C244.75 24.496 244.33 24.352 243.874 24.04C243.202 23.584 242.818 23.332 242.722 23.284C242.218 23.068 241.786 23.08 241.426 23.32C241.258 23.416 241.066 23.632 240.85 23.968C240.658 24.304 240.478 24.52 240.31 24.616ZM249.166 28.504C251.158 30.4 252.214 32.752 252.334 35.56C252.478 38.368 251.65 40.816 249.85 42.904C248.05 44.968 245.806 46.06 243.118 46.18C240.454 46.324 238.126 45.448 236.134 43.552C234.166 41.656 233.11 39.304 232.966 36.496C232.846 33.688 233.674 31.252 235.45 29.188C237.25 27.1 239.482 25.996 242.146 25.876C244.834 25.732 247.174 26.608 249.166 28.504ZM242.182 41.104C243.286 40.096 244.27 38.716 245.134 36.964C245.998 35.212 246.502 33.604 246.646 32.14C246.814 30.676 246.562 29.776 245.89 29.44C245.242 29.104 244.366 29.44 243.262 30.448C242.182 31.456 241.198 32.836 240.31 34.588C239.446 36.34 238.942 37.948 238.798 39.412C238.654 40.876 238.906 41.776 239.554 42.112C240.226 42.448 241.102 42.112 242.182 41.104ZM272.108 39.088C272.204 39.16 272.276 39.28 272.324 39.448C272.468 39.904 272.324 40.636 271.892 41.644C271.244 43.276 270.128 44.5 268.544 45.316C266.96 46.108 265.268 46.408 263.468 46.216C263.396 46.216 263.312 46.204 263.216 46.18C261.272 45.94 259.58 45.172 258.14 43.876C256.892 42.772 256.016 41.38 255.512 39.7C255.008 38.02 254.888 36.328 255.152 34.624C255.44 32.896 256.052 31.348 256.988 29.98C258.044 28.444 259.196 27.388 260.444 26.812C261.884 26.14 263.48 25.948 265.232 26.236C267.632 26.62 269.528 27.568 270.92 29.08C272.288 30.592 272.72 32.572 272.216 35.02C272.048 35.836 271.712 36.568 271.208 37.216C270.608 38.056 269.792 38.68 268.76 39.088C267.8 39.52 266.78 39.7 265.7 39.628C264.188 39.556 263.036 39.1 262.244 38.26C262.22 38.26 262.196 38.248 262.172 38.224C262.124 38.224 262.1 38.272 262.1 38.368C262.076 38.896 262.292 39.424 262.748 39.952C263.156 40.408 263.636 40.756 264.188 40.996C265.484 41.524 266.804 41.656 268.148 41.392C268.796 41.272 269.432 40.972 270.056 40.492C270.128 40.444 270.308 40.264 270.596 39.952C270.884 39.64 271.16 39.4 271.424 39.232C271.712 39.04 271.94 38.992 272.108 39.088ZM264.62 30.34C264.044 30.796 263.54 31.444 263.108 32.284C262.7 33.124 262.484 33.928 262.46 34.696C262.46 35.44 262.664 35.92 263.072 36.136C263.48 36.328 263.984 36.196 264.584 35.74C265.184 35.284 265.688 34.636 266.096 33.796C266.528 32.932 266.744 32.128 266.744 31.384C266.768 30.64 266.564 30.172 266.132 29.98C265.724 29.764 265.22 29.884 264.62 30.34ZM289.877 37.936C290.381 39.448 290.249 40.984 289.481 42.544C288.713 44.104 287.609 45.136 286.169 45.64C285.017 45.976 283.841 46.132 282.641 46.108C281.441 46.108 280.241 45.844 279.041 45.316C277.865 44.788 276.893 44.056 276.125 43.12H276.161C275.441 42.184 275.117 41.212 275.189 40.204C275.189 40.18 275.189 40.156 275.189 40.132C275.237 39.676 275.369 39.292 275.585 38.98C276.041 38.212 276.665 37.744 277.457 37.576C278.273 37.384 279.077 37.636 279.869 38.332C280.277 38.716 280.529 39.16 280.625 39.664C280.721 40.168 280.697 40.66 280.553 41.14C280.433 41.62 280.217 42.076 279.905 42.508C279.977 42.652 280.049 42.784 280.121 42.904C280.457 43.336 280.961 43.648 281.633 43.84C282.329 44.008 282.929 43.996 283.433 43.804C283.817 43.684 284.117 43.468 284.333 43.156C284.549 42.844 284.669 42.496 284.693 42.112C284.741 41.704 284.621 41.248 284.333 40.744C284.069 40.24 283.661 39.76 283.109 39.304C282.797 39.064 282.293 38.764 281.597 38.404C280.901 38.02 280.253 37.672 279.653 37.36C279.077 37.048 278.453 36.604 277.781 36.028C277.133 35.428 276.617 34.768 276.233 34.048C275.249 32.176 275.153 30.388 275.945 28.684C276.689 27.148 277.961 26.068 279.761 25.444C281.633 24.796 283.481 24.868 285.305 25.66C286.457 26.164 287.393 26.848 288.113 27.712C289.073 28.792 289.529 29.86 289.481 30.916C289.433 31.684 289.121 32.344 288.545 32.896C287.945 33.496 287.225 33.76 286.385 33.688C285.401 33.64 284.669 33.136 284.189 32.176C283.685 31.144 283.841 30.112 284.657 29.08C284.489 28.648 284.273 28.312 284.009 28.072C283.577 27.712 283.085 27.52 282.533 27.496C282.005 27.448 281.537 27.592 281.129 27.928C280.745 28.24 280.553 28.708 280.553 29.332C280.553 29.884 280.745 30.472 281.129 31.096C281.489 31.672 282.005 32.2 282.677 32.68C283.349 33.136 284.033 33.52 284.729 33.832C285.425 34.144 286.121 34.468 286.817 34.804C287.513 35.14 288.137 35.572 288.689 36.1C289.265 36.604 289.661 37.216 289.877 37.936Z" fill="#FDDFFC"/>
</g>
<g clip-path="url(#clip0_75_75)">
<path d="M320.138 13.9461C320.138 13.9461 319.835 13.9193 320.2 13.953C320.399 13.9716 320.605 13.9783 320.805 14.0067C321.397 14.0938 322.057 14.2584 322.499 14.695C323.19 15.3848 323.037 16.2874 322.7 17.0966C321.907 19.017 319.983 19.0128 318.299 18.4655C315.639 17.6074 314.071 15.2245 314.393 12.403C314.715 9.58162 317.098 6.73494 319.649 5.61176C323.329 3.98899 328.455 5.55322 331.435 7.98933C332.539 8.88665 333.365 10.151 334.06 11.3821C335.193 13.4087 335.964 15.6566 336.058 17.9892C336.194 21.2744 334.747 24.2364 332.346 26.4322C331.628 27.0884 330.838 27.6475 330.036 28.199C329.681 28.4495 330.202 28.1122 329.982 28.2312C329.22 28.6821 328.449 29.0938 327.651 29.4707C323.934 31.2549 319.931 32.4765 315.933 33.4313C310.611 34.7023 305.053 35.257 300.066 37.6527C297.796 38.7462 295.554 40.304 293.729 42.089C291.549 44.2167 289.959 46.9945 289.711 50.0659C289.407 53.9167 291.305 57.9266 294.579 60.013C297.256 61.7064 300.679 62.349 303.755 61.4807C305.866 60.882 307.684 59.3541 308.952 57.5971C310.729 55.1166 310.652 52.3404 309.38 49.6686C307.776 46.3114 304.169 44.0103 300.459 45.2099C296.967 46.3316 293.636 50.6205 295.013 54.3949C296.018 57.1551 299.545 58.614 302.296 57.8978C303.711 57.5312 304.823 56.667 305.368 55.3015C305.64 54.6188 304.788 54.3218 304.275 54.3609C303.53 54.4192 302.873 54.9293 302.611 55.61C302.531 55.8112 302.48 55.812 302.23 55.8354C301.619 55.8956 301.051 55.8238 300.465 55.6228C299.174 55.1853 297.988 54.1931 297.632 52.8275C297.159 51.0164 298.253 48.7855 299.714 47.7336C301.337 46.5755 303.157 47.1442 304.595 48.3072C306.69 50.0035 308.312 53.2545 307.3 55.8666C306.874 56.9715 306.054 57.9155 305.138 58.6453C304.884 58.8433 304.618 59.0336 304.35 59.2142C304.538 59.0917 304.738 59.0691 304.392 59.1743C304.143 59.2487 303.895 59.3839 303.634 59.4506C296.464 61.3555 290.477 52.9493 293.269 46.5463C294.166 44.491 295.678 42.9677 297.41 41.6529C297.48 41.5969 297.561 41.5486 297.633 41.5024C296.94 41.9895 297.815 41.3506 298.019 41.2043C299.204 40.345 300.417 39.6127 301.766 39.0353C304.2 37.9884 306.815 37.4036 309.392 36.8782C316.694 35.3949 324.421 33.8915 330.899 29.9669C335.954 26.8916 339.729 21.678 338.701 15.5368C338.112 12.0015 336.194 7.90369 333.194 5.75815C329.943 3.44186 325.516 2.26916 321.566 2.97806C317.617 3.68695 314.085 6.56668 312.451 10.1827C311.424 12.4401 311.148 15.047 312.384 17.3172C313.621 19.5875 315.896 20.6005 318.246 20.9219C320.904 21.2898 323.623 20.1915 324.984 17.8212C326.188 15.72 326.111 13.087 323.511 12.1338C322.624 11.8138 321.659 11.7048 320.716 11.7446C319.326 11.7989 318.177 14.0111 320.135 13.9364L320.138 13.9461Z" fill="#03023E"/>
</g>
<g clip-path="url(#clip1_75_75)">
<path d="M39.1376 51.9461C39.1376 51.9461 38.8352 51.9193 39.2005 51.953C39.3989 51.9716 39.6049 51.9783 39.8054 52.0067C40.3971 52.0938 41.0567 52.2584 41.4987 52.695C42.1897 53.3848 42.0366 54.2874 41.6997 55.0966C40.9069 57.0171 38.9827 57.0128 37.2994 56.4655C34.6386 55.6074 33.0708 53.2245 33.3929 50.403C33.7151 47.5816 36.0983 44.7349 38.6488 43.6118C42.3294 41.989 47.4546 43.5532 50.4354 45.9893C51.5395 46.8867 52.3647 48.1511 53.06 49.3821C54.1929 51.4087 54.9644 53.6566 55.0585 55.9892C55.1944 59.2745 53.7466 62.2364 51.3457 64.4322C50.6279 65.0884 49.8381 65.6475 49.0364 66.199C48.6812 66.4496 49.2018 66.1122 48.9819 66.2312C48.2199 66.6821 47.4494 67.0939 46.6509 67.4707C42.9336 69.2549 38.9312 70.4765 34.9326 71.4313C29.611 72.7023 24.053 73.257 19.0661 75.6527C16.7956 76.7462 14.5538 78.304 12.7292 80.089C10.5489 82.2167 8.959 84.9945 8.7112 88.0659C8.40654 91.9168 10.3049 95.9266 13.5786 98.013C16.256 99.7064 19.6786 100.349 22.7546 99.4808C24.8658 98.882 26.6845 97.3541 27.9524 95.5971C29.7292 93.1166 29.652 90.3404 28.3799 87.6686C26.7757 84.3114 23.1692 82.0103 19.4588 83.2099C15.9668 84.3316 12.6365 88.6205 14.0135 92.3949C15.0183 95.1551 18.5453 96.614 21.2961 95.8978C22.7106 95.5312 23.8234 94.6671 24.3676 93.3016C24.6398 92.6188 23.788 92.3218 23.2747 92.3609C22.5302 92.4192 21.873 92.9293 21.6107 93.61C21.5313 93.8112 21.4804 93.812 21.2296 93.8354C20.6186 93.8956 20.0507 93.8238 19.4651 93.6228C18.1738 93.1853 16.9879 92.1931 16.6318 90.8275C16.1592 89.0164 17.2533 86.7855 18.7143 85.7337C20.3365 84.5755 22.1575 85.1442 23.5951 86.3072C25.69 88.0035 27.3121 91.2545 26.3003 93.8666C25.8737 94.9715 25.0544 95.9155 24.1377 96.6453C23.8837 96.8433 23.6179 97.0336 23.35 97.2142C23.5384 97.0917 23.7381 97.0691 23.3925 97.1743C23.1426 97.2487 22.8955 97.3839 22.6337 97.4506C15.4642 99.3556 9.47656 90.9493 12.2689 84.5463C13.1656 82.491 14.6783 80.9677 16.41 79.6529C16.4798 79.5969 16.5614 79.5486 16.6333 79.5024C15.9404 79.9895 16.8154 79.3506 17.0191 79.2043C18.2045 78.345 19.4174 77.6127 20.7659 77.0353C23.1999 75.9884 25.8154 75.4036 28.3925 74.8782C35.6939 73.3949 43.4206 71.8915 49.8986 67.9669C54.9537 64.8916 58.7291 59.678 57.7007 53.5368C57.1118 50.0015 55.1944 45.9037 52.1944 43.7582C48.9427 41.4419 44.5158 40.2692 40.5665 40.9781C36.6172 41.687 33.0851 44.5667 31.451 48.1827C30.424 50.4401 30.1476 53.047 31.3842 55.3172C32.6208 57.5875 34.8957 58.6005 37.2463 58.922C39.9037 59.2898 42.6232 58.1915 43.9839 55.8212C45.1878 53.72 45.1108 51.087 42.5113 50.1338C41.6238 49.8138 40.6591 49.7048 39.7163 49.7446C38.3265 49.7989 37.1772 52.0111 39.1355 51.9364L39.1376 51.9461Z" fill="#03023E"/>
</g>
<defs>
<filter id="filter0_d_75_75" x="14" y="3" width="309" height="81" filterUnits="userSpaceOnUse" color-interpolation-filters="sRGB">
<feFlood flood-opacity="0" result="BackgroundImageFix"/>
<feColorMatrix in="SourceAlpha" type="matrix" values="0 0 0 0 0 0 0 0 0 0 0 0 0 0 0 0 0 0 127 0" result="hardAlpha"/>
<feOffset dy="4"/>
<feGaussianBlur stdDeviation="2"/>
<feComposite in2="hardAlpha" operator="out"/>
<feColorMatrix type="matrix" values="0 0 0 0 0 0 0 0 0 0 0 0 0 0 0 0 0 0 0.25 0"/>
<feBlend mode="normal" in2="BackgroundImageFix" result="effect1_dropShadow_75_75"/>
<feBlend mode="normal" in="SourceGraphic" in2="effect1_dropShadow_75_75" result="shape"/>
</filter>
<clipPath id="clip0_75_75">
<rect width="55.62" height="53.45" fill="white" transform="translate(346.642 52.2477) rotate(167.824)"/>
</clipPath>
<clipPath id="clip1_75_75">
<rect width="55.62" height="53.45" fill="white" transform="translate(65.642 90.2477) rotate(167.824)"/>
</clipPath>
</defs>
</svg>
