<svg width="336" height="114" viewBox="0 0 336 114" fill="none" xmlns="http://www.w3.org/2000/svg">
<g filter="url(#filter0_d_75_76)">
<rect x="4.00003" y="24" width="301" height="74" rx="37" fill="#03023E" shape-rendering="crispEdges"/>
<path d="M90.5957 43.92C92.5157 42.648 94.6757 42.024 97.0757 42.048C99.1397 42.072 101.012 42.696 102.692 43.92C104.372 45.144 105.38 46.74 105.716 48.708C105.98 50.196 105.86 51.588 105.356 52.884C104.852 54.18 103.952 55.104 102.656 55.656C102.224 55.848 101.684 55.956 101.036 55.98C100.412 56.004 99.7997 55.884 99.1997 55.62C98.5997 55.332 98.1677 54.936 97.9037 54.432C97.3517 53.448 97.6277 52.02 98.7317 50.148C98.7557 50.1 98.8397 49.968 98.9837 49.752C99.1277 49.512 99.2237 49.344 99.2717 49.248C99.3437 49.128 99.4277 48.96 99.5237 48.744C99.6437 48.504 99.7157 48.312 99.7397 48.168C99.7877 48.024 99.8237 47.856 99.8477 47.664C99.8717 47.472 99.8477 47.304 99.7757 47.16C99.7277 46.992 99.6557 46.824 99.5597 46.656C99.1997 46.2 98.6837 45.936 98.0117 45.864C97.0997 45.744 96.2357 45.972 95.4197 46.548C94.4357 47.244 93.6557 48.204 93.0797 49.428C92.5277 50.628 92.2517 51.852 92.2517 53.1C92.2517 54.348 92.4557 55.56 92.8637 56.736C93.3917 57.984 94.2197 59.052 95.3477 59.94C96.4997 60.828 97.7477 61.38 99.0917 61.596C100.436 61.788 101.768 61.584 103.088 60.984C103.76 60.672 104.252 60.348 104.564 60.012C104.708 59.868 104.924 59.604 105.212 59.22C105.5 58.836 105.74 58.548 105.932 58.356C106.076 58.236 106.232 58.176 106.4 58.176C106.568 58.176 106.712 58.248 106.832 58.392C106.88 58.488 106.904 58.644 106.904 58.86C106.856 59.94 106.58 61.008 106.076 62.064C105.572 63.096 104.912 63.996 104.096 64.764C103.688 65.148 103.208 65.508 102.656 65.844C100.304 67.212 97.7597 67.62 95.0237 67.068C94.4237 66.972 93.8477 66.816 93.2957 66.6C91.2797 65.856 89.5877 64.596 88.2197 62.82C86.8517 61.02 85.9517 59.016 85.5197 56.808C85.0637 54.552 85.1237 52.368 85.6997 50.256C86.0117 49.056 86.6237 47.892 87.5357 46.764C88.4717 45.612 89.4917 44.664 90.5957 43.92ZM124.188 49.752C124.476 51.912 123.912 53.4 122.496 54.216C121.056 55.056 119.952 54.816 119.184 53.496C119.136 53.4 119.064 53.304 118.968 53.208C118.344 52.368 117.684 52.068 116.988 52.308C116.844 52.356 116.712 52.416 116.592 52.488C116.472 52.536 116.364 52.62 116.268 52.74C116.196 52.836 116.124 52.932 116.052 53.028C116.004 53.1 115.956 53.22 115.908 53.388C115.884 53.532 115.86 53.64 115.836 53.712C115.812 53.784 115.788 53.916 115.764 54.108C115.764 54.3 115.764 54.432 115.764 54.504C115.764 54.576 115.764 54.72 115.764 54.936C115.764 55.128 115.764 55.248 115.764 55.296C115.74 57.6 115.74 59.232 115.764 60.192C115.764 60.336 115.752 60.828 115.728 61.668C115.728 62.508 115.728 63.096 115.728 63.432C115.752 63.744 115.8 64.2 115.872 64.8C115.944 65.4 116.064 65.928 116.232 66.384C116.424 66.912 116.412 67.248 116.196 67.392C116.052 67.464 115.836 67.5 115.548 67.5C114.156 67.524 113.112 67.536 112.416 67.536C110.52 67.536 109.572 67.536 109.572 67.536C109.14 67.488 108.984 67.26 109.104 66.852C109.272 66.348 109.404 65.832 109.5 65.304C109.62 64.776 109.692 64.212 109.716 63.612C109.764 62.988 109.788 62.472 109.788 62.064C109.812 61.656 109.812 61.08 109.788 60.336C109.788 59.592 109.788 59.064 109.788 58.752C109.812 57.288 109.8 56.304 109.752 55.8C109.656 54.504 109.512 53.544 109.32 52.92C109.056 52.056 109.26 51.324 109.932 50.724C111.084 49.74 112.272 48.78 113.496 47.844C113.856 47.58 114.3 47.4 114.828 47.304C115.164 47.232 115.416 47.28 115.584 47.448C115.776 47.616 115.872 47.88 115.872 48.24C115.872 48.336 115.872 48.936 115.872 50.04C117.264 49.032 118.008 48.492 118.104 48.42C119.256 47.724 120.312 47.364 121.272 47.34C121.968 47.34 122.604 47.568 123.18 48.024C123.756 48.456 124.092 49.032 124.188 49.752ZM133.662 46.476C133.278 46.332 133.062 46.104 133.014 45.792C132.966 45.48 133.05 45.132 133.266 44.748C133.506 44.364 133.746 44.016 133.986 43.704C134.25 43.368 134.538 43.032 134.85 42.696C135.162 42.36 135.342 42.156 135.39 42.084C135.654 41.7 135.858 41.46 136.002 41.364C136.242 41.172 136.494 41.088 136.758 41.112C136.806 41.112 136.866 41.124 136.938 41.148C137.322 41.268 137.514 41.592 137.514 42.12C137.49 42.408 137.358 42.78 137.118 43.236C136.662 44.052 136.122 44.832 135.498 45.576C134.802 46.392 134.19 46.692 133.662 46.476ZM142.374 60.588C142.47 60.636 142.542 60.744 142.59 60.912C142.734 61.368 142.59 62.112 142.158 63.144C141.51 64.752 140.394 65.964 138.81 66.78C137.226 67.572 135.534 67.884 133.734 67.716C133.662 67.692 133.578 67.68 133.482 67.68C131.538 67.44 129.846 66.672 128.406 65.376C127.158 64.248 126.282 62.856 125.778 61.2C125.274 59.52 125.154 57.828 125.418 56.124C125.706 54.396 126.318 52.848 127.254 51.48C128.31 49.92 129.462 48.852 130.71 48.276C132.15 47.604 133.746 47.412 135.498 47.7C137.898 48.108 139.794 49.068 141.186 50.58C142.554 52.092 142.986 54.072 142.482 56.52C142.314 57.336 141.978 58.068 141.474 58.716C140.874 59.532 140.058 60.156 139.026 60.588C138.066 60.996 137.046 61.176 135.966 61.128C134.454 61.032 133.302 60.576 132.51 59.76C132.486 59.736 132.462 59.724 132.438 59.724C132.39 59.724 132.366 59.76 132.366 59.832C132.342 60.36 132.558 60.888 133.014 61.416C133.422 61.896 133.902 62.244 134.454 62.46C135.75 63.012 137.07 63.156 138.414 62.892C139.062 62.748 139.698 62.436 140.322 61.956C140.394 61.932 140.574 61.764 140.862 61.452C141.15 61.116 141.426 60.864 141.69 60.696C141.978 60.528 142.206 60.492 142.374 60.588ZM134.886 51.804C134.31 52.26 133.806 52.92 133.374 53.784C132.966 54.624 132.75 55.416 132.726 56.16C132.726 56.904 132.93 57.384 133.338 57.6C133.746 57.792 134.25 57.66 134.85 57.204C135.45 56.748 135.954 56.1 136.362 55.26C136.794 54.396 137.01 53.592 137.01 52.848C137.034 52.104 136.83 51.636 136.398 51.444C135.99 51.228 135.486 51.348 134.886 51.804ZM162.034 65.268C162.058 65.34 162.118 65.544 162.214 65.88C162.31 66.192 162.358 66.444 162.358 66.636C162.382 66.972 162.274 67.224 162.034 67.392C161.938 67.464 161.83 67.512 161.71 67.536C161.59 67.584 161.434 67.608 161.242 67.608C161.05 67.608 160.93 67.608 160.882 67.608C159.802 67.68 157.726 67.704 154.654 67.68C152.038 67.632 150.01 67.056 148.57 65.952C145.33 63.456 144.094 60.084 144.862 55.836C145.342 53.196 146.518 51.192 148.39 49.824C149.422 49.08 150.634 48.588 152.026 48.348C152.89 48.204 153.946 48.156 155.194 48.204C155.218 48.204 155.35 48.216 155.59 48.24C155.686 48.264 155.746 48.264 155.77 48.24C155.794 48.216 155.806 48.144 155.806 48.024C155.83 47.904 155.842 47.724 155.842 47.484C155.866 46.74 155.842 45.996 155.77 45.252C155.65 43.62 155.314 42.168 154.762 40.896C154.498 40.32 154.666 39.852 155.266 39.492C155.578 39.3 156.73 38.52 158.722 37.152C158.77 37.152 159.01 36.996 159.442 36.684C159.874 36.372 160.198 36.156 160.414 36.036C161.11 35.604 161.602 35.628 161.89 36.108C162.058 36.348 162.13 36.768 162.106 37.368C162.034 38.856 161.95 40.98 161.854 43.74C161.782 46.476 161.722 48.396 161.674 49.5C161.578 51.348 161.566 54.72 161.638 59.616C161.638 59.664 161.638 59.748 161.638 59.868C161.638 59.988 161.638 60.084 161.638 60.156C161.662 61.764 161.722 62.976 161.818 63.792C161.866 64.296 161.938 64.788 162.034 65.268ZM153.178 62.964C154.234 63.78 155.122 64.008 155.842 63.648C156.562 63.288 156.898 62.448 156.85 61.128C156.826 59.808 156.43 58.392 155.662 56.88C154.918 55.344 154.018 54.168 152.962 53.352C151.93 52.536 151.054 52.308 150.334 52.668C149.638 53.004 149.302 53.844 149.326 55.188C149.35 56.508 149.734 57.924 150.478 59.436C151.246 60.948 152.146 62.124 153.178 62.964ZM172.885 66.6C172.909 66.864 172.861 67.092 172.741 67.284C172.645 67.452 172.477 67.536 172.237 67.536C171.613 67.56 170.641 67.572 169.321 67.572C168.025 67.596 167.029 67.62 166.333 67.644C166.285 67.644 166.165 67.656 165.973 67.68C165.805 67.704 165.673 67.704 165.577 67.68C165.505 67.68 165.409 67.656 165.289 67.608C165.193 67.56 165.121 67.476 165.073 67.356C164.953 67.068 165.037 66.54 165.325 65.772C165.925 64.14 166.201 61.74 166.153 58.572C166.153 57.108 166.081 55.98 165.937 55.188C165.817 54.468 165.673 53.928 165.505 53.568C165.457 53.496 165.397 53.388 165.325 53.244C165.277 53.1 165.229 52.992 165.181 52.92C165.133 52.824 165.085 52.716 165.037 52.596C165.013 52.452 165.013 52.32 165.037 52.2C165.037 51.888 165.157 51.576 165.397 51.264C165.661 50.952 165.925 50.712 166.189 50.544C166.453 50.376 166.813 50.16 167.269 49.896C167.749 49.608 168.037 49.44 168.133 49.392C168.349 49.248 168.709 48.936 169.213 48.456C169.717 47.976 170.137 47.676 170.473 47.556C170.857 47.388 171.181 47.4 171.445 47.592C171.733 47.784 171.913 48.096 171.985 48.528C172.081 49.056 172.129 49.656 172.129 50.328C172.153 50.976 172.153 51.492 172.129 51.876C172.129 52.26 172.105 52.896 172.057 53.784C172.009 54.648 171.973 55.188 171.949 55.404C171.949 55.524 171.949 55.656 171.949 55.8C171.805 57.24 171.769 58.908 171.841 60.804C171.913 62.676 172.189 64.308 172.669 65.7C172.813 66.132 172.885 66.432 172.885 66.6ZM168.529 46.224C167.017 46.2 165.997 45.72 165.469 44.784C165.013 43.92 165.037 42.984 165.541 41.976C166.117 40.872 167.005 40.284 168.205 40.212C169.429 40.116 170.401 40.584 171.121 41.616C171.673 42.384 171.745 43.332 171.337 44.46C170.881 45.612 170.005 46.2 168.709 46.224C168.637 46.224 168.577 46.224 168.529 46.224ZM185.836 64.476C185.908 64.764 185.872 65.148 185.728 65.628C185.608 66.108 185.272 66.576 184.72 67.032C184.168 67.488 183.46 67.704 182.596 67.68C182.02 67.68 181.36 67.536 180.616 67.248C179.896 66.96 179.284 66.576 178.78 66.096C178.684 66 178.6 65.904 178.528 65.808C178.408 65.688 178.3 65.568 178.204 65.448C178.108 65.304 178.012 65.172 177.916 65.052C177.844 64.908 177.772 64.764 177.7 64.62C177.628 64.476 177.556 64.332 177.484 64.188C177.412 64.044 177.352 63.888 177.304 63.72C177.256 63.552 177.208 63.384 177.16 63.216C177.136 63.024 177.1 62.82 177.052 62.604C177.028 62.388 177.004 62.172 176.98 61.956C176.956 61.716 176.944 61.464 176.944 61.2C176.92 60.96 176.908 60.696 176.908 60.408C176.884 60.12 176.872 59.82 176.872 59.508C176.872 59.196 176.872 58.848 176.872 58.464C176.872 58.128 176.872 57.756 176.872 57.348C176.872 56.964 176.872 56.544 176.872 56.088C176.872 55.776 176.872 55.32 176.872 54.72C176.872 54.168 176.872 53.652 176.872 53.172C176.872 52.596 176.884 52.044 176.908 51.516C176.908 51.204 176.908 50.904 176.908 50.616C176.908 50.52 176.908 50.364 176.908 50.148C176.908 49.932 176.884 49.8 176.836 49.752C176.788 49.68 176.692 49.644 176.548 49.644H175.324C174.892 49.644 174.604 49.452 174.46 49.068C174.316 48.66 174.352 48.288 174.568 47.952C174.76 47.616 175.204 47.292 175.9 46.98C176.62 46.644 177.064 46.248 177.232 45.792C177.304 45.576 177.34 45.216 177.34 44.712C177.364 44.208 177.424 43.836 177.52 43.596C177.736 43.188 178.216 42.828 178.96 42.516C179.008 42.492 179.224 42.396 179.608 42.228C179.992 42.036 180.304 41.904 180.544 41.832C180.784 41.736 181.072 41.652 181.408 41.58C181.768 41.484 182.056 41.472 182.272 41.544C182.512 41.616 182.68 41.772 182.776 42.012C182.848 42.18 182.884 42.36 182.884 42.552C182.908 42.744 182.908 43.008 182.884 43.344C182.884 43.656 182.884 43.824 182.884 43.848C182.884 44.352 182.884 45.216 182.884 46.44C182.884 46.656 182.884 46.86 182.884 47.052C182.884 47.076 182.884 47.112 182.884 47.16C182.884 47.184 182.884 47.22 182.884 47.268C182.884 47.316 182.884 47.352 182.884 47.376C182.884 47.496 182.896 47.58 182.92 47.628C182.944 47.676 183.052 47.7 183.244 47.7H184.504C184.936 47.7 185.236 47.868 185.404 48.204C185.572 48.516 185.572 48.84 185.404 49.176C185.236 49.488 184.936 49.644 184.504 49.644H183.244C183.052 49.644 182.932 49.668 182.884 49.716C182.86 49.764 182.848 49.908 182.848 50.148C182.848 50.316 182.848 50.472 182.848 50.616C182.848 50.952 182.848 51.264 182.848 51.552C182.848 52.248 182.836 52.98 182.812 53.748C182.812 54.276 182.8 54.924 182.776 55.692C182.776 56.532 182.776 57.108 182.776 57.42C182.752 58.02 182.74 58.524 182.74 58.932C182.74 59.436 182.74 59.868 182.74 60.228C182.764 60.636 182.788 60.996 182.812 61.308C182.812 61.644 182.836 61.944 182.884 62.208C182.908 62.472 182.956 62.712 183.028 62.928C183.076 63.12 183.136 63.3 183.208 63.468C183.304 63.612 183.4 63.732 183.496 63.828C183.592 63.924 183.7 63.996 183.82 64.044C183.964 64.092 184.12 64.116 184.288 64.116C184.456 64.116 184.648 64.104 184.864 64.08C184.96 64.008 185.116 63.996 185.332 64.044C185.572 64.068 185.74 64.212 185.836 64.476ZM203.385 49.788C205.377 51.684 206.433 54.036 206.553 56.844C206.697 59.652 205.869 62.1 204.069 64.188C202.269 66.252 200.025 67.344 197.337 67.464C194.673 67.584 192.345 66.696 190.353 64.8C188.385 62.904 187.329 60.552 187.185 57.744C187.065 54.936 187.893 52.5 189.669 50.436C191.469 48.348 193.701 47.244 196.365 47.124C199.053 47.004 201.393 47.892 203.385 49.788ZM196.401 62.352C197.505 61.344 198.489 59.976 199.353 58.248C200.217 56.496 200.721 54.888 200.865 53.424C201.033 51.936 200.781 51.024 200.109 50.688C199.461 50.352 198.585 50.688 197.481 51.696C196.401 52.704 195.417 54.084 194.529 55.836C193.665 57.588 193.161 59.208 193.017 60.696C192.873 62.16 193.125 63.06 193.773 63.396C194.445 63.708 195.321 63.36 196.401 62.352ZM223.494 59.436C223.998 60.948 223.866 62.484 223.098 64.044C222.33 65.604 221.226 66.636 219.786 67.14C218.634 67.476 217.458 67.632 216.258 67.608C215.058 67.608 213.858 67.344 212.658 66.816C211.482 66.288 210.51 65.556 209.742 64.62H209.778C209.058 63.684 208.734 62.712 208.806 61.704C208.806 61.68 208.806 61.656 208.806 61.632C208.854 61.176 208.986 60.792 209.202 60.48C209.658 59.712 210.282 59.244 211.074 59.076C211.89 58.884 212.694 59.136 213.486 59.832C213.894 60.216 214.146 60.66 214.242 61.164C214.338 61.668 214.314 62.16 214.17 62.64C214.05 63.12 213.834 63.576 213.522 64.008C213.594 64.152 213.666 64.284 213.738 64.404C214.074 64.836 214.578 65.148 215.25 65.34C215.946 65.508 216.546 65.496 217.05 65.304C217.434 65.184 217.734 64.968 217.95 64.656C218.166 64.344 218.286 63.996 218.31 63.612C218.358 63.204 218.238 62.748 217.95 62.244C217.686 61.74 217.278 61.26 216.726 60.804C216.414 60.564 215.91 60.264 215.214 59.904C214.518 59.52 213.87 59.172 213.27 58.86C212.694 58.548 212.07 58.104 211.398 57.528C210.75 56.928 210.234 56.268 209.85 55.548C208.866 53.676 208.77 51.888 209.562 50.184C210.306 48.648 211.578 47.568 213.378 46.944C215.25 46.296 217.098 46.368 218.922 47.16C220.074 47.664 221.01 48.348 221.73 49.212C222.69 50.292 223.146 51.36 223.098 52.416C223.05 53.184 222.738 53.844 222.162 54.396C221.562 54.996 220.842 55.26 220.002 55.188C219.018 55.14 218.286 54.636 217.806 53.676C217.302 52.644 217.458 51.612 218.274 50.58C218.106 50.148 217.89 49.812 217.626 49.572C217.194 49.212 216.702 49.02 216.15 48.996C215.622 48.948 215.154 49.092 214.746 49.428C214.362 49.74 214.17 50.208 214.17 50.832C214.17 51.384 214.362 51.972 214.746 52.596C215.106 53.172 215.622 53.7 216.294 54.18C216.966 54.636 217.65 55.02 218.346 55.332C219.042 55.644 219.738 55.968 220.434 56.304C221.13 56.64 221.754 57.072 222.306 57.6C222.882 58.104 223.278 58.716 223.494 59.436Z" fill="#FDDFFC"/>
</g>
<g clip-path="url(#clip0_75_76)">
<path d="M258.763 58.7212C256.676 55.8122 252.351 57.0316 250.864 59.947C249.387 62.845 251.236 66.9025 254.084 68.1871C255.531 68.8422 257.107 69.1834 258.701 69.0466C260.975 68.8517 262.922 67.583 264.416 65.9129C265.741 64.442 266.772 62.6563 267.302 60.748C269.172 54.0118 262.889 48.4801 256.713 47.4911C247.169 45.9667 239.536 56.9619 242.664 65.6527C244.112 69.6837 246.82 73.2068 250.509 75.4424C254.474 77.8394 259.186 78.2215 263.72 78.256C269.005 78.2953 274.687 77.6847 279.567 75.5258C281.602 74.6255 283.557 73.4918 285.48 72.3782C290.368 69.5661 295.078 66.4557 299.665 63.1849C302.395 61.238 304.994 59.0541 307.928 57.4073C311.514 55.3914 316.029 53.6113 320.148 54.9574C325.351 56.6568 328.296 62.2731 327.934 67.5371C327.684 71.1831 325.943 74.422 323.105 76.6394C321.113 78.1916 318.276 79.2405 315.723 78.8395C313.521 78.4929 311.147 77.2216 309.584 75.6679C307.913 73.9996 306.907 71.5468 307.086 69.1811C307.181 67.9382 307.626 66.7676 308.369 65.7643C308.683 65.3373 309.055 64.9275 309.454 64.5866C309.592 64.4659 309.337 64.664 309.464 64.5783C309.566 64.5134 309.673 64.4533 309.771 64.3926C311.275 63.529 313.115 62.8578 314.868 63.2285C317.027 63.6886 319.084 66.1614 319.039 68.3927C319.001 70.2483 317.581 71.6189 315.967 72.3185C315.34 72.5906 314.838 74.2903 315.852 73.8556C317.779 73.0244 319.395 71.3981 320.092 69.4023C320.834 67.2573 320.203 65.0889 318.672 63.4568C317.012 61.6862 314.996 61.0833 312.64 61.7116C311.432 62.0305 310.076 62.5635 309.105 63.3726C305.106 66.6821 304.594 72.7243 307.953 76.6439C309.628 78.5945 312.055 79.8022 314.516 80.4345C316.709 80.9998 319.399 80.2726 321.356 79.2464C329.228 75.122 332.102 63.6342 326.083 56.7543C324.451 54.8916 322.24 53.4609 319.781 53.0034C317.657 52.6127 315.438 52.9277 313.386 53.5492C309.969 54.5866 306.772 56.4132 303.929 58.5586C296.771 63.9569 289.307 69.0932 281.312 73.1915C278.442 74.6636 275.355 75.5124 272.169 76.0189C267.142 76.8204 261.833 76.8601 256.818 75.9118C251.804 74.9635 247.452 71.444 245.06 66.9299C244.793 66.4243 244.546 65.902 244.339 65.369C244.286 65.2312 244.331 65.3595 244.342 65.3916C244.235 65.1248 244.123 64.8533 244.02 64.5823C243.764 63.9073 243.578 63.2055 243.451 62.4942C243.03 60.1248 243.431 57.7155 244.478 55.5637C246.334 51.7458 250.006 48.8983 254.373 49.0204C256.777 49.0893 259.286 49.8725 261.283 51.2309C264.467 53.3883 267.081 56.8515 266.044 60.8666C265.737 62.0598 265.249 63.0082 264.614 63.9424C264.495 64.1137 264.377 64.276 264.254 64.4425C264.082 64.6685 264.37 64.3069 264.205 64.502C264.157 64.5615 264.113 64.6168 264.064 64.6763C263.846 64.9261 263.628 65.1759 263.393 65.4067C260.938 67.8597 257.174 67.9072 254.297 66.1774C253.036 65.4182 252.224 63.8111 251.9 62.4241C251.687 61.519 251.589 60.429 252.341 59.7532C253.093 59.0775 254.112 58.5625 255.161 58.6854C256.085 58.791 257.03 59.3995 257.518 60.0809C258.005 60.7623 259.182 59.2861 258.772 58.7218L258.763 58.7212Z" fill="#03023E"/>
</g>
<g clip-path="url(#clip1_75_76)">
<path d="M55.3966 14.2393C56.5803 11.9193 54.3518 9.53161 51.9735 9.54454C49.6097 9.55823 47.6051 12.1085 47.7241 14.3778C47.7833 15.532 48.088 16.6643 48.7074 17.6487C49.5909 19.0531 51.0588 19.8872 52.6352 20.2948C54.0264 20.6591 55.5234 20.7293 56.9322 20.4339C61.9059 19.392 63.3855 13.4843 61.9667 9.16302C59.7718 2.48686 50.1277 1.22774 45.5566 6.15172C43.4354 8.43392 42.0623 11.3609 41.8475 14.4916C41.6203 17.8545 42.9432 21.0269 44.4312 23.9679C46.1666 27.3963 48.454 30.864 51.4742 33.2964C52.7333 34.3101 54.117 35.1951 55.4769 36.0657C58.9214 38.2846 62.4995 40.2894 66.14 42.1607C68.307 43.2746 70.5832 44.2241 72.6244 45.5701C75.1209 47.2137 77.7747 49.5365 78.2778 52.6483C78.9133 56.5776 76.2674 60.3573 72.7469 61.8818C70.3087 62.9379 67.6367 62.8946 65.2592 61.8015C63.5929 61.0327 61.9705 59.5501 61.3792 57.7667C60.8693 56.2278 60.8995 54.2691 61.3823 52.7403C61.9029 51.1029 63.1519 49.6333 64.7395 48.9588C65.5741 48.6055 66.4783 48.5018 67.3737 48.6464C67.7543 48.7073 68.1429 48.8107 68.4959 48.9544C68.6198 49.0032 68.4069 48.9046 68.5044 48.9578C68.5806 49.0026 68.655 49.0516 68.7269 49.0947C69.7855 49.7777 70.832 50.7424 71.1766 51.999C71.5987 53.5479 70.6869 55.7032 69.2309 56.4196C68.0198 57.015 66.6614 56.5549 65.672 55.746C65.2874 55.4317 64.0224 55.675 64.6409 56.185C65.8196 57.1523 67.4085 57.6537 68.9295 57.437C70.5621 57.1999 71.7523 56.0678 72.2965 54.5335C72.8869 52.8692 72.6049 51.3656 71.4141 50.0527C70.8058 49.3789 70.0098 48.6806 69.1636 48.3231C65.6941 46.8451 61.6211 48.5325 60.2084 52.0119C59.5066 53.746 59.5353 55.718 59.9469 57.5195C60.3121 59.1251 61.6779 60.6203 62.9928 61.5424C68.279 65.2511 76.656 63.2709 79.0943 57.0834C79.7537 55.4067 79.9411 53.5 79.4173 51.758C78.9622 50.2554 78.0195 48.9266 76.9346 47.8085C75.1259 45.9464 72.8811 44.4907 70.5486 43.3709C64.6772 40.5482 58.8733 37.4409 53.5628 33.6436C51.6562 32.2814 50.0794 30.5699 48.691 28.6805C46.4984 25.6995 44.7043 22.2825 43.6461 18.7253C42.588 15.1681 43.4112 11.1803 45.5298 8.12661C45.7676 7.78551 46.0225 7.45112 46.2979 7.13965C46.3691 7.05899 46.3013 7.13109 46.2843 7.14912C46.4207 6.9904 46.5588 6.82741 46.6995 6.67037C47.0505 6.27993 47.4416 5.92507 47.8586 5.60505C49.2488 4.54171 50.9385 3.99624 52.6771 3.95397C55.7611 3.87781 58.8235 5.29947 60.1994 8.16178C60.9559 9.73844 61.286 11.6215 61.0738 13.3654C60.7411 16.1435 59.3752 18.9894 56.4368 19.6612C55.5638 19.8612 54.7887 19.8625 53.9737 19.7643C53.8235 19.7447 53.6793 19.7226 53.5308 19.6987C53.3276 19.6633 53.6572 19.7287 53.4761 19.6871C53.4215 19.6755 53.3711 19.6656 53.3165 19.654C53.0825 19.5965 52.8485 19.5391 52.6213 19.4645C50.2191 18.6976 48.9344 16.2811 49.0933 13.8445C49.1634 12.7757 49.931 11.7145 50.7187 11.0414C51.2322 10.6013 51.9036 10.1739 52.5906 10.4342C53.2777 10.6945 53.9498 11.1811 54.2198 11.8997C54.4594 12.5323 54.3812 13.346 54.1036 13.8888C53.826 14.4315 55.1714 14.6989 55.3992 14.2452L55.3966 14.2393Z" fill="#03023E"/>
</g>
<defs>
<filter id="filter0_d_75_76" x="3.05176e-05" y="24" width="309" height="82" filterUnits="userSpaceOnUse" color-interpolation-filters="sRGB">
<feFlood flood-opacity="0" result="BackgroundImageFix"/>
<feColorMatrix in="SourceAlpha" type="matrix" values="0 0 0 0 0 0 0 0 0 0 0 0 0 0 0 0 0 0 127 0" result="hardAlpha"/>
<feOffset dy="4"/>
<feGaussianBlur stdDeviation="2"/>
<feComposite in2="hardAlpha" operator="out"/>
<feColorMatrix type="matrix" values="0 0 0 0 0 0 0 0 0 0 0 0 0 0 0 0 0 0 0.25 0"/>
<feBlend mode="normal" in2="BackgroundImageFix" result="effect1_dropShadow_75_76"/>
<feBlend mode="normal" in="SourceGraphic" in2="effect1_dropShadow_75_76" result="shape"/>
</filter>
<clipPath id="clip0_75_76">
<rect width="70" height="71" fill="white" transform="translate(236 60.1271) rotate(-41.2206)"/>
</clipPath>
<clipPath id="clip1_75_76">
<rect width="50.8613" height="51.656" fill="white" transform="translate(46.9054) rotate(21.4683)"/>
</clipPath>
</defs>
</svg>
