<svg width="270" height="94" viewBox="0 0 270 94" fill="none" xmlns="http://www.w3.org/2000/svg">
<g filter="url(#filter0_d_70_66)">
<g clip-path="url(#clip0_70_66)">
<path d="M248.36 14.0388C250.754 13.6823 251.362 10.7229 250.073 8.94117C248.791 7.17074 245.781 7.03378 244.127 8.3429C243.284 9.00777 242.591 9.84544 242.179 10.8403C241.591 12.2596 241.749 13.8118 242.289 15.2165C242.762 16.4586 243.514 17.6222 244.496 18.523C247.961 21.7037 253.231 19.6415 255.739 16.2519C259.613 11.0131 255.377 3.0832 249.189 2.29163C246.319 1.9229 243.364 2.46329 240.878 3.9843C238.21 5.62079 236.519 8.32077 235.093 11.0205C233.431 14.1683 232.036 17.7523 231.82 21.3309C231.73 22.8228 231.804 24.3391 231.877 25.8297C232.05 29.6129 232.457 33.3814 233 37.125C233.322 39.3535 233.828 41.5757 233.907 43.8343C234.006 46.5952 233.675 49.8394 231.59 51.8902C228.957 54.48 224.671 54.5214 221.622 52.693C219.511 51.4269 218.105 49.394 217.654 47.0185C217.339 45.3521 217.589 43.3351 218.621 41.9319C219.512 40.7213 221.011 39.6913 222.429 39.2328C223.949 38.7443 225.733 38.8939 227.098 39.7253C227.815 40.1631 228.38 40.7875 228.752 41.5386C228.911 41.8576 229.042 42.2054 229.123 42.5481C229.153 42.6675 229.113 42.4545 229.125 42.5564C229.132 42.6377 229.135 42.7201 229.141 42.7973C229.194 43.9605 229.026 45.2661 228.26 46.2006C227.315 47.3504 225.192 47.8231 223.866 47.113C222.764 46.5222 222.381 45.2533 222.461 44.0744C222.492 43.6163 221.627 42.7956 221.574 43.5348C221.476 44.9412 221.951 46.4057 222.934 47.4331C223.992 48.5336 225.489 48.8203 226.944 48.405C228.522 47.9546 229.509 46.9344 229.862 45.3332C230.045 44.5135 230.145 43.5395 229.96 42.711C229.213 39.3073 225.743 37.1509 222.348 37.9584C220.658 38.3626 219.18 39.4441 218.037 40.7218C217.018 41.8594 216.621 43.6902 216.63 45.1747C216.667 51.1436 222.674 56.3796 228.671 54.8879C230.296 54.4827 231.84 53.5989 232.877 52.2688C233.77 51.119 234.269 49.6957 234.532 48.2789C234.968 45.9179 234.863 43.4472 234.455 41.0912C233.433 35.1583 232.663 29.1232 232.681 23.0884C232.686 20.9224 233.134 18.8167 233.817 16.757C234.894 13.5058 236.516 10.32 238.64 7.61239C240.764 4.90476 244.227 3.38071 247.679 3.33294C248.065 3.32843 248.456 3.34039 248.84 3.38015C248.939 3.39034 248.848 3.37808 248.825 3.37501C249.019 3.39232 249.217 3.40859 249.411 3.43001C249.896 3.48408 250.375 3.58757 250.842 3.72917C252.395 4.20321 253.717 5.1809 254.685 6.46574C256.402 8.74429 256.973 11.8116 255.546 14.3846C254.76 15.801 253.511 17.0613 252.077 17.839C249.794 19.0818 246.904 19.584 244.814 17.7352C244.193 17.1861 243.775 16.6038 243.411 15.9381C243.345 15.8146 243.284 15.6942 243.222 15.5697C243.14 15.3979 243.268 15.6809 243.202 15.5224C243.181 15.4751 243.161 15.4318 243.141 15.3845C243.058 15.1777 242.976 14.9708 242.91 14.7598C242.198 12.541 243.337 10.276 245.267 9.08606C246.114 8.56428 247.331 8.57128 248.264 8.80196C248.874 8.95165 249.559 9.22685 249.731 9.88349C249.904 10.5401 249.897 11.3071 249.498 11.8964C249.148 12.4166 248.49 12.7951 247.93 12.878C247.369 12.9609 247.891 14.1165 248.357 14.044L248.36 14.0388Z" fill="#FDDFFC"/>
</g>
<g clip-path="url(#clip1_70_66)">
<path d="M70.0144 41.919C69.2615 42.5207 68.628 43.3863 68.3219 44.298C67.9032 45.5431 68.2706 46.9327 69.2005 47.8555C69.9756 48.6227 70.9428 49.248 72.0003 49.5362C73.6981 49.9976 75.3196 49.3264 76.55 48.1399C76.7049 47.9896 76.9045 47.809 77.0893 47.5958C77.3777 47.2649 77.6202 46.8932 77.8093 46.4973C78.4619 45.1319 78.4364 43.5653 78.0536 42.1294C77.5487 40.2395 76.561 38.3361 75.0058 37.1027C73.4505 35.8693 71.3766 35.3608 69.3632 35.3514C68.3132 35.3462 67.2535 35.7169 66.3088 36.1426C63.5238 37.3963 61.1642 39.5252 59.1292 41.7619C57.4159 43.6446 55.8903 45.6939 54.4901 47.8175C53.6498 49.0922 52.7839 50.3832 52.1133 51.7581C51.0397 53.9582 49.8536 56.1039 48.6023 58.2069C46.4729 61.7866 44.1291 65.2525 41.4675 68.4604C38.7051 71.7902 35.5347 74.9753 31.7209 77.0898C30.9647 77.5097 30.1832 77.9277 29.3474 78.1623C28.6946 78.3447 28.0306 78.4843 27.3627 78.5924C25.0085 78.9731 22.5668 78.9638 20.2397 78.4221C17.074 77.685 14.2904 75.8941 12.2998 73.3281C10.963 71.6064 9.99878 69.6202 9.3034 67.5593C9.04563 66.7936 8.85555 66.0588 8.80127 65.2479C8.55587 61.4046 10.7085 57.6343 13.7389 55.3735C16.7694 53.1126 21.1469 52.3532 24.5756 54.3722C26.7951 55.6778 28.6479 57.9194 29.0362 60.515C29.2787 62.1398 28.9098 63.7788 28.0059 65.1518C27.354 66.1431 26.5228 67.0503 25.4269 67.5279C24.331 68.0055 23.1825 68.2427 22.0266 68.0769C20.2541 67.8227 18.9411 66.5515 18.1085 65.0314C17.2759 63.5112 17.1908 61.7466 18.3128 60.3891C18.8889 59.6917 19.7457 59.2819 20.6523 59.2882C21.2215 59.2927 21.776 59.4504 22.2867 59.6939C22.6107 59.848 22.9853 60.022 23.2289 60.2891C24.0285 61.1707 24.9163 62.9735 23.8054 63.9383C23.6567 64.0667 23.557 64.3638 23.8209 64.1363C24.4469 63.5931 24.7883 62.8569 24.6449 62.0286C24.5284 61.353 24.1771 60.7206 23.7746 60.1746C23.3458 59.5934 22.6531 59.2715 21.9705 59.0632C21.0664 58.7896 20.1131 58.8769 19.2946 59.3564C17.6884 60.2977 16.8208 62.2452 17.2253 64.059C17.3603 64.6628 17.6373 65.2065 17.9559 65.7338C18.446 66.544 19.0783 67.2818 19.8847 67.7893C21.6938 68.9276 24.2441 68.6382 25.9999 67.488C26.7127 67.0217 27.3482 66.2947 27.8665 65.626C28.4278 64.9021 28.8838 64.0911 29.1633 63.2163C29.5953 61.8629 29.5617 60.4033 29.1376 59.0537C28.935 58.4128 28.657 57.7918 28.2777 57.2351C27.0437 55.4261 25.3398 53.9333 23.2389 53.234C19.5872 52.018 15.558 53.3957 12.8117 55.9339C10.0993 58.4406 8.11417 62.0426 8.46606 65.8204C8.55377 66.766 8.84257 67.6279 9.16916 68.5179C9.90172 70.5112 10.8986 72.4227 12.2555 74.0657C14.3093 76.5516 17.1332 78.223 20.288 78.883C22.6095 79.3684 25.0305 79.3389 27.361 78.9272C27.9877 78.8173 28.6118 78.681 29.2233 78.5029C30.2022 78.2194 31.1312 77.6838 32.0048 77.1714C35.7787 74.9624 38.932 71.7662 41.7013 68.422C44.3833 65.1831 46.748 61.684 48.8955 58.0729C50.1609 55.9448 51.3641 53.7723 52.4486 51.5453C53.163 50.0786 54.1002 48.7045 55.0061 47.3502C56.44 45.2071 58.0113 43.1448 59.7904 41.2743C61.7515 39.2144 64.054 37.2477 66.7494 36.2346C68.0376 35.7509 69.1973 35.6545 70.5597 35.8272C72.7239 36.1026 74.7303 37.1196 76.0288 38.8977C77.2055 40.5092 78.0484 42.6763 77.9641 44.6944C77.921 45.721 77.5701 46.849 76.9037 47.5776C76.8292 47.6589 76.86 47.6254 76.7628 47.7151C76.8844 47.6039 76.5939 47.8842 76.6049 47.8732C76.4001 48.0771 76.1825 48.2672 75.9508 48.4382C75.2141 48.9836 74.334 49.3123 73.4129 49.3053C72.1034 49.2949 70.8798 48.6504 69.9057 47.8156C68.9864 47.0261 68.3508 45.8826 68.5269 44.6336C68.6212 43.9622 68.9314 43.3377 69.3485 42.8092C69.4764 42.6481 69.6135 42.4951 69.7607 42.3518C69.812 42.3032 69.8627 42.257 69.9149 42.21C69.9637 42.167 69.8825 42.2345 69.9345 42.1935C70.0329 42.1151 70.2614 41.7183 70.0112 41.917L70.0144 41.919Z" fill="#FDDFFC"/>
</g>
<rect x="19" y="8" width="230" height="56" rx="28" fill="#FDDFFC"/>
<path d="M56.4752 24.28C57.7552 23.432 59.1952 23.016 60.7952 23.032C62.1712 23.048 63.4192 23.464 64.5392 24.28C65.6592 25.096 66.3312 26.16 66.5552 27.472C66.7312 28.464 66.6512 29.392 66.3152 30.256C65.9792 31.12 65.3792 31.736 64.5152 32.104C64.2272 32.232 63.8672 32.304 63.4352 32.32C63.0192 32.336 62.6112 32.256 62.2112 32.08C61.8112 31.888 61.5232 31.624 61.3472 31.288C60.9792 30.632 61.1632 29.68 61.8992 28.432C61.9152 28.4 61.9712 28.312 62.0672 28.168C62.1632 28.008 62.2272 27.896 62.2592 27.832C62.3072 27.752 62.3632 27.64 62.4272 27.496C62.5072 27.336 62.5552 27.208 62.5712 27.112C62.6032 27.016 62.6272 26.904 62.6432 26.776C62.6592 26.648 62.6432 26.536 62.5952 26.44C62.5632 26.328 62.5152 26.216 62.4512 26.104C62.2112 25.8 61.8672 25.624 61.4192 25.576C60.8112 25.496 60.2352 25.648 59.6912 26.032C59.0352 26.496 58.5152 27.136 58.1312 27.952C57.7632 28.752 57.5792 29.568 57.5792 30.4C57.5792 31.232 57.7152 32.04 57.9872 32.824C58.3392 33.656 58.8912 34.368 59.6432 34.96C60.4112 35.552 61.2432 35.92 62.1392 36.064C63.0352 36.192 63.9232 36.056 64.8032 35.656C65.2512 35.448 65.5792 35.232 65.7872 35.008C65.8832 34.912 66.0272 34.736 66.2192 34.48C66.4112 34.224 66.5712 34.032 66.6992 33.904C66.7952 33.824 66.8992 33.784 67.0112 33.784C67.1232 33.784 67.2192 33.832 67.2992 33.928C67.3312 33.992 67.3472 34.096 67.3472 34.24C67.3152 34.96 67.1312 35.672 66.7952 36.376C66.4592 37.064 66.0192 37.664 65.4752 38.176C65.2032 38.432 64.8832 38.672 64.5152 38.896C62.9472 39.808 61.2512 40.08 59.4272 39.712C59.0272 39.648 58.6432 39.544 58.2752 39.4C56.9312 38.904 55.8032 38.064 54.8912 36.88C53.9792 35.68 53.3792 34.344 53.0912 32.872C52.7872 31.368 52.8272 29.912 53.2112 28.504C53.4192 27.704 53.8272 26.928 54.4352 26.176C55.0592 25.408 55.7392 24.776 56.4752 24.28ZM79.7305 28.192C81.0585 29.456 81.7625 31.024 81.8425 32.896C81.9385 34.768 81.3865 36.4 80.1865 37.792C78.9865 39.168 77.4905 39.896 75.6985 39.976C73.9225 40.056 72.3705 39.464 71.0425 38.2C69.7305 36.936 69.0265 35.368 68.9305 33.496C68.8505 31.624 69.4025 30 70.5865 28.624C71.7865 27.232 73.2745 26.496 75.0505 26.416C76.8425 26.336 78.4025 26.928 79.7305 28.192ZM75.0745 36.568C75.8105 35.896 76.4665 34.984 77.0425 33.832C77.6185 32.664 77.9545 31.592 78.0505 30.616C78.1625 29.624 77.9945 29.016 77.5465 28.792C77.1145 28.568 76.5305 28.792 75.7945 29.464C75.0745 30.136 74.4185 31.056 73.8265 32.224C73.2505 33.392 72.9145 34.472 72.8185 35.464C72.7225 36.44 72.8905 37.04 73.3225 37.264C73.7705 37.472 74.3545 37.24 75.0745 36.568ZM100.773 41.464C101.109 41.784 101.285 42.16 101.301 42.592C101.333 43.04 101.245 43.456 101.037 43.84C100.845 44.224 100.581 44.568 100.245 44.872C99.365 45.64 98.253 45.968 96.909 45.856C95.581 45.76 94.517 45.28 93.717 44.416C92.869 43.488 92.357 42.232 92.181 40.648C91.989 38.952 91.885 37.248 91.869 35.536C91.869 35.184 91.869 34.848 91.869 34.528C91.869 34.192 91.861 33.848 91.845 33.496C91.845 33.128 91.829 32.784 91.797 32.464C91.781 32.144 91.741 31.808 91.677 31.456C91.613 31.104 91.533 30.768 91.437 30.448C91.309 30.064 91.085 29.72 90.765 29.416C90.461 29.096 90.117 28.912 89.733 28.864C89.365 28.8 89.005 28.952 88.653 29.32C88.205 29.784 87.869 30.44 87.645 31.288C87.213 32.968 87.101 34.736 87.309 36.592C87.389 37.392 87.565 38.264 87.837 39.208C87.965 39.656 87.949 39.92 87.789 40C87.725 40.032 87.629 40.056 87.501 40.072C86.109 40.088 84.837 40.072 83.685 40.024C83.381 40.008 83.205 39.92 83.157 39.76C83.141 39.68 83.141 39.6 83.157 39.52C83.189 39.44 83.221 39.344 83.253 39.232C83.301 39.104 83.333 39.024 83.349 38.992C83.445 38.672 83.525 38.336 83.589 37.984C83.717 37.36 83.805 36.688 83.853 35.968C84.029 33.664 83.965 31.816 83.661 30.424C83.565 30.168 83.517 29.88 83.517 29.56C83.533 29.24 83.637 28.968 83.829 28.744C83.973 28.568 84.221 28.36 84.573 28.12C85.501 27.48 85.973 27.16 85.989 27.16C86.021 27.128 86.101 27.064 86.229 26.968C86.373 26.856 86.477 26.776 86.541 26.728C86.621 26.68 86.717 26.64 86.829 26.608C86.957 26.56 87.077 26.552 87.189 26.584C87.317 26.616 87.405 26.672 87.453 26.752C87.501 26.832 87.549 26.96 87.597 27.136C87.613 27.168 87.621 27.192 87.621 27.208C87.637 27.208 87.645 27.208 87.645 27.208C87.677 27.24 87.765 27.216 87.909 27.136C88.741 26.736 89.645 26.608 90.621 26.752C91.501 26.864 92.325 27.208 93.093 27.784C93.253 27.896 93.405 28.016 93.549 28.144C94.669 29.152 95.269 30.488 95.349 32.152C95.381 32.664 95.389 33.392 95.373 34.336C95.373 35.28 95.373 36.016 95.373 36.544C95.437 38.272 95.517 39.504 95.613 40.24C95.789 41.696 96.117 42.696 96.597 43.24C97.013 43.704 97.621 44.032 98.421 44.224C97.765 43.728 97.525 43.12 97.701 42.4C97.877 41.696 98.277 41.24 98.901 41.032C99.525 40.824 100.149 40.968 100.773 41.464ZM110.233 39.28C110.249 39.44 110.217 39.584 110.137 39.712C110.073 39.824 109.961 39.888 109.801 39.904C109.385 39.904 108.737 39.912 107.857 39.928C106.993 39.944 106.337 39.96 105.889 39.976C105.841 39.976 105.753 39.984 105.625 40C105.513 40 105.425 40 105.361 40C105.313 40 105.249 39.984 105.169 39.952C105.105 39.904 105.057 39.84 105.025 39.76C104.945 39.568 105.001 39.224 105.193 38.728C105.593 37.64 105.777 36.032 105.745 33.904C105.745 32.928 105.697 32.176 105.601 31.648C105.521 31.184 105.425 30.824 105.313 30.568C105.297 30.52 105.265 30.456 105.217 30.376C105.169 30.28 105.129 30.208 105.097 30.16C105.065 30.096 105.033 30.024 105.001 29.944C104.985 29.848 104.985 29.76 105.001 29.68C105.001 29.472 105.089 29.264 105.265 29.056C105.441 28.848 105.609 28.688 105.769 28.576C105.945 28.448 106.185 28.296 106.489 28.12C106.809 27.944 107.001 27.832 107.065 27.784C107.209 27.704 107.449 27.504 107.785 27.184C108.121 26.864 108.401 26.656 108.625 26.56C108.881 26.448 109.097 26.464 109.273 26.608C109.465 26.736 109.585 26.944 109.633 27.232C109.697 27.584 109.729 27.984 109.729 28.432C109.745 28.864 109.745 29.208 109.729 29.464C109.729 29.704 109.713 30.12 109.681 30.712C109.649 31.288 109.625 31.648 109.609 31.792C109.609 31.888 109.609 31.976 109.609 32.056C109.513 33.016 109.489 34.128 109.537 35.392C109.585 36.656 109.769 37.744 110.089 38.656C110.185 38.944 110.233 39.152 110.233 39.28ZM107.593 24.856C107.289 25.496 106.841 25.984 106.249 26.32C105.673 26.656 105.081 26.664 104.473 26.344C104.009 26.088 103.713 25.712 103.585 25.216C103.457 24.72 103.545 24.24 103.849 23.776C104.057 23.44 104.305 23.216 104.593 23.104C104.881 22.976 105.161 22.928 105.433 22.96C105.705 22.992 106.033 23.072 106.417 23.2C106.449 23.008 106.385 22.784 106.225 22.528C106.081 22.272 105.913 22.072 105.721 21.928C105.481 21.736 105.193 21.624 104.857 21.592C104.201 21.528 103.681 21.688 103.297 22.072C102.913 22.456 102.705 22.976 102.673 23.632C102.609 25.056 102.593 25.936 102.625 26.272C102.641 26.304 102.649 26.328 102.649 26.344C102.681 26.392 102.745 26.424 102.841 26.44C102.937 26.456 103.041 26.464 103.153 26.464C103.281 26.448 103.369 26.44 103.417 26.44C103.721 26.472 103.889 26.656 103.921 26.992C103.937 27.248 103.865 27.424 103.705 27.52C103.561 27.6 103.217 27.664 102.673 27.712C102.625 27.856 102.601 27.936 102.601 27.952C102.617 28.4 102.625 29.208 102.625 30.376C102.625 31.544 102.633 32.448 102.649 33.088C102.649 33.36 102.657 33.776 102.673 34.336C102.689 34.88 102.705 35.288 102.721 35.56C102.721 36.312 102.777 36.944 102.889 37.456C102.953 37.792 103.033 38.104 103.129 38.392C103.145 38.424 103.201 38.552 103.297 38.776C103.409 38.984 103.473 39.144 103.489 39.256C103.505 39.448 103.449 39.6 103.321 39.712C103.209 39.824 103.057 39.88 102.865 39.88C100.641 39.896 99.2886 39.896 98.8086 39.88C98.4886 39.88 98.2646 39.816 98.1366 39.688C98.0726 39.608 98.0326 39.52 98.0166 39.424C98.0006 39.312 98.0006 39.224 98.0166 39.16C98.0486 39.08 98.0886 38.984 98.1366 38.872C98.2006 38.76 98.2406 38.672 98.2566 38.608C98.3846 38.16 98.4726 37.648 98.5206 37.072C98.5366 36.688 98.5446 36.184 98.5446 35.56C98.5446 34.92 98.5446 34.408 98.5446 34.024C98.5606 33.064 98.5686 32.392 98.5686 32.008C98.5686 31.608 98.5526 30.928 98.5206 29.968C98.4886 29.008 98.4726 28.336 98.4726 27.952C98.4726 27.952 98.4566 27.88 98.4246 27.736C98.3766 27.736 98.2646 27.744 98.0886 27.76C97.9286 27.776 97.7926 27.784 97.6806 27.784C97.5846 27.784 97.4726 27.768 97.3446 27.736C97.2326 27.688 97.1446 27.616 97.0806 27.52C97.0326 27.408 97.0086 27.264 97.0086 27.088C97.0246 26.672 97.3606 26.464 98.0166 26.464C98.1926 26.464 98.3206 26.432 98.4006 26.368C98.4806 26.304 98.5206 26.176 98.5206 25.984C98.5526 25.232 98.5846 24.656 98.6166 24.256C98.6646 23.856 98.7446 23.344 98.8566 22.72C98.9686 22.096 99.1526 21.552 99.4086 21.088C99.6646 20.608 99.9926 20.176 100.393 19.792C100.953 19.248 101.705 18.88 102.649 18.688C103.593 18.496 104.465 18.544 105.265 18.832C105.697 18.976 106.057 19.176 106.345 19.432C107.081 20.088 107.577 20.936 107.833 21.976C108.089 23 108.009 23.96 107.593 24.856ZM122.602 38.584C123.482 38.76 124.218 39.128 124.81 39.688C125.418 40.248 125.85 40.968 126.106 41.848C126.458 43.112 126.298 44.304 125.626 45.424C124.97 46.56 124.026 47.456 122.794 48.112C121.69 48.688 120.466 49.032 119.122 49.144C117.778 49.256 116.506 49.152 115.306 48.832C114.026 48.512 113.098 48 112.522 47.296C111.738 46.352 111.466 45.392 111.706 44.416C111.818 43.968 112.05 43.592 112.402 43.288C112.738 43.016 113.13 42.848 113.578 42.784C114.026 42.736 114.434 42.832 114.802 43.072C115.17 43.312 115.378 43.672 115.426 44.152C115.458 44.584 115.618 44.96 115.906 45.28C116.21 45.6 116.578 45.848 117.01 46.024C117.378 46.184 117.802 46.288 118.282 46.336C118.778 46.384 119.266 46.376 119.746 46.312C120.226 46.248 120.642 46.072 120.994 45.784C121.362 45.496 121.586 45.112 121.666 44.632C121.73 44.072 121.61 43.544 121.306 43.048C121.002 42.568 120.562 42.208 119.986 41.968C119.858 41.904 119.722 41.848 119.578 41.8C119.45 41.768 119.306 41.736 119.146 41.704C118.986 41.688 118.85 41.672 118.738 41.656C118.642 41.64 118.498 41.624 118.306 41.608C118.114 41.608 117.978 41.6 117.898 41.584C117.834 41.584 117.69 41.584 117.466 41.584C117.242 41.584 117.098 41.584 117.034 41.584C116.154 41.568 115.37 41.488 114.682 41.344C114.01 41.2 113.442 40.904 112.978 40.456C112.466 39.976 112.17 39.4 112.09 38.728C112.026 38.04 112.202 37.408 112.618 36.832C112.634 36.8 112.882 36.504 113.362 35.944C113.282 35.816 113.146 35.632 112.954 35.392C112.778 35.136 112.626 34.912 112.498 34.72C112.37 34.512 112.266 34.312 112.186 34.12C111.802 33.304 111.642 32.48 111.706 31.648C111.786 30.8 112.002 30.024 112.354 29.32C112.722 28.6 113.258 27.984 113.962 27.472C114.682 26.944 115.498 26.6 116.41 26.44C116.874 26.36 117.93 26.304 119.578 26.272C119.77 26.272 119.906 26.24 119.986 26.176C120.082 26.112 120.154 25.992 120.202 25.816C120.346 25.304 120.554 24.808 120.826 24.328C121.146 23.704 121.658 23.296 122.362 23.104C123.082 22.896 123.794 22.92 124.498 23.176C125.202 23.432 125.722 23.864 126.058 24.472C126.234 24.792 126.306 25.144 126.274 25.528C126.242 25.912 126.106 26.24 125.866 26.512C125.562 26.848 125.202 27.064 124.786 27.16C124.37 27.24 123.954 27.176 123.538 26.968C123.122 26.744 122.738 26.736 122.386 26.944C122.482 27.024 122.618 27.128 122.794 27.256C122.97 27.384 123.106 27.488 123.202 27.568C123.298 27.648 123.418 27.752 123.562 27.88C123.706 28.008 123.826 28.136 123.922 28.264C124.338 28.744 124.666 29.28 124.906 29.872C125.37 31.072 125.442 32.28 125.122 33.496C124.882 34.408 124.402 35.184 123.682 35.824C122.962 36.464 122.138 36.92 121.21 37.192C120.298 37.448 119.346 37.568 118.354 37.552C117.362 37.536 116.458 37.376 115.642 37.072C115.354 36.944 115.042 36.936 114.706 37.048C114.37 37.144 114.186 37.376 114.154 37.744C114.106 38.24 114.306 38.608 114.754 38.848C115.202 39.088 115.69 39.192 116.218 39.16C116.57 39.128 117.09 39.016 117.778 38.824C118.466 38.632 118.986 38.528 119.338 38.512C120.762 38.4 121.85 38.424 122.602 38.584ZM118.474 29.104C117.914 29.536 117.426 30.16 117.01 30.976C116.61 31.792 116.402 32.56 116.386 33.28C116.386 34 116.578 34.464 116.962 34.672C117.362 34.864 117.842 34.744 118.402 34.312C118.978 33.864 119.466 33.232 119.866 32.416C120.282 31.6 120.498 30.832 120.514 30.112C120.53 29.392 120.338 28.936 119.938 28.744C119.538 28.536 119.05 28.656 118.474 29.104ZM143.505 41.536C143.841 41.856 144.017 42.232 144.033 42.664C144.049 43.112 143.953 43.528 143.745 43.912C143.553 44.296 143.297 44.64 142.977 44.944C142.097 45.712 140.985 46.04 139.641 45.928C138.313 45.832 137.249 45.352 136.449 44.488C135.761 43.752 135.305 42.864 135.081 41.824C134.873 40.8 134.777 39.64 134.793 38.344C134.457 38.856 134.001 39.288 133.425 39.64C132.865 39.976 132.281 40.144 131.673 40.144C130.473 40.144 129.473 39.824 128.673 39.184C128.177 38.784 127.825 38.336 127.617 37.84C127.425 37.328 127.321 36.704 127.305 35.968C127.305 35.92 127.305 35.848 127.305 35.752C127.289 35.352 127.273 34.784 127.257 34.048C127.241 33.296 127.233 32.776 127.233 32.488C127.201 31.544 127.177 30.96 127.161 30.736C127.129 30.448 127.041 30.032 126.897 29.488C126.769 28.944 126.697 28.624 126.681 28.528C126.649 28.448 126.641 28.368 126.657 28.288C126.689 28.208 126.737 28.136 126.801 28.072C126.881 27.992 126.961 27.928 127.041 27.88C127.137 27.816 127.273 27.752 127.449 27.688C127.625 27.608 127.785 27.536 127.929 27.472C128.089 27.408 128.305 27.32 128.577 27.208C128.865 27.096 129.129 26.992 129.369 26.896C129.865 26.688 130.249 26.592 130.521 26.608C130.761 26.608 130.961 26.688 131.121 26.848C131.297 27.008 131.377 27.208 131.361 27.448C131.361 27.528 131.337 27.656 131.289 27.832C131.257 28.008 131.241 28.112 131.241 28.144C131.145 28.672 131.081 29.256 131.049 29.896C130.937 31.944 130.953 33.584 131.097 34.816C131.097 34.896 131.105 34.976 131.121 35.056C131.265 36.192 131.521 36.928 131.889 37.264C132.129 37.488 132.441 37.608 132.825 37.624C133.209 37.624 133.529 37.52 133.785 37.312C134.249 36.992 134.521 36.12 134.601 34.696C134.681 33.256 134.657 31.92 134.529 30.688C134.401 29.44 134.281 28.6 134.169 28.168C134.105 27.896 134.113 27.704 134.193 27.592C134.273 27.464 134.457 27.36 134.745 27.28C134.953 27.232 135.257 27.128 135.657 26.968C136.057 26.808 136.297 26.712 136.377 26.68C137.369 26.328 137.993 26.36 138.249 26.776C138.345 26.936 138.393 27.296 138.393 27.856C138.393 28.688 138.353 30.384 138.273 32.944C138.193 35.952 138.177 37.864 138.225 38.68C138.225 38.696 138.225 38.848 138.225 39.136C138.241 39.408 138.249 39.568 138.249 39.616C138.265 39.664 138.281 39.816 138.297 40.072C138.313 40.344 138.329 40.52 138.345 40.6C138.361 40.696 138.385 40.856 138.417 41.08C138.449 41.32 138.481 41.496 138.513 41.608C138.561 41.72 138.609 41.872 138.657 42.064C138.705 42.256 138.761 42.408 138.825 42.52C138.889 42.648 138.961 42.784 139.041 42.928C139.137 43.072 139.233 43.2 139.329 43.312C139.745 43.776 140.345 44.104 141.129 44.296C140.489 43.8 140.257 43.192 140.433 42.472C140.609 41.768 141.001 41.312 141.609 41.104C142.233 40.896 142.865 41.04 143.505 41.536ZM150.495 28.168C150.687 29.608 150.311 30.6 149.367 31.144C148.407 31.704 147.671 31.544 147.159 30.664C147.127 30.6 147.079 30.536 147.015 30.472C146.599 29.912 146.159 29.712 145.695 29.872C145.599 29.904 145.511 29.944 145.431 29.992C145.351 30.024 145.279 30.08 145.215 30.16C145.167 30.224 145.119 30.288 145.071 30.352C145.039 30.4 145.007 30.48 144.975 30.592C144.959 30.688 144.943 30.76 144.927 30.808C144.911 30.856 144.895 30.944 144.879 31.072C144.879 31.2 144.879 31.288 144.879 31.336C144.879 31.384 144.879 31.48 144.879 31.624C144.879 31.752 144.879 31.832 144.879 31.864C144.863 33.4 144.863 34.488 144.879 35.128C144.879 35.224 144.871 35.552 144.855 36.112C144.855 36.672 144.855 37.064 144.855 37.288C144.871 37.496 144.903 37.8 144.951 38.2C144.999 38.6 145.079 38.952 145.191 39.256C145.319 39.608 145.311 39.832 145.167 39.928C145.071 39.976 144.927 40 144.735 40C143.807 40.016 143.111 40.024 142.647 40.024C141.383 40.024 140.751 40.024 140.751 40.024C140.463 39.992 140.359 39.84 140.439 39.568C140.551 39.232 140.639 38.888 140.703 38.536C140.783 38.184 140.831 37.808 140.847 37.408C140.879 36.992 140.895 36.648 140.895 36.376C140.911 36.104 140.911 35.72 140.895 35.224C140.895 34.728 140.895 34.376 140.895 34.168C140.911 33.192 140.903 32.536 140.871 32.2C140.807 31.336 140.711 30.696 140.583 30.28C140.407 29.704 140.543 29.216 140.991 28.816C141.759 28.16 142.551 27.52 143.367 26.896C143.607 26.72 143.903 26.6 144.255 26.536C144.479 26.488 144.647 26.52 144.759 26.632C144.887 26.744 144.951 26.92 144.951 27.16C144.951 27.224 144.951 27.624 144.951 28.36C145.879 27.688 146.375 27.328 146.439 27.28C147.207 26.816 147.911 26.576 148.551 26.56C149.015 26.56 149.439 26.712 149.823 27.016C150.207 27.304 150.431 27.688 150.495 28.168ZM167.156 41.392C167.476 41.712 167.644 42.088 167.66 42.52C167.692 42.968 167.604 43.384 167.396 43.768C167.204 44.152 166.94 44.496 166.604 44.8C165.724 45.568 164.612 45.896 163.268 45.784C161.94 45.688 160.884 45.208 160.1 44.344C159.444 43.624 158.988 42.672 158.732 41.488C158.684 41.296 158.612 40.768 158.516 39.904C158.468 39.552 158.436 39.216 158.42 38.896C158.42 38.88 158.412 38.8 158.396 38.656C158.396 38.496 158.396 38.368 158.396 38.272C158.396 38.16 158.412 38.08 158.444 38.032C158.188 38.48 157.836 38.848 157.388 39.136C156.108 39.952 154.548 40.12 152.708 39.64C151.908 39.432 151.284 39.008 150.836 38.368C150.388 37.712 150.172 36.968 150.188 36.136C150.204 34.968 150.628 34 151.46 33.232C152.308 32.464 153.316 32.064 154.484 32.032C155.012 32.016 155.524 32.072 156.02 32.2C156.404 32.296 156.708 32.408 156.932 32.536C157.396 32.792 157.628 32.984 157.628 33.112C157.692 32.392 157.692 31.672 157.628 30.952C157.564 30.04 157.428 29.408 157.22 29.056C156.996 28.672 156.7 28.456 156.332 28.408C156.14 28.392 155.932 28.416 155.708 28.48C155.484 28.544 155.316 28.648 155.204 28.792C155.14 28.888 155.084 29.008 155.036 29.152C155.004 29.28 154.988 29.384 154.988 29.464C154.988 29.544 154.988 29.68 154.988 29.872C155.004 30.064 155.012 30.176 155.012 30.208C155.012 30.4 154.996 30.544 154.964 30.64C154.9 30.928 154.732 31.16 154.46 31.336C153.916 31.704 153.324 31.776 152.684 31.552C152.06 31.328 151.7 30.888 151.604 30.232C151.492 29.4 151.796 28.648 152.516 27.976C153.252 27.304 154.068 26.864 154.964 26.656C156.164 26.368 157.324 26.384 158.444 26.704C159.852 27.136 160.828 27.88 161.372 28.936C161.452 29.112 161.524 29.312 161.588 29.536C161.652 29.744 161.7 29.928 161.732 30.088C161.764 30.232 161.78 30.448 161.78 30.736C161.796 31.024 161.804 31.224 161.804 31.336C161.804 31.448 161.804 31.672 161.804 32.008C161.804 32.328 161.804 32.52 161.804 32.584C161.756 33.832 161.748 35.264 161.78 36.88C161.828 38.496 161.956 39.92 162.164 41.152C162.324 42.08 162.596 42.752 162.98 43.168C163.396 43.632 163.996 43.96 164.78 44.152C164.14 43.656 163.9 43.048 164.06 42.328C164.236 41.624 164.636 41.168 165.26 40.96C165.884 40.752 166.516 40.896 167.156 41.392ZM154.268 37.624C154.668 37.32 155.004 36.888 155.276 36.328C155.564 35.752 155.708 35.216 155.708 34.72C155.724 34.224 155.596 33.912 155.324 33.784C155.052 33.64 154.716 33.72 154.316 34.024C153.932 34.328 153.596 34.768 153.308 35.344C153.02 35.904 152.868 36.432 152.852 36.928C152.852 37.424 152.988 37.744 153.26 37.888C153.548 38.016 153.884 37.928 154.268 37.624ZM175.37 35.368C175.674 35.496 175.714 35.864 175.49 36.472C175.33 36.92 175.05 37.432 174.65 38.008C174.266 38.568 173.77 39.048 173.162 39.448C172.73 39.72 172.202 39.912 171.578 40.024C171.69 40.84 171.458 41.552 170.882 42.16C170.322 42.768 169.602 42.992 168.722 42.832C168.002 42.736 167.618 42.432 167.57 41.92C167.522 41.52 167.682 41.216 168.05 41.008C168.21 40.912 168.394 40.88 168.602 40.912C168.65 40.912 168.714 40.92 168.794 40.936C168.89 40.952 168.954 40.96 168.986 40.96C169.034 40.96 169.082 40.96 169.13 40.96C169.194 40.96 169.25 40.952 169.298 40.936C169.346 40.92 169.394 40.896 169.442 40.864C169.73 40.704 169.81 40.448 169.682 40.096C169.586 40.096 169.49 40.088 169.394 40.072C168.098 39.912 166.97 39.4 166.01 38.536C165.178 37.784 164.594 36.856 164.258 35.752C163.922 34.632 163.842 33.504 164.018 32.368C164.21 31.216 164.618 30.184 165.242 29.272C165.946 28.248 166.714 27.544 167.546 27.16C168.394 26.792 169.29 26.632 170.234 26.68C171.194 26.728 172.09 26.952 172.922 27.352C173.45 27.608 173.914 28 174.314 28.528C174.714 29.056 174.962 29.624 175.058 30.232C175.154 30.84 175.026 31.432 174.674 32.008C174.498 32.248 174.242 32.424 173.906 32.536C173.586 32.648 173.282 32.672 172.994 32.608C172.706 32.544 172.466 32.384 172.274 32.128C172.082 31.856 171.97 31.56 171.938 31.24C171.906 31.064 171.898 30.88 171.914 30.688C171.93 30.48 171.938 30.28 171.938 30.088C171.938 29.896 171.938 29.72 171.938 29.56C171.938 29.384 171.906 29.232 171.842 29.104C171.778 28.976 171.69 28.872 171.578 28.792C171.482 28.712 171.322 28.68 171.098 28.696C170.89 28.696 170.634 28.744 170.33 28.84C169.594 29.048 169.018 29.736 168.602 30.904C168.394 31.512 168.274 32.192 168.242 32.944C168.226 33.696 168.362 34.432 168.65 35.152C168.954 35.856 169.418 36.344 170.042 36.616C170.906 36.968 171.786 37.056 172.682 36.88C173.114 36.8 173.538 36.592 173.954 36.256C174.002 36.24 174.154 36.104 174.41 35.848C174.682 35.592 174.906 35.432 175.082 35.368C175.194 35.336 175.29 35.336 175.37 35.368ZM181.873 25.744C181.617 25.888 181.377 25.856 181.153 25.648C180.929 25.424 180.921 25.112 181.129 24.712C181.609 23.864 182.225 23.44 182.977 23.44C183.137 23.44 183.305 23.464 183.481 23.512C183.641 23.544 183.841 23.64 184.081 23.8C184.337 23.944 184.497 24.032 184.561 24.064C184.721 24.144 184.841 24.176 184.921 24.16C184.985 24.144 185.057 24.112 185.137 24.064C185.201 24.016 185.281 23.936 185.377 23.824C185.489 23.696 185.593 23.608 185.689 23.56C185.785 23.496 185.897 23.464 186.025 23.464C186.217 23.464 186.377 23.512 186.505 23.608C186.649 23.704 186.729 23.832 186.745 23.992C186.777 24.12 186.753 24.248 186.673 24.376C186.433 24.808 186.105 25.152 185.689 25.408C185.465 25.552 185.265 25.632 185.089 25.648C184.833 25.664 184.553 25.568 184.249 25.36C183.801 25.056 183.545 24.888 183.481 24.856C183.145 24.712 182.857 24.72 182.617 24.88C182.505 24.944 182.377 25.088 182.233 25.312C182.105 25.536 181.985 25.68 181.873 25.744ZM187.777 28.336C189.105 29.6 189.809 31.168 189.889 33.04C189.985 34.912 189.433 36.544 188.233 37.936C187.033 39.312 185.537 40.04 183.745 40.12C181.969 40.216 180.417 39.632 179.089 38.368C177.777 37.104 177.073 35.536 176.977 33.664C176.897 31.792 177.449 30.168 178.633 28.792C179.833 27.4 181.321 26.664 183.097 26.584C184.889 26.488 186.449 27.072 187.777 28.336ZM183.121 36.736C183.857 36.064 184.513 35.144 185.089 33.976C185.665 32.808 186.001 31.736 186.097 30.76C186.209 29.784 186.041 29.184 185.593 28.96C185.161 28.736 184.577 28.96 183.841 29.632C183.121 30.304 182.465 31.224 181.873 32.392C181.297 33.56 180.961 34.632 180.865 35.608C180.769 36.584 180.937 37.184 181.369 37.408C181.817 37.632 182.401 37.408 183.121 36.736ZM203.072 35.392C203.136 35.44 203.184 35.52 203.216 35.632C203.312 35.936 203.216 36.424 202.928 37.096C202.496 38.184 201.752 39 200.696 39.544C199.64 40.072 198.512 40.272 197.312 40.144C197.264 40.144 197.208 40.136 197.144 40.12C195.848 39.96 194.72 39.448 193.76 38.584C192.928 37.848 192.344 36.92 192.008 35.8C191.672 34.68 191.592 33.552 191.768 32.416C191.96 31.264 192.368 30.232 192.992 29.32C193.696 28.296 194.464 27.592 195.296 27.208C196.256 26.76 197.32 26.632 198.488 26.824C200.088 27.08 201.352 27.712 202.28 28.72C203.192 29.728 203.48 31.048 203.144 32.68C203.032 33.224 202.808 33.712 202.472 34.144C202.072 34.704 201.528 35.12 200.84 35.392C200.2 35.68 199.52 35.8 198.8 35.752C197.792 35.704 197.024 35.4 196.496 34.84C196.48 34.84 196.464 34.832 196.448 34.816C196.416 34.816 196.4 34.848 196.4 34.912C196.384 35.264 196.528 35.616 196.832 35.968C197.104 36.272 197.424 36.504 197.792 36.664C198.656 37.016 199.536 37.104 200.432 36.928C200.864 36.848 201.288 36.648 201.704 36.328C201.752 36.296 201.872 36.176 202.064 35.968C202.256 35.76 202.44 35.6 202.616 35.488C202.808 35.36 202.96 35.328 203.072 35.392ZM198.08 29.56C197.696 29.864 197.36 30.296 197.072 30.856C196.8 31.416 196.656 31.952 196.64 32.464C196.64 32.96 196.776 33.28 197.048 33.424C197.32 33.552 197.656 33.464 198.056 33.16C198.456 32.856 198.792 32.424 199.064 31.864C199.352 31.288 199.496 30.752 199.496 30.256C199.512 29.76 199.376 29.448 199.088 29.32C198.816 29.176 198.48 29.256 198.08 29.56ZM214.918 34.624C215.254 35.632 215.166 36.656 214.654 37.696C214.142 38.736 213.406 39.424 212.446 39.76C211.678 39.984 210.894 40.088 210.094 40.072C209.294 40.072 208.494 39.896 207.694 39.544C206.91 39.192 206.262 38.704 205.75 38.08H205.774C205.294 37.456 205.078 36.808 205.126 36.136C205.126 36.12 205.126 36.104 205.126 36.088C205.158 35.784 205.246 35.528 205.39 35.32C205.694 34.808 206.11 34.496 206.638 34.384C207.182 34.256 207.718 34.424 208.246 34.888C208.518 35.144 208.686 35.44 208.75 35.776C208.814 36.112 208.798 36.44 208.702 36.76C208.622 37.08 208.478 37.384 208.27 37.672C208.318 37.768 208.366 37.856 208.414 37.936C208.638 38.224 208.974 38.432 209.422 38.56C209.886 38.672 210.286 38.664 210.622 38.536C210.878 38.456 211.078 38.312 211.222 38.104C211.366 37.896 211.446 37.664 211.462 37.408C211.494 37.136 211.414 36.832 211.222 36.496C211.046 36.16 210.774 35.84 210.406 35.536C210.198 35.376 209.862 35.176 209.398 34.936C208.934 34.68 208.502 34.448 208.102 34.24C207.718 34.032 207.302 33.736 206.854 33.352C206.422 32.952 206.078 32.512 205.822 32.032C205.166 30.784 205.102 29.592 205.63 28.456C206.126 27.432 206.974 26.712 208.174 26.296C209.422 25.864 210.654 25.912 211.87 26.44C212.638 26.776 213.262 27.232 213.742 27.808C214.382 28.528 214.686 29.24 214.654 29.944C214.622 30.456 214.414 30.896 214.03 31.264C213.63 31.664 213.15 31.84 212.59 31.792C211.934 31.76 211.446 31.424 211.126 30.784C210.79 30.096 210.894 29.408 211.438 28.72C211.326 28.432 211.182 28.208 211.006 28.048C210.718 27.808 210.39 27.68 210.022 27.664C209.67 27.632 209.358 27.728 209.086 27.952C208.83 28.16 208.702 28.472 208.702 28.888C208.702 29.256 208.83 29.648 209.086 30.064C209.326 30.448 209.67 30.8 210.118 31.12C210.566 31.424 211.022 31.68 211.486 31.888C211.95 32.096 212.414 32.312 212.878 32.536C213.342 32.76 213.758 33.048 214.126 33.4C214.51 33.736 214.774 34.144 214.918 34.624Z" fill="#03023E"/>
</g>
<defs>
<filter id="filter0_d_70_66" x="0" y="0" width="269.948" height="93.2933" filterUnits="userSpaceOnUse" color-interpolation-filters="sRGB">
<feFlood flood-opacity="0" result="BackgroundImageFix"/>
<feColorMatrix in="SourceAlpha" type="matrix" values="0 0 0 0 0 0 0 0 0 0 0 0 0 0 0 0 0 0 127 0" result="hardAlpha"/>
<feOffset dy="4"/>
<feGaussianBlur stdDeviation="2"/>
<feComposite in2="hardAlpha" operator="out"/>
<feColorMatrix type="matrix" values="0 0 0 0 0 0 0 0 0 0 0 0 0 0 0 0 0 0 0.25 0"/>
<feBlend mode="normal" in2="BackgroundImageFix" result="effect1_dropShadow_70_66"/>
<feBlend mode="normal" in="SourceGraphic" in2="effect1_dropShadow_70_66" result="shape"/>
</filter>
<clipPath id="clip0_70_66">
<rect width="47" height="48" fill="white" transform="translate(254.573) rotate(75.9934)"/>
</clipPath>
<clipPath id="clip1_70_66">
<rect width="73.3233" height="28.4315" fill="white" transform="translate(4 61.2875) rotate(-32.3989)"/>
</clipPath>
</defs>
</svg>
