<svg width="251" height="81" viewBox="0 0 251 81" fill="none" xmlns="http://www.w3.org/2000/svg">
<g filter="url(#filter0_d_70_61)">
<g clip-path="url(#clip0_70_61)">
<path d="M41.7551 18.1713C41.2842 18.5605 40.7155 18.8656 40.1031 19.151C38.7506 19.7775 37.2605 20.1159 35.753 20.0716C33.5233 20.0068 31.4218 19.0823 29.6476 17.7381C29.0348 17.275 28.6162 16.5862 28.2274 15.866C27.6593 14.8133 27.1897 13.6918 26.8922 12.5386C26.5947 11.3854 26.4799 10.294 26.7312 9.1733C26.953 8.17023 27.2902 7.17764 27.8795 6.33332C29.0041 4.72631 31.0307 3.55867 33.0458 3.50913C34.0025 3.48579 34.9867 3.62418 35.8666 4.04047C37.1677 4.6535 37.9874 5.82796 38.4965 7.12701C39.3654 9.33904 38.8285 11.8517 36.9341 13.2774C36.0728 13.9257 34.9615 14.3523 33.8541 14.2578C32.7062 14.1609 31.648 13.4052 31.1789 12.359C30.8498 11.6249 30.773 10.7512 30.9507 9.97883C31.1776 8.97937 32.1594 8.28538 33.1196 8.04001C33.536 7.93406 34.0641 7.85469 34.4197 8.16593C34.7199 8.43058 35.4851 8.29809 35.0224 7.88867C34.0256 7.00809 32.4741 7.30302 31.4614 7.9266C30.5864 8.46411 30.0771 9.21158 29.987 10.2292C29.8969 11.2468 30.1829 12.362 30.864 13.1952C31.7194 14.2377 33.0832 14.8652 34.416 14.8796C36.8878 14.906 39.0948 13.125 39.6515 10.7798C40.3023 7.99216 38.7474 4.76385 36.0728 3.54265C35.0206 3.06067 33.8354 2.87001 32.694 2.90494C31.8511 2.93016 31.157 3.0979 30.3691 3.40895C28.9782 3.95966 27.7425 4.84456 26.9329 6.09814C26.324 7.04081 25.9664 8.12745 25.7679 9.23312C25.5392 10.5119 25.8089 11.8401 26.1974 13.0763C26.5859 14.3126 27.0867 15.4225 27.7417 16.4879C27.9645 16.8513 28.1967 17.2175 28.4867 17.5347C28.9028 17.9936 29.4605 18.3392 29.9743 18.6763C31.0804 19.4022 32.29 19.9655 33.565 20.3169C36.5717 21.1443 39.9542 20.5611 42.4197 18.7347C42.4668 18.7006 42.5095 18.6673 42.5541 18.6314C42.8537 18.3867 42.0319 17.9479 41.7559 18.1756L41.7551 18.1713Z" fill="#FDDFFC"/>
</g>
<g clip-path="url(#clip1_70_61)">
<path d="M220.896 57.0735C219.335 56.9618 218.564 58.962 219.147 60.418C219.727 61.8649 221.613 62.4192 222.831 61.7449C223.45 61.4027 223.998 60.9157 224.389 60.2748C224.946 59.3606 225.048 58.2388 224.89 57.1634C224.753 56.2132 224.429 55.276 223.925 54.4898C222.148 51.7139 218.545 52.3713 216.516 54.3869C213.382 57.5028 215.027 63.7543 218.839 65.2546C220.606 65.9515 222.546 66.0185 224.317 65.3208C226.219 64.5692 227.64 62.9167 228.895 61.2244C230.357 59.2511 231.707 56.9286 232.311 54.4308C232.563 53.3896 232.713 52.306 232.862 51.2408C233.246 48.5392 233.48 45.8123 233.625 43.0826C233.712 41.4577 233.682 39.8094 233.926 38.2002C234.224 36.2327 234.856 33.9888 236.443 32.8556C238.447 31.4244 241.164 32.0465 242.854 33.8028C244.025 35.0192 244.648 36.6703 244.624 38.4188C244.606 39.645 244.185 41.0334 243.349 41.8688C242.627 42.5895 241.544 43.0899 240.588 43.1988C239.562 43.3132 238.453 42.9362 237.698 42.1407C237.301 41.7222 237.025 41.1948 236.888 40.607C236.829 40.3573 236.792 40.0915 236.785 39.8368C236.782 39.7478 236.779 39.9046 236.785 39.8307C236.791 39.7721 236.8 39.7134 236.806 39.6579C236.925 38.8273 237.201 37.9295 237.807 37.3851C238.556 36.7157 239.96 36.7041 240.706 37.4077C241.327 37.9931 241.403 38.9486 241.199 39.77C241.119 40.0893 241.56 40.8011 241.69 40.2865C241.935 39.3069 241.826 38.199 241.338 37.3231C240.812 36.3841 239.902 35.9537 238.928 36.0263C237.871 36.105 237.114 36.6765 236.681 37.7551C236.458 38.3069 236.268 38.9804 236.277 39.5944C236.306 42.115 238.219 44.1672 240.472 44.1122C241.594 44.0833 242.67 43.5431 243.56 42.8133C244.353 42.1637 244.843 40.9294 245.031 39.8782C245.787 35.6518 242.67 31.036 238.681 31.1793C237.601 31.219 236.508 31.6092 235.678 32.3922C234.964 33.0696 234.462 34.0002 234.111 34.9622C233.527 36.5654 233.271 38.3286 233.222 40.0566C233.094 44.4075 232.794 48.7923 231.996 53.0572C231.71 54.588 231.152 56.0091 230.451 57.3617C229.345 59.4971 227.903 61.5034 226.206 63.0953C224.509 64.6872 222.12 65.2387 219.93 64.7477C219.685 64.6922 219.439 64.6244 219.202 64.5379C219.14 64.5156 219.196 64.5381 219.21 64.5438C219.09 64.5021 218.967 64.4605 218.847 64.4158C218.547 64.3039 218.257 64.1579 217.981 63.9869C217.06 63.4156 216.351 62.5232 215.906 61.4676C215.117 59.5953 215.156 57.3394 216.395 55.7367C217.077 54.8547 218.031 54.1532 219.04 53.8213C220.646 53.2893 222.54 53.3734 223.621 54.9985C223.942 55.4812 224.131 55.9565 224.274 56.4826C224.3 56.58 224.323 56.6744 224.346 56.7718C224.375 56.9059 224.332 56.6863 224.353 56.8084C224.359 56.845 224.366 56.8786 224.373 56.9152C224.398 57.074 224.423 57.2328 224.437 57.392C224.598 59.0692 223.583 60.4979 222.206 61.046C221.602 61.2862 220.833 61.0963 220.273 60.7913C219.907 60.5928 219.51 60.2941 219.486 59.8036C219.462 59.313 219.567 58.7716 219.896 58.4155C220.185 58.1009 220.651 57.9333 221.016 57.9598C221.382 57.9863 221.203 57.0899 220.898 57.0703L220.896 57.0735Z" fill="#FDDFFC"/>
</g>
<rect x="4" y="17" width="230" height="56" rx="28" fill="#FDDFFC"/>
<path d="M99.7198 35.944C98.7278 36.792 97.8718 37.848 97.1518 39.112C96.8798 39.56 96.6238 40.064 96.3838 40.624C96.1438 41.168 95.9518 41.64 95.8078 42.04C95.6638 42.424 95.4878 42.984 95.2798 43.72C95.0878 44.44 94.9598 44.928 94.8958 45.184C94.8318 45.44 94.6958 46.008 94.4878 46.888C94.2798 47.768 94.1598 48.28 94.1278 48.424C94.0318 48.808 93.7918 49.008 93.4078 49.024C92.8798 49.072 92.5198 49.04 92.3278 48.928C92.1518 48.816 91.9758 48.504 91.7998 47.992C91.7038 47.72 91.5838 47.328 91.4398 46.816C91.3118 46.304 91.2238 45.968 91.1758 45.808C90.1998 42.56 89.4798 40.176 89.0158 38.656C88.8878 38.224 88.6638 37.536 88.3438 36.592C88.0398 35.632 87.8078 34.896 87.6478 34.384C87.5198 33.936 87.2078 33.456 86.7118 32.944C86.6318 32.864 86.5838 32.8 86.5678 32.752C86.5198 32.656 86.5278 32.584 86.5918 32.536C86.6238 32.504 86.6798 32.48 86.7598 32.464C86.8398 32.432 86.9118 32.416 86.9758 32.416C87.0398 32.416 87.1118 32.424 87.1918 32.44C87.2718 32.44 87.3198 32.44 87.3358 32.44C87.7838 32.424 88.2318 32.408 88.6798 32.392C89.2238 32.392 89.7678 32.392 90.3118 32.392C91.3678 32.392 91.9038 32.392 91.9198 32.392C92.2238 32.408 92.4238 32.536 92.5198 32.776C92.5838 32.92 92.6478 33.176 92.7118 33.544C92.8398 34.376 93.0878 35.568 93.4558 37.12C93.5038 37.28 93.6558 37.888 93.9118 38.944C93.9918 39.328 94.0638 39.632 94.1278 39.856C94.1438 39.92 94.1678 40.04 94.1998 40.216C94.2318 40.392 94.2638 40.528 94.2958 40.624C94.3118 40.624 94.3198 40.624 94.3198 40.624C94.3518 40.56 94.3918 40.44 94.4398 40.264C94.4878 40.088 94.5278 39.944 94.5598 39.832C94.6558 39.496 94.7358 39.2 94.7998 38.944C94.9598 38.32 95.0878 37.88 95.1838 37.624C95.6958 36.056 96.3038 34.728 97.0078 33.64C97.7278 32.536 98.6798 31.632 99.8638 30.928C100.296 30.672 100.736 30.488 101.184 30.376C101.648 30.248 102.128 30.208 102.624 30.256C103.136 30.288 103.584 30.44 103.968 30.712C104.416 31 104.712 31.408 104.856 31.936C104.968 32.24 104.984 32.592 104.904 32.992C104.84 33.376 104.68 33.664 104.424 33.856C104.184 34.048 103.872 34.192 103.488 34.288C103.424 34.304 103.328 34.328 103.2 34.36C102.624 34.52 102.192 34.648 101.904 34.744C101.616 34.824 101.264 34.968 100.848 35.176C100.448 35.384 100.072 35.64 99.7198 35.944ZM109.272 37.168C110.6 38.432 111.312 40 111.408 41.872C111.504 43.744 110.952 45.376 109.752 46.768C108.552 48.144 107.056 48.88 105.264 48.976C103.488 49.056 101.936 48.464 100.608 47.2C99.2958 45.936 98.5918 44.368 98.4958 42.496C98.4158 40.624 98.9678 39 100.152 37.624C101.352 36.232 102.84 35.496 104.616 35.416C106.408 35.32 107.96 35.904 109.272 37.168ZM104.64 45.568C105.36 44.896 106.008 43.976 106.584 42.808C107.176 41.64 107.52 40.568 107.616 39.592C107.728 38.6 107.56 38 107.112 37.792C106.664 37.568 106.08 37.792 105.36 38.464C104.64 39.12 103.984 40.032 103.392 41.2C102.816 42.368 102.48 43.448 102.384 44.44C102.288 45.416 102.456 46.016 102.888 46.24C103.336 46.448 103.92 46.224 104.64 45.568ZM117.843 48.712C117.859 48.808 117.859 48.88 117.843 48.928C117.811 49.04 117.659 49.104 117.387 49.12C117.307 49.136 117.019 49.136 116.523 49.12C116.027 49.12 115.739 49.12 115.659 49.12C114.443 49.12 113.595 49.128 113.115 49.144C112.811 49.144 112.699 49.008 112.779 48.736C112.907 48.272 113.011 47.792 113.091 47.296C113.187 46.8 113.243 46.264 113.259 45.688C113.291 45.112 113.307 44.632 113.307 44.248C113.323 43.864 113.323 43.328 113.307 42.64C113.291 41.952 113.283 41.456 113.283 41.152C113.283 38.544 113.283 36.16 113.283 34C113.283 33.6 113.251 33.288 113.187 33.064C113.091 32.76 112.947 32.52 112.755 32.344C112.515 32.12 112.403 31.872 112.419 31.6C112.435 31.312 112.587 31.088 112.875 30.928C113.051 30.816 113.355 30.656 113.787 30.448C114.507 30.112 115.267 29.432 116.067 28.408C116.083 28.392 116.099 28.376 116.115 28.36C116.131 28.328 116.139 28.312 116.139 28.312C116.411 27.96 116.683 27.824 116.955 27.904C117.227 27.984 117.363 28.256 117.363 28.72C117.379 30.096 117.379 31.224 117.363 32.104C117.347 32.776 117.315 33.704 117.267 34.888C117.235 36.072 117.203 37.16 117.171 38.152C117.155 39.128 117.147 40.048 117.147 40.912C117.163 42.512 117.203 43.848 117.267 44.92C117.315 45.704 117.371 46.344 117.435 46.84C117.483 47.208 117.539 47.552 117.603 47.872C117.635 47.952 117.675 48.088 117.723 48.28C117.787 48.472 117.827 48.616 117.843 48.712ZM126.496 46.984C126.544 47.176 126.52 47.432 126.424 47.752C126.344 48.072 126.12 48.384 125.752 48.688C125.384 48.992 124.912 49.136 124.336 49.12C123.952 49.12 123.512 49.024 123.016 48.832C122.536 48.64 122.128 48.384 121.792 48.064C121.728 48 121.672 47.936 121.624 47.872C121.544 47.792 121.472 47.712 121.408 47.632C121.344 47.536 121.28 47.448 121.216 47.368C121.168 47.272 121.12 47.176 121.072 47.08C121.024 46.984 120.976 46.888 120.928 46.792C120.88 46.696 120.84 46.592 120.808 46.48C120.776 46.368 120.744 46.256 120.712 46.144C120.696 46.016 120.672 45.88 120.64 45.736C120.624 45.592 120.608 45.448 120.592 45.304C120.576 45.144 120.568 44.976 120.568 44.8C120.552 44.64 120.544 44.464 120.544 44.272C120.528 44.08 120.52 43.88 120.52 43.672C120.52 43.464 120.52 43.232 120.52 42.976C120.52 42.752 120.52 42.504 120.52 42.232C120.52 41.976 120.52 41.696 120.52 41.392C120.52 41.184 120.52 40.88 120.52 40.48C120.52 40.112 120.52 39.768 120.52 39.448C120.52 39.064 120.528 38.696 120.544 38.344C120.544 38.136 120.544 37.936 120.544 37.744C120.544 37.68 120.544 37.576 120.544 37.432C120.544 37.288 120.528 37.2 120.496 37.168C120.464 37.12 120.4 37.096 120.304 37.096H119.488C119.2 37.096 119.008 36.968 118.912 36.712C118.816 36.44 118.84 36.192 118.984 35.968C119.112 35.744 119.408 35.528 119.872 35.32C120.352 35.096 120.648 34.832 120.76 34.528C120.808 34.384 120.832 34.144 120.832 33.808C120.848 33.472 120.888 33.224 120.952 33.064C121.096 32.792 121.416 32.552 121.912 32.344C121.944 32.328 122.088 32.264 122.344 32.152C122.6 32.024 122.808 31.936 122.968 31.888C123.128 31.824 123.32 31.768 123.544 31.72C123.784 31.656 123.976 31.648 124.12 31.696C124.28 31.744 124.392 31.848 124.456 32.008C124.504 32.12 124.528 32.24 124.528 32.368C124.544 32.496 124.544 32.672 124.528 32.896C124.528 33.104 124.528 33.216 124.528 33.232C124.528 33.568 124.528 34.144 124.528 34.96C124.528 35.104 124.528 35.24 124.528 35.368C124.528 35.384 124.528 35.408 124.528 35.44C124.528 35.456 124.528 35.48 124.528 35.512C124.528 35.544 124.528 35.568 124.528 35.584C124.528 35.664 124.536 35.72 124.552 35.752C124.568 35.784 124.64 35.8 124.768 35.8H125.608C125.896 35.8 126.096 35.912 126.208 36.136C126.32 36.344 126.32 36.56 126.208 36.784C126.096 36.992 125.896 37.096 125.608 37.096H124.768C124.64 37.096 124.56 37.112 124.528 37.144C124.512 37.176 124.504 37.272 124.504 37.432C124.504 37.544 124.504 37.648 124.504 37.744C124.504 37.968 124.504 38.176 124.504 38.368C124.504 38.832 124.496 39.32 124.48 39.832C124.48 40.184 124.472 40.616 124.456 41.128C124.456 41.688 124.456 42.072 124.456 42.28C124.44 42.68 124.432 43.016 124.432 43.288C124.432 43.624 124.432 43.912 124.432 44.152C124.448 44.424 124.464 44.664 124.48 44.872C124.48 45.096 124.496 45.296 124.528 45.472C124.544 45.648 124.576 45.808 124.624 45.952C124.656 46.08 124.696 46.2 124.744 46.312C124.808 46.408 124.872 46.488 124.936 46.552C125 46.616 125.072 46.664 125.152 46.696C125.248 46.728 125.352 46.744 125.464 46.744C125.576 46.744 125.704 46.736 125.848 46.72C125.912 46.672 126.016 46.664 126.16 46.696C126.32 46.712 126.432 46.808 126.496 46.984ZM144.715 50.392C145.035 50.712 145.203 51.088 145.219 51.52C145.251 51.968 145.163 52.384 144.955 52.768C144.763 53.152 144.499 53.496 144.163 53.8C143.283 54.568 142.171 54.896 140.827 54.784C139.499 54.688 138.443 54.208 137.659 53.344C137.003 52.624 136.547 51.672 136.291 50.488C136.243 50.296 136.171 49.768 136.075 48.904C136.027 48.552 135.995 48.216 135.979 47.896C135.979 47.88 135.971 47.8 135.955 47.656C135.955 47.496 135.955 47.368 135.955 47.272C135.955 47.16 135.971 47.08 136.003 47.032C135.747 47.48 135.395 47.848 134.947 48.136C133.667 48.952 132.107 49.12 130.267 48.64C129.467 48.432 128.843 48.008 128.395 47.368C127.947 46.712 127.731 45.968 127.747 45.136C127.763 43.968 128.187 43 129.019 42.232C129.867 41.464 130.875 41.064 132.043 41.032C132.571 41.016 133.083 41.072 133.579 41.2C133.963 41.296 134.267 41.408 134.491 41.536C134.955 41.792 135.187 41.984 135.187 42.112C135.251 41.392 135.251 40.672 135.187 39.952C135.123 39.04 134.987 38.408 134.779 38.056C134.555 37.672 134.259 37.456 133.891 37.408C133.699 37.392 133.491 37.416 133.267 37.48C133.043 37.544 132.875 37.648 132.763 37.792C132.699 37.888 132.643 38.008 132.595 38.152C132.563 38.28 132.547 38.384 132.547 38.464C132.547 38.544 132.547 38.68 132.547 38.872C132.563 39.064 132.571 39.176 132.571 39.208C132.571 39.4 132.555 39.544 132.523 39.64C132.459 39.928 132.291 40.16 132.019 40.336C131.475 40.704 130.883 40.776 130.243 40.552C129.619 40.328 129.259 39.888 129.163 39.232C129.051 38.4 129.355 37.648 130.075 36.976C130.811 36.304 131.627 35.864 132.523 35.656C133.723 35.368 134.883 35.384 136.003 35.704C137.411 36.136 138.387 36.88 138.931 37.936C139.011 38.112 139.083 38.312 139.147 38.536C139.211 38.744 139.259 38.928 139.291 39.088C139.323 39.232 139.339 39.448 139.339 39.736C139.355 40.024 139.363 40.224 139.363 40.336C139.363 40.448 139.363 40.672 139.363 41.008C139.363 41.328 139.363 41.52 139.363 41.584C139.315 42.832 139.307 44.264 139.339 45.88C139.387 47.496 139.515 48.92 139.723 50.152C139.883 51.08 140.155 51.752 140.539 52.168C140.955 52.632 141.555 52.96 142.339 53.152C141.699 52.656 141.459 52.048 141.619 51.328C141.795 50.624 142.195 50.168 142.819 49.96C143.443 49.752 144.075 49.896 144.715 50.392ZM131.827 46.624C132.227 46.32 132.563 45.888 132.835 45.328C133.123 44.752 133.267 44.216 133.267 43.72C133.283 43.224 133.155 42.912 132.883 42.784C132.611 42.64 132.275 42.72 131.875 43.024C131.491 43.328 131.155 43.768 130.867 44.344C130.579 44.904 130.427 45.432 130.411 45.928C130.411 46.424 130.547 46.744 130.819 46.888C131.107 47.016 131.443 46.928 131.827 46.624ZM151.421 37.168C151.613 38.608 151.237 39.6 150.293 40.144C149.333 40.704 148.597 40.544 148.085 39.664C148.053 39.6 148.005 39.536 147.941 39.472C147.525 38.912 147.085 38.712 146.621 38.872C146.525 38.904 146.437 38.944 146.357 38.992C146.277 39.024 146.205 39.08 146.141 39.16C146.093 39.224 146.045 39.288 145.997 39.352C145.965 39.4 145.933 39.48 145.901 39.592C145.885 39.688 145.869 39.76 145.853 39.808C145.837 39.856 145.821 39.944 145.805 40.072C145.805 40.2 145.805 40.288 145.805 40.336C145.805 40.384 145.805 40.48 145.805 40.624C145.805 40.752 145.805 40.832 145.805 40.864C145.789 42.4 145.789 43.488 145.805 44.128C145.805 44.224 145.797 44.552 145.781 45.112C145.781 45.672 145.781 46.064 145.781 46.288C145.797 46.496 145.829 46.8 145.877 47.2C145.925 47.6 146.005 47.952 146.117 48.256C146.245 48.608 146.237 48.832 146.093 48.928C145.997 48.976 145.853 49 145.661 49C144.733 49.016 144.037 49.024 143.573 49.024C142.309 49.024 141.677 49.024 141.677 49.024C141.389 48.992 141.285 48.84 141.365 48.568C141.477 48.232 141.565 47.888 141.629 47.536C141.709 47.184 141.757 46.808 141.773 46.408C141.805 45.992 141.821 45.648 141.821 45.376C141.837 45.104 141.837 44.72 141.821 44.224C141.821 43.728 141.821 43.376 141.821 43.168C141.837 42.192 141.829 41.536 141.797 41.2C141.733 40.336 141.637 39.696 141.509 39.28C141.333 38.704 141.469 38.216 141.917 37.816C142.685 37.16 143.477 36.52 144.293 35.896C144.533 35.72 144.829 35.6 145.181 35.536C145.405 35.488 145.573 35.52 145.685 35.632C145.813 35.744 145.877 35.92 145.877 36.16C145.877 36.224 145.877 36.624 145.877 37.36C146.805 36.688 147.301 36.328 147.365 36.28C148.133 35.816 148.837 35.576 149.477 35.56C149.941 35.56 150.365 35.712 150.749 36.016C151.133 36.304 151.357 36.688 151.421 37.168Z" fill="#03023E"/>
</g>
<defs>
<filter id="filter0_d_70_61" x="0" y="0" width="250.113" height="81" filterUnits="userSpaceOnUse" color-interpolation-filters="sRGB">
<feFlood flood-opacity="0" result="BackgroundImageFix"/>
<feColorMatrix in="SourceAlpha" type="matrix" values="0 0 0 0 0 0 0 0 0 0 0 0 0 0 0 0 0 0 127 0" result="hardAlpha"/>
<feOffset dy="4"/>
<feGaussianBlur stdDeviation="2"/>
<feComposite in2="hardAlpha" operator="out"/>
<feColorMatrix type="matrix" values="0 0 0 0 0 0 0 0 0 0 0 0 0 0 0 0 0 0 0.25 0"/>
<feBlend mode="normal" in2="BackgroundImageFix" result="effect1_dropShadow_70_61"/>
<feBlend mode="normal" in="SourceGraphic" in2="effect1_dropShadow_70_61" result="shape"/>
</filter>
<clipPath id="clip0_70_61">
<rect width="20" height="16" fill="white" transform="translate(31.2368) rotate(35.2602)"/>
</clipPath>
<clipPath id="clip1_70_61">
<rect width="34" height="31" fill="white" transform="translate(215.134 66.0569) rotate(-92.1016)"/>
</clipPath>
</defs>
</svg>
