<svg width="342" height="111" viewBox="0 0 342 111" fill="none" xmlns="http://www.w3.org/2000/svg">
<g filter="url(#filter0_d_73_67)">
<rect x="17" width="301" height="73" rx="36.5" fill="#03023E" shape-rendering="crispEdges"/>
<path d="M97.6957 32.704C97.5997 37.816 97.5517 40.948 97.5517 42.1C97.5517 42.34 97.4917 42.52 97.3717 42.64C97.2757 42.736 97.1197 42.808 96.9037 42.856C96.4717 42.928 96.0157 42.94 95.5357 42.892C95.0797 42.82 94.7197 42.616 94.4557 42.28C94.2877 42.088 94.0837 41.776 93.8437 41.344C93.6277 40.888 93.4957 40.636 93.4477 40.588C93.3757 40.444 92.9917 39.724 92.2957 38.428C91.5517 37.036 90.7957 35.572 90.0277 34.036C88.7077 31.516 87.2317 28.6 85.5997 25.288C85.5757 25.24 85.5397 25.192 85.4917 25.144C85.4677 25.072 85.4197 25 85.3477 24.928C85.2997 24.856 85.2397 24.82 85.1677 24.82C85.1197 24.82 85.0597 24.856 84.9877 24.928C84.9637 24.976 84.9517 25.048 84.9517 25.144C84.9517 25.288 84.9517 25.732 84.9517 26.476C84.9517 27.196 84.9517 27.748 84.9517 28.132C84.9517 29.644 84.9517 30.868 84.9517 31.804C84.9757 34.588 85.0117 37 85.0597 39.04C85.0837 39.688 85.1077 40.06 85.1317 40.156C85.1797 40.372 85.2637 40.648 85.3837 40.984C85.5037 41.32 85.5877 41.548 85.6357 41.668C85.8037 42.316 85.7437 42.724 85.4557 42.892C85.3597 42.94 85.1917 42.976 84.9517 43C84.2317 43.024 83.4997 43.036 82.7557 43.036C82.7077 43.012 82.5997 43 82.4317 43C82.2877 43.024 82.1677 43.024 82.0717 43C81.9997 43 81.9037 42.988 81.7837 42.964C81.6637 42.94 81.5677 42.892 81.4957 42.82C81.4237 42.748 81.3757 42.652 81.3517 42.532C81.2797 42.34 81.2677 42.124 81.3157 41.884C81.3877 41.62 81.4837 41.344 81.6037 41.056C81.7477 40.768 81.8437 40.552 81.8917 40.408C82.0597 39.712 82.1797 38.944 82.2517 38.104C82.3237 37.384 82.3717 35.848 82.3957 33.496C82.4437 30.76 82.4317 28.024 82.3597 25.288C82.3357 23.32 82.2037 21.82 81.9637 20.788C81.8197 20.116 81.5797 19.576 81.2437 19.168C80.7877 18.616 80.7157 18.232 81.0277 18.016C81.1717 17.92 81.4117 17.872 81.7477 17.872C82.3957 17.896 83.3917 17.92 84.7357 17.944C86.0797 17.944 87.0757 17.956 87.7237 17.98C88.6117 17.98 89.2957 18.352 89.7757 19.096C90.2077 19.792 90.6637 20.584 91.1437 21.472C91.6477 22.336 92.0437 23.044 92.3317 23.596C92.6197 24.148 93.0517 25 93.6277 26.152C94.2277 27.304 94.6117 28.06 94.7797 28.42C94.9237 28.684 95.0557 28.852 95.1757 28.924C95.2237 28.804 95.2477 28.648 95.2477 28.456C95.2717 28.264 95.2717 28.036 95.2477 27.772C95.2477 27.484 95.2477 27.304 95.2477 27.232C95.2717 25.576 95.2477 23.968 95.1757 22.408C95.1037 20.896 94.8277 19.588 94.3477 18.484C94.3237 18.388 94.3117 18.328 94.3117 18.304C94.2877 18.136 94.3717 18.016 94.5637 17.944C94.7077 17.896 95.1397 17.86 95.8597 17.836C96.0757 17.812 96.3997 17.812 96.8317 17.836C97.2637 17.86 97.5037 17.872 97.5517 17.872C97.5517 17.872 97.5757 17.872 97.6237 17.872C97.8397 17.896 98.0077 17.92 98.1277 17.944C98.2477 17.944 98.3677 17.992 98.4877 18.088C98.6317 18.16 98.6917 18.28 98.6677 18.448C98.6677 18.544 98.5957 18.7 98.4517 18.916C98.3077 19.204 98.1877 19.552 98.0917 19.96C98.0197 20.368 97.9717 20.668 97.9477 20.86C97.9237 21.052 97.8997 21.448 97.8757 22.048C97.8757 22.648 97.8757 22.972 97.8757 23.02C97.8517 23.74 97.7917 26.944 97.6957 32.632C97.6957 32.68 97.6957 32.704 97.6957 32.704ZM116.91 25.288C118.902 27.184 119.958 29.536 120.078 32.344C120.222 35.152 119.394 37.6 117.594 39.688C115.794 41.752 113.55 42.844 110.862 42.964C108.198 43.084 105.87 42.196 103.878 40.3C101.91 38.404 100.854 36.052 100.71 33.244C100.59 30.436 101.418 28 103.194 25.936C104.994 23.848 107.226 22.744 109.89 22.624C112.578 22.504 114.918 23.392 116.91 25.288ZM109.926 37.852C111.03 36.844 112.014 35.476 112.878 33.748C113.742 31.996 114.246 30.388 114.39 28.924C114.558 27.436 114.306 26.524 113.634 26.188C112.986 25.852 112.11 26.188 111.006 27.196C109.926 28.204 108.942 29.584 108.054 31.336C107.19 33.088 106.686 34.708 106.542 36.196C106.398 37.66 106.65 38.56 107.298 38.896C107.97 39.208 108.846 38.86 109.926 37.852ZM139.428 23.488C139.428 23.632 139.38 23.776 139.284 23.92C139.14 24.136 138.876 24.328 138.492 24.496C138.108 24.64 137.844 24.784 137.7 24.928C137.22 25.384 136.728 26.356 136.224 27.844C134.616 32.572 133.452 35.956 132.732 37.996C132.012 40.036 131.556 41.284 131.364 41.74C131.172 42.196 131.004 42.508 130.86 42.676C130.548 42.988 130.176 43.12 129.744 43.072C129.336 43.024 129 42.844 128.736 42.532C128.52 42.292 128.04 41.224 127.296 39.328C126.576 37.408 125.7 35.032 124.668 32.2C123.66 29.344 123 27.508 122.688 26.692C122.448 26.044 122.04 25.588 121.464 25.324C121.344 25.252 121.092 25.168 120.708 25.072C120.348 24.952 120.072 24.832 119.88 24.712C119.664 24.568 119.532 24.388 119.484 24.172C119.46 24.1 119.448 24.004 119.448 23.884C119.448 23.572 119.532 23.344 119.7 23.2C119.82 23.08 120.072 23.008 120.456 22.984C120.744 22.96 121.08 22.948 121.464 22.948C121.632 22.948 121.932 22.96 122.364 22.984C122.796 22.984 123.12 22.972 123.336 22.948C124.512 22.948 125.688 22.972 126.864 23.02C126.936 23.02 127.176 23.02 127.584 23.02C127.992 23.02 128.304 23.032 128.52 23.056C128.664 23.08 128.76 23.116 128.808 23.164C128.952 23.26 129.036 23.404 129.06 23.596C129.084 23.764 129.072 23.932 129.024 24.1C128.976 24.244 128.916 24.424 128.844 24.64C128.796 24.832 128.784 24.976 128.808 25.072C128.808 25.288 128.88 25.696 129.024 26.296C129.264 27.232 129.66 28.468 130.212 30.004C130.5 30.892 130.776 31.672 131.04 32.344C131.304 33.04 131.46 33.412 131.508 33.46C131.844 33.868 132.168 33.592 132.48 32.632C132.624 32.176 132.756 31.744 132.876 31.336C133.572 29.152 134.04 27.592 134.28 26.656C134.424 26.128 134.52 25.72 134.568 25.432C134.616 25.168 134.604 24.964 134.532 24.82C134.46 24.676 134.28 24.484 133.992 24.244C133.728 23.98 133.56 23.728 133.488 23.488C133.44 23.248 133.5 23.092 133.668 23.02C133.716 22.996 133.788 22.972 133.884 22.948C134.388 22.924 135.36 22.9 136.8 22.876C137.736 22.876 138.396 22.912 138.78 22.984C139.068 23.032 139.26 23.128 139.356 23.272C139.38 23.32 139.404 23.392 139.428 23.488ZM154.773 25.288C156.765 27.184 157.821 29.536 157.941 32.344C158.085 35.152 157.257 37.6 155.457 39.688C153.657 41.752 151.413 42.844 148.725 42.964C146.061 43.084 143.733 42.196 141.741 40.3C139.773 38.404 138.717 36.052 138.573 33.244C138.453 30.436 139.281 28 141.057 25.936C142.857 23.848 145.089 22.744 147.753 22.624C150.441 22.504 152.781 23.392 154.773 25.288ZM147.789 37.852C148.893 36.844 149.877 35.476 150.741 33.748C151.605 31.996 152.109 30.388 152.253 28.924C152.421 27.436 152.169 26.524 151.497 26.188C150.849 25.852 149.973 26.188 148.869 27.196C147.789 28.204 146.805 29.584 145.917 31.336C145.053 33.088 144.549 34.708 144.405 36.196C144.261 37.66 144.513 38.56 145.161 38.896C145.833 39.208 146.709 38.86 147.789 37.852ZM182.567 21.184C181.871 21.04 181.331 20.74 180.947 20.284C180.563 19.804 180.383 19.288 180.407 18.736C180.431 18.184 180.551 17.644 180.767 17.116C181.319 15.988 182.207 15.388 183.431 15.316C184.655 15.244 185.627 15.712 186.347 16.72C186.899 17.512 186.959 18.472 186.527 19.6C186.119 20.704 185.243 21.28 183.899 21.328C183.491 21.328 183.047 21.28 182.567 21.184ZM186.131 22.876C186.467 22.756 186.731 22.768 186.923 22.912C187.139 23.056 187.247 23.32 187.247 23.704C187.103 32.728 187.019 37.768 186.995 38.824C186.995 38.92 186.983 39.232 186.959 39.76C186.935 40.288 186.923 40.636 186.923 40.804C186.923 40.948 186.911 41.248 186.887 41.704C186.863 42.16 186.839 42.508 186.815 42.748C186.791 42.988 186.755 43.288 186.707 43.648C186.683 44.008 186.635 44.344 186.563 44.656C186.515 44.968 186.455 45.28 186.383 45.592C185.999 47.128 185.327 48.424 184.367 49.48C183.191 50.776 181.595 51.496 179.579 51.64C177.587 51.808 175.931 51.316 174.611 50.164C174.107 49.708 173.699 49.192 173.387 48.616C173.099 48.04 172.967 47.416 172.991 46.744C173.039 46.096 173.303 45.532 173.783 45.052C174.647 44.188 175.595 43.96 176.627 44.368C177.659 44.8 178.259 45.496 178.427 46.456C178.595 47.44 178.235 48.352 177.347 49.192C178.523 48.904 179.435 48.412 180.083 47.716C180.635 47.092 181.031 46.084 181.271 44.692C181.463 43.54 181.583 42.628 181.631 41.956C181.631 41.572 181.619 40.636 181.595 39.148C181.595 37.876 181.559 36.7 181.487 35.62C181.391 34.204 181.271 32.8 181.127 31.408C180.983 30.16 180.899 29.464 180.875 29.32C180.851 29.224 180.803 29.068 180.731 28.852C180.683 28.636 180.647 28.456 180.623 28.312C180.599 28.168 180.599 28.012 180.623 27.844C180.671 27.436 180.995 26.968 181.595 26.44C181.883 26.224 182.303 25.888 182.855 25.432C183.407 24.976 183.827 24.628 184.115 24.388C184.187 24.316 184.367 24.148 184.655 23.884C184.967 23.62 185.231 23.416 185.447 23.272C185.687 23.104 185.915 22.972 186.131 22.876ZM206.383 25.288C208.375 27.184 209.431 29.536 209.551 32.344C209.695 35.152 208.867 37.6 207.067 39.688C205.267 41.752 203.023 42.844 200.335 42.964C197.671 43.084 195.343 42.196 193.351 40.3C191.383 38.404 190.327 36.052 190.183 33.244C190.063 30.436 190.891 28 192.667 25.936C194.467 23.848 196.699 22.744 199.363 22.624C202.051 22.504 204.391 23.392 206.383 25.288ZM199.399 37.852C200.503 36.844 201.487 35.476 202.351 33.748C203.215 31.996 203.719 30.388 203.863 28.924C204.031 27.436 203.779 26.524 203.107 26.188C202.459 25.852 201.583 26.188 200.479 27.196C199.399 28.204 198.415 29.584 197.527 31.336C196.663 33.088 196.159 34.708 196.015 36.196C195.871 37.66 196.123 38.56 196.771 38.896C197.443 39.208 198.319 38.86 199.399 37.852ZM228.537 40.876C229.857 41.14 230.961 41.692 231.849 42.532C232.761 43.372 233.409 44.452 233.793 45.772C234.321 47.668 234.081 49.456 233.073 51.136C232.089 52.84 230.673 54.184 228.825 55.168C227.169 56.032 225.333 56.548 223.317 56.716C221.301 56.884 219.393 56.728 217.593 56.248C215.673 55.768 214.281 55 213.417 53.944C212.241 52.528 211.833 51.088 212.193 49.624C212.361 48.952 212.709 48.388 213.237 47.932C213.741 47.524 214.329 47.272 215.001 47.176C215.673 47.104 216.285 47.248 216.837 47.608C217.389 47.968 217.701 48.508 217.773 49.228C217.821 49.876 218.061 50.44 218.493 50.92C218.949 51.4 219.501 51.772 220.149 52.036C220.701 52.276 221.337 52.432 222.057 52.504C222.801 52.576 223.533 52.564 224.253 52.468C224.973 52.372 225.597 52.108 226.125 51.676C226.677 51.244 227.013 50.668 227.133 49.948C227.229 49.108 227.049 48.316 226.593 47.572C226.137 46.852 225.477 46.312 224.613 45.952C224.421 45.856 224.217 45.772 224.001 45.7C223.809 45.652 223.593 45.604 223.353 45.556C223.113 45.532 222.909 45.508 222.741 45.484C222.597 45.46 222.381 45.436 222.093 45.412C221.805 45.412 221.601 45.4 221.481 45.376C221.385 45.376 221.169 45.376 220.833 45.376C220.497 45.376 220.281 45.376 220.185 45.376C218.865 45.352 217.689 45.232 216.657 45.016C215.649 44.8 214.797 44.356 214.101 43.684C213.333 42.964 212.889 42.1 212.769 41.092C212.673 40.06 212.937 39.112 213.561 38.248C213.585 38.2 213.957 37.756 214.677 36.916C214.557 36.724 214.353 36.448 214.065 36.088C213.801 35.704 213.573 35.368 213.381 35.08C213.189 34.768 213.033 34.468 212.913 34.18C212.337 32.956 212.097 31.72 212.193 30.472C212.313 29.2 212.637 28.036 213.165 26.98C213.717 25.9 214.521 24.976 215.577 24.208C216.657 23.416 217.881 22.9 219.249 22.66C219.945 22.54 221.529 22.456 224.001 22.408C224.289 22.408 224.493 22.36 224.613 22.264C224.757 22.168 224.865 21.988 224.937 21.724C225.153 20.956 225.465 20.212 225.873 19.492C226.353 18.556 227.121 17.944 228.177 17.656C229.257 17.344 230.325 17.38 231.381 17.764C232.437 18.148 233.217 18.796 233.721 19.708C233.985 20.188 234.093 20.716 234.045 21.292C233.997 21.868 233.793 22.36 233.433 22.768C232.977 23.272 232.437 23.596 231.813 23.74C231.189 23.86 230.565 23.764 229.941 23.452C229.317 23.116 228.741 23.104 228.213 23.416C228.357 23.536 228.561 23.692 228.825 23.884C229.089 24.076 229.293 24.232 229.437 24.352C229.581 24.472 229.761 24.628 229.977 24.82C230.193 25.012 230.373 25.204 230.517 25.396C231.141 26.116 231.633 26.92 231.993 27.808C232.689 29.608 232.797 31.42 232.317 33.244C231.957 34.612 231.237 35.776 230.157 36.736C229.077 37.696 227.841 38.38 226.449 38.788C225.081 39.172 223.653 39.352 222.165 39.328C220.677 39.304 219.321 39.064 218.097 38.608C217.665 38.416 217.197 38.404 216.693 38.572C216.189 38.716 215.913 39.064 215.865 39.616C215.793 40.36 216.093 40.912 216.765 41.272C217.437 41.632 218.169 41.788 218.961 41.74C219.489 41.692 220.269 41.524 221.301 41.236C222.333 40.948 223.113 40.792 223.641 40.768C225.777 40.6 227.409 40.636 228.537 40.876ZM222.345 26.656C221.505 27.304 220.773 28.24 220.149 29.464C219.549 30.688 219.237 31.84 219.213 32.92C219.213 34 219.501 34.696 220.077 35.008C220.677 35.296 221.397 35.116 222.237 34.468C223.101 33.796 223.833 32.848 224.433 31.624C225.057 30.4 225.381 29.248 225.405 28.168C225.429 27.088 225.141 26.404 224.541 26.116C223.941 25.804 223.209 25.984 222.345 26.656ZM251.031 25.288C253.023 27.184 254.079 29.536 254.199 32.344C254.343 35.152 253.515 37.6 251.715 39.688C249.915 41.752 247.671 42.844 244.983 42.964C242.319 43.084 239.991 42.196 237.999 40.3C236.031 38.404 234.975 36.052 234.831 33.244C234.711 30.436 235.539 28 237.315 25.936C239.115 23.848 241.347 22.744 244.011 22.624C246.699 22.504 249.039 23.392 251.031 25.288ZM244.047 37.852C245.151 36.844 246.135 35.476 246.999 33.748C247.863 31.996 248.367 30.388 248.511 28.924C248.679 27.436 248.427 26.524 247.755 26.188C247.107 25.852 246.231 26.188 245.127 27.196C244.047 28.204 243.063 29.584 242.175 31.336C241.311 33.088 240.807 34.708 240.663 36.196C240.519 37.66 240.771 38.56 241.419 38.896C242.091 39.208 242.967 38.86 244.047 37.852Z" fill="#FDDFFC"/>
</g>
<g clip-path="url(#clip0_73_67)">
<path d="M285.048 15.9423C285.396 12.3793 281.339 10.4462 278.299 11.6592C275.278 12.8658 273.995 17.1362 275.291 19.979C275.948 21.4257 276.909 22.7207 278.198 23.6683C280.037 25.0202 282.337 25.3487 284.562 25.0771C286.527 24.8433 288.48 24.18 290.135 23.0934C295.981 19.2589 294.9 10.9579 290.906 6.14417C284.732 -1.29128 271.746 1.94949 268.371 10.5473C266.804 14.5335 266.52 18.9683 267.821 23.0808C269.224 27.4966 272.517 30.889 275.904 33.9023C279.854 37.4147 284.53 40.6997 289.623 42.2917C291.747 42.955 293.965 43.3909 296.145 43.8205C301.674 44.926 307.267 45.6904 312.872 46.2526C316.209 46.5874 319.603 46.6569 322.895 47.3518C326.92 48.1984 331.489 49.8345 333.701 53.5617C336.494 58.2681 335.009 64.4338 331.268 68.1547C328.677 70.7321 325.233 72.0208 321.637 71.8187C319.116 71.6734 316.291 70.5931 314.636 68.6095C313.207 66.8975 312.259 64.3769 312.108 62.1785C311.95 59.8222 312.809 57.3142 314.503 55.6528C315.394 54.781 316.5 54.1935 317.719 53.9281C318.238 53.8144 318.787 53.7513 319.312 53.7576C319.495 53.7576 319.173 53.7386 319.325 53.7576C319.445 53.7765 319.565 53.8018 319.678 53.8207C321.378 54.1619 323.205 54.8694 324.279 56.3034C325.6 58.0723 325.518 61.2878 324.014 62.9366C322.762 64.3074 320.791 64.4022 319.116 63.8652C318.465 63.6568 316.967 64.6044 318.016 64.9455C320.013 65.5898 322.301 65.4319 324.14 64.3896C326.112 63.2651 327.066 61.2183 326.99 58.982C326.908 56.5561 325.789 54.7747 323.603 53.6944C322.484 53.1385 321.113 52.6457 319.849 52.6141C314.661 52.4688 310.294 56.6762 310.237 61.8374C310.212 64.4085 311.242 66.9165 312.677 69.0138C313.953 70.8837 316.456 72.1093 318.604 72.6273C327.243 74.712 336.975 67.9651 336.981 58.824C336.981 56.3477 336.261 53.8144 334.712 51.8497C333.373 50.1567 331.496 48.9312 329.543 48.0467C326.289 46.5748 322.68 45.842 319.129 45.583C310.187 44.926 301.188 43.871 292.473 41.6852C289.345 40.9019 286.464 39.5058 283.734 37.7875C279.424 35.0773 275.405 31.6092 272.258 27.5914C269.111 23.5736 268.156 18.0586 269.332 13.0869C269.464 12.5309 269.622 11.975 269.818 11.4381C269.869 11.2991 269.818 11.4254 269.806 11.457C269.9 11.1854 269.995 10.9074 270.096 10.6358C270.349 9.95981 270.671 9.30913 271.044 8.69003C272.289 6.6306 274.179 5.08286 276.384 4.15422C280.296 2.50541 284.934 2.78337 288.138 5.75249C289.901 7.38867 291.273 9.63131 291.879 11.9687C292.853 15.6896 292.537 20.0169 289.111 22.3543C288.094 23.0492 287.102 23.4409 286.009 23.7252C285.806 23.7757 285.611 23.8199 285.408 23.8642C285.13 23.921 285.585 23.8389 285.332 23.8768C285.257 23.8894 285.187 23.9021 285.111 23.9147C284.783 23.9589 284.454 24.0031 284.125 24.0221C280.662 24.2495 277.8 21.8047 276.776 18.6082C276.327 17.2057 276.776 15.4622 277.446 14.205C277.882 13.3838 278.526 12.4994 279.538 12.4867C280.549 12.4741 281.655 12.7584 282.362 13.5417C282.988 14.2303 283.298 15.3106 283.215 16.1444C283.133 16.9783 284.991 16.6435 285.054 15.9486L285.048 15.9423Z" fill="#03023E"/>
</g>
<g clip-path="url(#clip1_73_67)">
<path d="M15.7908 60.8214C12.5232 61.0728 11.422 65.0324 12.9966 67.5774C14.5625 70.1064 18.6161 70.585 20.9744 68.9681C22.1748 68.1471 23.1906 67.077 23.8411 65.766C24.7691 63.8959 24.7014 61.7725 24.1045 59.8124C23.5828 58.0797 22.6758 56.4264 21.4341 55.1076C17.0517 50.4513 9.73787 52.7394 6.02925 57.0984C0.301638 63.836 5.27836 75.0168 13.5648 76.6935C17.407 77.4732 21.4507 77.0268 24.953 75.203C28.7127 73.2401 31.2506 69.7379 33.4318 66.2104C35.974 62.0974 38.1962 57.3659 38.8258 52.5271C39.0879 50.51 39.1301 48.4436 39.1725 46.4123C39.2945 41.2579 39.0989 36.1006 38.719 30.964C38.4931 27.9063 38.0188 24.8395 38.1245 21.7646C38.2509 18.0056 39.0034 13.6321 42.0142 11.05C45.816 7.78915 51.6104 8.14968 55.5573 10.929C58.2913 12.8539 59.9982 15.7511 60.3848 19.021C60.6527 21.3146 60.1256 24.0294 58.5989 25.8346C57.2812 27.3919 55.1584 28.6448 53.2001 29.1296C51.1004 29.6452 48.7031 29.2686 46.937 28.0067C46.01 27.3424 45.3053 26.4396 44.8731 25.3834C44.6886 24.9348 44.5446 24.4497 44.4673 23.9764C44.4383 23.8114 44.4722 24.1046 44.4653 23.965C44.4634 23.8539 44.4672 23.7418 44.4663 23.6363C44.5049 22.0515 44.854 20.2949 45.977 19.1003C47.363 17.6307 50.2754 17.1953 52 18.2885C53.4341 19.198 53.8314 20.9585 53.6122 22.5515C53.5272 23.1707 54.6186 24.3692 54.7602 23.3706C55.0253 21.4703 54.521 19.4353 53.2902 17.9445C51.9643 16.3472 49.9678 15.8121 47.9633 16.2347C45.789 16.693 44.3596 17.9824 43.7315 20.1225C43.4072 21.2178 43.1799 22.5307 43.3513 23.6738C44.0412 28.3688 48.5257 31.6345 53.1884 30.8681C55.5108 30.4835 57.6092 29.1586 59.2734 27.5346C60.7575 26.0889 61.4666 23.6413 61.5938 21.6244C62.1068 13.5151 54.4836 5.82047 46.2402 7.26291C44.0073 7.65522 41.8371 8.70525 40.3106 10.4107C38.996 11.8853 38.1878 13.7696 37.6993 15.668C36.887 18.8319 36.7971 22.1973 37.1255 25.4364C37.9478 33.5927 38.4202 41.8632 37.828 50.0568C37.6166 52.9977 36.8137 55.8138 35.6962 58.5443C33.9344 62.8546 31.4431 67.0233 28.3182 70.4937C25.1933 73.9641 20.3715 75.697 15.7027 75.4262C15.1804 75.3948 14.6541 75.3406 14.139 75.2492C14.0057 75.2257 14.1276 75.2512 14.1581 75.2576C13.8981 75.2153 13.6325 75.1739 13.3716 75.1259C12.7221 75.0054 12.0844 74.8183 11.4672 74.5806C9.41325 73.7858 7.71875 72.3295 6.53248 70.4906C4.4269 67.2293 3.94368 63.0084 6.114 59.6529C7.31036 57.8061 9.11556 56.2159 11.1272 55.2993C14.3282 53.8335 18.2801 53.4325 20.9296 56.1465C21.7172 56.9526 22.2273 57.784 22.6566 58.7234C22.7341 58.8975 22.805 59.0669 22.8769 59.242C22.9721 59.4834 22.8261 59.0867 22.9003 59.3083C22.9237 59.3746 22.946 59.4352 22.9694 59.5015C23.0613 59.7904 23.1532 60.0793 23.2222 60.3722C23.9752 63.4546 22.2237 66.4197 19.5034 67.848C18.3098 68.4742 16.6667 68.3464 15.4271 67.9423C14.6177 67.6798 13.7182 67.2395 13.5469 66.331C13.3755 65.4225 13.4569 64.3816 14.0512 63.6202C14.5731 62.9477 15.4982 62.4977 16.2631 62.4396C17.028 62.3815 16.4321 60.7615 15.7955 60.8147L15.7908 60.8214Z" fill="#03023E"/>
</g>
<defs>
<filter id="filter0_d_73_67" x="13" y="0" width="309" height="81" filterUnits="userSpaceOnUse" color-interpolation-filters="sRGB">
<feFlood flood-opacity="0" result="BackgroundImageFix"/>
<feColorMatrix in="SourceAlpha" type="matrix" values="0 0 0 0 0 0 0 0 0 0 0 0 0 0 0 0 0 0 127 0" result="hardAlpha"/>
<feOffset dy="4"/>
<feGaussianBlur stdDeviation="2"/>
<feComposite in2="hardAlpha" operator="out"/>
<feColorMatrix type="matrix" values="0 0 0 0 0 0 0 0 0 0 0 0 0 0 0 0 0 0 0.25 0"/>
<feBlend mode="normal" in2="BackgroundImageFix" result="effect1_dropShadow_73_67"/>
<feBlend mode="normal" in="SourceGraphic" in2="effect1_dropShadow_73_67" result="shape"/>
</filter>
<clipPath id="clip0_73_67">
<rect width="70" height="71" fill="white" transform="translate(272 33)"/>
</clipPath>
<clipPath id="clip1_73_67">
<rect width="64" height="65" fill="white" transform="translate(11.0748 110.282) rotate(-99.9648)"/>
</clipPath>
</defs>
</svg>
