<svg width="327" height="96" viewBox="0 0 327 96" fill="none" xmlns="http://www.w3.org/2000/svg">
<g filter="url(#filter0_d_75_77)">
<rect x="18" y="8" width="301" height="74" rx="37" fill="#03023E" shape-rendering="crispEdges"/>
<path d="M143.26 51.356C141.1 51.212 139.336 50.672 137.968 49.736C137.224 49.208 136.672 48.512 136.312 47.648C135.952 46.76 135.916 45.884 136.204 45.02C136.396 44.396 136.816 43.88 137.464 43.472C138.112 43.064 138.796 42.848 139.516 42.824C140.236 42.8 140.908 42.896 141.532 43.112C142.324 43.472 142.804 44.06 142.972 44.876C143.02 45.092 143.008 45.356 142.936 45.668C142.888 45.956 142.816 46.22 142.72 46.46C142.648 46.676 142.624 46.916 142.648 47.18C142.696 47.444 142.828 47.684 143.044 47.9C143.356 48.188 143.812 48.356 144.412 48.404C145.036 48.452 145.576 48.356 146.032 48.116C146.656 47.78 146.992 47.276 147.04 46.604C147.112 45.932 146.98 45.296 146.644 44.696C146.308 44.072 145.888 43.592 145.384 43.256C145.12 43.088 144.832 42.92 144.52 42.752C144.208 42.584 143.848 42.404 143.44 42.212C143.032 42.02 142.732 41.876 142.54 41.78C139.684 40.292 137.74 38.636 136.708 36.812C136.108 35.732 135.856 34.484 135.952 33.068C136.072 31.652 136.492 30.452 137.212 29.468C138.028 28.364 139.132 27.536 140.524 26.984C141.916 26.432 143.356 26.216 144.844 26.336C146.332 26.432 147.652 26.828 148.804 27.524C150.772 28.7 151.66 30.212 151.468 32.06C151.42 32.66 151.204 33.2 150.82 33.68C150.436 34.16 149.956 34.484 149.38 34.652C148.828 34.844 148.204 34.904 147.508 34.832C146.836 34.76 146.284 34.532 145.852 34.148C145.084 33.5 144.76 32.42 144.88 30.908C144.952 30.212 144.796 29.744 144.412 29.504C144.268 29.408 144.076 29.348 143.836 29.324C143.092 29.276 142.552 29.528 142.216 30.08C141.808 30.728 141.832 31.496 142.288 32.384C142.72 33.128 143.296 33.764 144.016 34.292C144.52 34.628 145.252 35.084 146.212 35.66C147.196 36.212 147.796 36.56 148.012 36.704C149.308 37.496 150.388 38.492 151.252 39.692C152.14 40.868 152.692 42.176 152.908 43.616C153.124 45.032 152.74 46.412 151.756 47.756C150.844 49.028 149.692 49.928 148.3 50.456C146.308 51.224 144.628 51.524 143.26 51.356ZM180.846 53.588C181.326 54.068 181.578 54.632 181.602 55.28C181.65 55.952 181.518 56.576 181.206 57.152C180.918 57.728 180.522 58.244 180.018 58.7C178.698 59.852 177.03 60.344 175.014 60.176C173.022 60.032 171.438 59.312 170.262 58.016C169.278 56.936 168.594 55.508 168.21 53.732C168.138 53.444 168.03 52.652 167.886 51.356C167.814 50.828 167.766 50.324 167.742 49.844C167.742 49.82 167.73 49.7 167.706 49.484C167.706 49.244 167.706 49.052 167.706 48.908C167.706 48.74 167.73 48.62 167.778 48.548C167.394 49.22 166.866 49.772 166.194 50.204C164.274 51.428 161.934 51.68 159.174 50.96C157.974 50.648 157.038 50.012 156.366 49.052C155.694 48.068 155.37 46.952 155.394 45.704C155.418 43.952 156.054 42.5 157.302 41.348C158.574 40.196 160.086 39.596 161.838 39.548C162.63 39.524 163.398 39.608 164.142 39.8C164.718 39.944 165.174 40.112 165.51 40.304C166.206 40.688 166.554 40.976 166.554 41.168C166.65 40.088 166.65 39.008 166.554 37.928C166.458 36.56 166.254 35.612 165.942 35.084C165.606 34.508 165.162 34.184 164.61 34.112C164.322 34.088 164.01 34.124 163.674 34.22C163.338 34.316 163.086 34.472 162.918 34.688C162.822 34.832 162.738 35.012 162.666 35.228C162.618 35.42 162.594 35.576 162.594 35.696C162.594 35.816 162.594 36.02 162.594 36.308C162.618 36.596 162.63 36.764 162.63 36.812C162.63 37.1 162.606 37.316 162.558 37.46C162.462 37.892 162.21 38.24 161.802 38.504C160.986 39.056 160.098 39.164 159.138 38.828C158.202 38.492 157.662 37.832 157.518 36.848C157.35 35.6 157.806 34.472 158.886 33.464C159.99 32.456 161.214 31.796 162.558 31.484C164.358 31.052 166.098 31.076 167.778 31.556C169.89 32.204 171.354 33.32 172.17 34.904C172.29 35.168 172.398 35.468 172.494 35.804C172.59 36.116 172.662 36.392 172.71 36.632C172.758 36.848 172.782 37.172 172.782 37.604C172.806 38.036 172.818 38.336 172.818 38.504C172.818 38.672 172.818 39.008 172.818 39.512C172.818 39.992 172.818 40.28 172.818 40.376C172.746 42.248 172.734 44.396 172.782 46.82C172.854 49.244 173.046 51.38 173.358 53.228C173.598 54.62 174.006 55.628 174.582 56.252C175.206 56.948 176.106 57.44 177.282 57.728C176.322 56.984 175.962 56.072 176.202 54.992C176.466 53.936 177.066 53.252 178.002 52.94C178.938 52.628 179.886 52.844 180.846 53.588ZM161.514 47.936C162.114 47.48 162.618 46.832 163.026 45.992C163.458 45.128 163.674 44.324 163.674 43.58C163.698 42.836 163.506 42.368 163.098 42.176C162.69 41.96 162.186 42.08 161.586 42.536C161.01 42.992 160.506 43.652 160.074 44.516C159.642 45.356 159.414 46.148 159.39 46.892C159.39 47.636 159.594 48.116 160.002 48.332C160.434 48.524 160.938 48.392 161.514 47.936ZM183.247 50.6C183.271 50.864 183.223 51.092 183.103 51.284C183.007 51.452 182.839 51.536 182.599 51.536C181.975 51.56 181.003 51.572 179.683 51.572C178.387 51.596 177.391 51.62 176.695 51.644C176.647 51.644 176.527 51.656 176.335 51.68C176.167 51.704 176.035 51.704 175.938 51.68C175.867 51.68 175.771 51.656 175.651 51.608C175.555 51.56 175.483 51.476 175.435 51.356C175.315 51.068 175.399 50.54 175.687 49.772C176.287 48.14 176.563 45.74 176.515 42.572C176.515 41.108 176.443 39.98 176.299 39.188C176.179 38.468 176.035 37.928 175.867 37.568C175.819 37.496 175.759 37.388 175.687 37.244C175.639 37.1 175.591 36.992 175.543 36.92C175.495 36.824 175.447 36.716 175.399 36.596C175.375 36.452 175.375 36.32 175.399 36.2C175.399 35.888 175.519 35.576 175.759 35.264C176.023 34.952 176.287 34.712 176.551 34.544C176.815 34.376 177.175 34.16 177.631 33.896C178.111 33.608 178.399 33.44 178.495 33.392C178.711 33.248 179.071 32.936 179.575 32.456C180.079 31.976 180.499 31.676 180.835 31.556C181.219 31.388 181.543 31.4 181.807 31.592C182.095 31.784 182.275 32.096 182.347 32.528C182.443 33.056 182.491 33.656 182.491 34.328C182.515 34.976 182.515 35.492 182.491 35.876C182.491 36.26 182.467 36.896 182.419 37.784C182.371 38.648 182.335 39.188 182.311 39.404C182.311 39.524 182.311 39.656 182.311 39.8C182.167 41.24 182.131 42.908 182.203 44.804C182.275 46.676 182.551 48.308 183.031 49.7C183.175 50.132 183.247 50.432 183.247 50.6ZM178.891 30.224C177.379 30.2 176.359 29.72 175.831 28.784C175.375 27.92 175.399 26.984 175.903 25.976C176.479 24.872 177.367 24.284 178.567 24.212C179.791 24.116 180.763 24.584 181.483 25.616C182.035 26.384 182.107 27.332 181.699 28.46C181.243 29.612 180.367 30.2 179.071 30.224C178.999 30.224 178.939 30.224 178.891 30.224ZM200.994 33.752C201.282 35.912 200.718 37.4 199.302 38.216C197.862 39.056 196.758 38.816 195.99 37.496C195.942 37.4 195.87 37.304 195.774 37.208C195.15 36.368 194.49 36.068 193.794 36.308C193.65 36.356 193.518 36.416 193.398 36.488C193.278 36.536 193.17 36.62 193.074 36.74C193.002 36.836 192.93 36.932 192.858 37.028C192.81 37.1 192.762 37.22 192.714 37.388C192.69 37.532 192.666 37.64 192.642 37.712C192.618 37.784 192.594 37.916 192.57 38.108C192.57 38.3 192.57 38.432 192.57 38.504C192.57 38.576 192.57 38.72 192.57 38.936C192.57 39.128 192.57 39.248 192.57 39.296C192.546 41.6 192.546 43.232 192.57 44.192C192.57 44.336 192.558 44.828 192.534 45.668C192.534 46.508 192.534 47.096 192.534 47.432C192.558 47.744 192.606 48.2 192.678 48.8C192.75 49.4 192.87 49.928 193.038 50.384C193.23 50.912 193.218 51.248 193.002 51.392C192.858 51.464 192.642 51.5 192.354 51.5C190.962 51.524 189.918 51.536 189.222 51.536C187.326 51.536 186.378 51.536 186.378 51.536C185.946 51.488 185.79 51.26 185.91 50.852C186.078 50.348 186.21 49.832 186.306 49.304C186.426 48.776 186.498 48.212 186.522 47.612C186.57 46.988 186.594 46.472 186.594 46.064C186.618 45.656 186.618 45.08 186.594 44.336C186.594 43.592 186.594 43.064 186.594 42.752C186.618 41.288 186.606 40.304 186.558 39.8C186.462 38.504 186.318 37.544 186.126 36.92C185.862 36.056 186.066 35.324 186.738 34.724C187.89 33.74 189.078 32.78 190.302 31.844C190.662 31.58 191.106 31.4 191.634 31.304C191.97 31.232 192.222 31.28 192.39 31.448C192.582 31.616 192.678 31.88 192.678 32.24C192.678 32.336 192.678 32.936 192.678 34.04C194.07 33.032 194.814 32.492 194.91 32.42C196.062 31.724 197.118 31.364 198.078 31.34C198.774 31.34 199.41 31.568 199.986 32.024C200.562 32.456 200.898 33.032 200.994 33.752Z" fill="#FDDFFC"/>
</g>
<g clip-path="url(#clip0_75_77)">
<path d="M270.766 48.0195C270.766 48.0195 270.663 48.3875 270.789 47.9433C270.857 47.7021 270.913 47.4487 270.994 47.2072C271.237 46.4951 271.592 45.7168 272.233 45.2699C273.245 44.5729 274.326 44.969 275.25 45.5712C277.445 46.9918 276.999 49.3714 275.936 51.3286C274.265 54.424 270.958 55.818 267.541 54.7733C264.124 53.7286 261.148 50.1282 260.343 46.7156C259.178 41.7905 262.287 35.8079 265.983 32.6779C267.346 31.5175 269.1 30.7861 270.782 30.2078C273.549 29.2703 276.506 28.8306 279.414 29.2484C283.509 29.8325 286.842 32.3021 289.009 35.7753C289.656 36.8135 290.167 37.9187 290.666 39.0369C290.895 39.5336 290.596 38.8124 290.693 39.1116C291.077 40.1576 291.41 41.2052 291.693 42.2793C293.049 47.2869 293.644 52.5183 293.91 57.6839C294.263 64.5588 293.677 71.5621 295.499 78.2805C296.332 81.3398 297.746 84.4702 299.536 87.1363C301.669 90.3209 304.742 92.924 308.485 93.9339C313.179 95.1927 318.575 93.7623 321.906 90.19C324.614 87.2654 326.193 83.1782 325.823 79.1738C325.566 76.4247 324.092 73.8248 322.209 71.8537C319.547 69.0875 316.094 68.5473 312.497 69.5093C307.977 70.7251 304.304 74.66 304.938 79.5252C305.526 84.1023 310.07 89.2047 315.055 88.3654C318.7 87.7544 321.312 83.7249 321.056 80.1577C320.927 78.3237 320.112 76.7491 318.548 75.7631C317.765 75.2701 317.203 76.2559 317.134 76.8999C317.035 77.8343 317.516 78.7641 318.298 79.2446C318.529 79.3888 318.518 79.4521 318.489 79.7676C318.424 80.5374 318.205 81.2235 317.822 81.902C316.985 83.3994 315.486 84.6394 313.715 84.7671C311.366 84.9371 308.857 83.0726 307.89 81.0242C306.829 78.752 307.949 76.6294 309.717 75.1172C312.296 72.9139 316.689 71.6514 319.689 73.5015C320.958 74.2822 321.939 75.512 322.632 76.8133C322.819 77.1728 322.993 77.5453 323.155 77.9181C323.047 77.657 323.065 77.4047 323.116 77.8564C323.15 78.1826 323.261 78.5192 323.284 78.8584C323.999 88.1646 312.227 93.6474 304.945 88.7264C302.608 87.1464 301.069 84.926 299.839 82.4825C299.786 82.3834 299.745 82.2713 299.704 82.1718C300.148 83.1406 299.558 81.9118 299.424 81.6263C298.632 79.9629 298.004 78.2947 297.598 76.4941C296.861 73.2431 296.736 69.8733 296.676 66.5646C296.513 57.1918 296.423 47.2881 293.051 38.375C290.404 31.4166 284.818 25.552 276.985 25.4179C272.476 25.3368 266.967 26.7706 263.626 29.9908C260.016 33.4833 257.551 38.6916 257.524 43.74C257.496 48.7884 260.25 53.8176 264.349 56.6674C266.907 58.4549 270.069 59.3939 273.161 58.3838C276.253 57.3738 278.027 54.7914 278.963 51.9568C280.027 48.7534 279.291 45.1373 276.67 42.9111C274.346 40.9405 271.071 40.4328 269.296 43.4306C268.697 44.4553 268.341 45.6238 268.175 46.7994C267.924 48.5312 270.397 50.4597 270.753 48.0198L270.766 48.0195Z" fill="#03023E"/>
</g>
<g clip-path="url(#clip1_75_77)">
<path d="M49.7523 39.1136C49.7523 39.1136 49.7821 38.8114 49.7448 39.1764C49.7242 39.3746 49.7155 39.5806 49.6851 39.7808C49.5921 40.3716 49.4209 41.0294 48.9799 41.4671C48.2833 42.1512 47.3823 41.9892 46.5764 41.6442C44.664 40.8323 44.6875 38.9083 45.2515 37.2305C46.1361 34.5784 48.5345 33.0343 51.3525 33.3846C54.1706 33.7349 56.9934 36.1463 58.0911 38.7079C59.6772 42.4044 58.062 47.5137 55.5963 50.4702C54.688 51.5653 53.4155 52.3779 52.1775 53.0609C50.1397 54.1735 47.8843 54.9226 45.5508 54.9934C42.2644 55.0966 39.317 53.6193 37.1452 51.1967C36.4963 50.4724 35.945 49.6771 35.4015 48.8699C35.1545 48.5123 35.4867 49.0362 35.3699 48.8151C34.9266 48.0486 34.5226 47.2741 34.1536 46.4719C32.4066 42.737 31.2249 38.7226 30.31 34.7148C29.0921 29.3807 28.5927 23.8174 26.2469 18.8069C25.1761 16.5257 23.6406 14.2684 21.8739 12.4262C19.768 10.2248 17.0062 8.6073 13.9374 8.32893C10.0898 7.98592 6.06127 9.8443 3.94228 13.097C2.22229 15.7574 1.54562 19.1734 2.38324 22.2579C2.96093 24.375 4.47068 26.2088 6.21491 27.4942C8.67763 29.2956 11.4544 29.246 14.1387 28.0006C17.5117 26.4299 19.8487 22.8466 18.6861 19.1243C17.5993 15.6214 13.3438 12.2485 9.55577 13.5879C6.78572 14.5651 5.29173 18.0774 5.98058 20.8352C6.33305 22.2533 7.18605 23.3746 8.54607 23.9324C9.22608 24.2113 9.53157 23.3625 9.49755 22.8489C9.44664 22.1039 8.94313 21.4416 8.26514 21.1725C8.06468 21.0912 8.06441 21.0402 8.04351 20.7893C7.98937 20.1777 8.06686 19.6105 8.2737 19.027C8.72403 17.7401 9.72799 16.5641 11.0971 16.2216C12.9128 15.7671 15.1327 16.8834 16.1699 18.3548C17.3119 19.9885 16.725 21.8036 15.5478 23.2296C13.8307 25.3075 10.5637 26.8972 7.96175 25.8594C6.86123 25.4218 5.9254 24.5931 5.20481 23.6692C5.00934 23.4133 4.82164 23.1456 4.64375 22.8758C4.76436 23.0655 4.785 23.2654 4.68319 22.9188C4.6113 22.6681 4.47862 22.4197 4.41451 22.1573C2.58105 14.9691 11.0465 9.06553 17.4214 11.9215C19.4677 12.8386 20.9758 14.3665 22.2733 16.1111C22.3286 16.1815 22.3761 16.2636 22.4216 16.3359C21.9414 15.6382 22.5716 16.5195 22.7158 16.7247C23.5633 17.9186 24.2834 19.1387 24.8474 20.4929C25.87 22.9372 26.4287 25.5584 26.9284 28.1406C28.3389 35.4564 29.7653 43.1977 33.6251 49.7145C36.65 54.8 41.8256 58.6271 47.9768 57.6599C51.5178 57.1063 55.6345 55.2298 57.8098 52.2513C60.1584 49.0229 61.3751 44.6079 60.7056 40.6517C60.0361 36.6955 57.1917 33.1349 53.5921 31.4648C51.3451 30.4154 48.741 30.1131 46.4586 31.327C44.1761 32.541 43.1405 34.8056 42.7957 37.153C42.4014 39.8065 43.4726 42.5368 45.8292 43.9211C47.9183 45.1459 50.5519 45.095 51.5309 42.5052C51.8598 41.6209 51.9784 40.6574 51.948 39.7142C51.9075 38.3239 49.7069 37.1527 49.7621 39.1116L49.7523 39.1136Z" fill="#03023E"/>
</g>
<defs>
<filter id="filter0_d_75_77" x="14" y="8" width="309" height="82" filterUnits="userSpaceOnUse" color-interpolation-filters="sRGB">
<feFlood flood-opacity="0" result="BackgroundImageFix"/>
<feColorMatrix in="SourceAlpha" type="matrix" values="0 0 0 0 0 0 0 0 0 0 0 0 0 0 0 0 0 0 127 0" result="hardAlpha"/>
<feOffset dy="4"/>
<feGaussianBlur stdDeviation="2"/>
<feComposite in2="hardAlpha" operator="out"/>
<feColorMatrix type="matrix" values="0 0 0 0 0 0 0 0 0 0 0 0 0 0 0 0 0 0 0.25 0"/>
<feBlend mode="normal" in2="BackgroundImageFix" result="effect1_dropShadow_75_77"/>
<feBlend mode="normal" in="SourceGraphic" in2="effect1_dropShadow_75_77" result="shape"/>
</filter>
<clipPath id="clip0_75_77">
<rect width="69.9809" height="67.2506" fill="white" transform="translate(324.221 24) rotate(88.3111)"/>
</clipPath>
<clipPath id="clip1_75_77">
<rect width="55.62" height="53.45" fill="white" transform="translate(11.1887 65.2352) rotate(-101.605)"/>
</clipPath>
</defs>
</svg>
