<svg width="332" height="104" viewBox="0 0 332 104" fill="none" xmlns="http://www.w3.org/2000/svg">
<g filter="url(#filter0_d_73_74)">
<rect x="27" y="22" width="301" height="74" rx="37" fill="#03023E" shape-rendering="crispEdges"/>
<path d="M99.3398 41.92C101.26 40.648 103.42 40.024 105.82 40.048C107.884 40.072 109.756 40.696 111.436 41.92C113.116 43.144 114.124 44.74 114.46 46.708C114.724 48.196 114.604 49.588 114.1 50.884C113.596 52.18 112.696 53.104 111.4 53.656C110.968 53.848 110.428 53.956 109.78 53.98C109.156 54.004 108.544 53.884 107.944 53.62C107.344 53.332 106.912 52.936 106.648 52.432C106.096 51.448 106.372 50.02 107.476 48.148C107.5 48.1 107.584 47.968 107.728 47.752C107.872 47.512 107.968 47.344 108.016 47.248C108.088 47.128 108.172 46.96 108.268 46.744C108.388 46.504 108.46 46.312 108.484 46.168C108.532 46.024 108.568 45.856 108.592 45.664C108.616 45.472 108.592 45.304 108.52 45.16C108.472 44.992 108.4 44.824 108.304 44.656C107.944 44.2 107.428 43.936 106.756 43.864C105.844 43.744 104.98 43.972 104.164 44.548C103.18 45.244 102.4 46.204 101.824 47.428C101.272 48.628 100.996 49.852 100.996 51.1C100.996 52.348 101.2 53.56 101.608 54.736C102.136 55.984 102.964 57.052 104.092 57.94C105.244 58.828 106.492 59.38 107.836 59.596C109.18 59.788 110.512 59.584 111.832 58.984C112.504 58.672 112.996 58.348 113.308 58.012C113.452 57.868 113.668 57.604 113.956 57.22C114.244 56.836 114.484 56.548 114.676 56.356C114.82 56.236 114.976 56.176 115.144 56.176C115.312 56.176 115.456 56.248 115.576 56.392C115.624 56.488 115.648 56.644 115.648 56.86C115.6 57.94 115.324 59.008 114.82 60.064C114.316 61.096 113.656 61.996 112.84 62.764C112.432 63.148 111.952 63.508 111.4 63.844C109.048 65.212 106.504 65.62 103.768 65.068C103.168 64.972 102.592 64.816 102.04 64.6C100.024 63.856 98.3318 62.596 96.9638 60.82C95.5958 59.02 94.6958 57.016 94.2638 54.808C93.8078 52.552 93.8678 50.368 94.4438 48.256C94.7558 47.056 95.3678 45.892 96.2798 44.764C97.2158 43.612 98.2358 42.664 99.3398 41.92ZM134.223 47.788C136.215 49.684 137.271 52.036 137.391 54.844C137.535 57.652 136.707 60.1 134.907 62.188C133.107 64.252 130.863 65.344 128.175 65.464C125.511 65.584 123.183 64.696 121.191 62.8C119.223 60.904 118.167 58.552 118.023 55.744C117.903 52.936 118.731 50.5 120.507 48.436C122.307 46.348 124.539 45.244 127.203 45.124C129.891 45.004 132.231 45.892 134.223 47.788ZM127.239 60.352C128.343 59.344 129.327 57.976 130.191 56.248C131.055 54.496 131.559 52.888 131.703 51.424C131.871 49.936 131.619 49.024 130.947 48.688C130.299 48.352 129.423 48.688 128.319 49.696C127.239 50.704 126.255 52.084 125.367 53.836C124.503 55.588 123.999 57.208 123.855 58.696C123.711 60.16 123.963 61.06 124.611 61.396C125.283 61.708 126.159 61.36 127.239 60.352ZM165.787 67.696C166.291 68.176 166.555 68.74 166.579 69.388C166.627 70.06 166.495 70.684 166.183 71.26C165.895 71.836 165.499 72.352 164.995 72.808C163.675 73.96 162.007 74.452 159.991 74.284C157.999 74.14 156.403 73.42 155.203 72.124C153.931 70.732 153.163 68.848 152.899 66.472C152.611 63.928 152.455 61.372 152.431 58.804C152.431 58.276 152.431 57.772 152.431 57.292C152.431 56.788 152.419 56.272 152.395 55.744C152.395 55.192 152.371 54.676 152.323 54.196C152.299 53.716 152.239 53.212 152.143 52.684C152.047 52.156 151.927 51.652 151.783 51.172C151.591 50.596 151.255 50.08 150.775 49.624C150.319 49.144 149.803 48.868 149.227 48.796C148.675 48.7 148.135 48.928 147.607 49.48C146.935 50.176 146.431 51.16 146.095 52.432C145.447 54.952 145.279 57.604 145.591 60.388C145.711 61.588 145.975 62.896 146.383 64.312C146.575 64.984 146.551 65.38 146.311 65.5C146.215 65.548 146.071 65.584 145.879 65.608C143.791 65.632 141.883 65.608 140.155 65.536C139.699 65.512 139.435 65.38 139.363 65.14C139.339 65.02 139.339 64.9 139.363 64.78C139.411 64.66 139.459 64.516 139.507 64.348C139.579 64.156 139.627 64.036 139.651 63.988C139.795 63.508 139.915 63.004 140.011 62.476C140.203 61.54 140.335 60.532 140.407 59.452C140.671 55.996 140.575 53.224 140.119 51.136C139.975 50.752 139.903 50.32 139.903 49.84C139.927 49.36 140.083 48.952 140.371 48.616C140.587 48.352 140.959 48.04 141.487 47.68C142.879 46.72 143.587 46.24 143.611 46.24C143.659 46.192 143.779 46.096 143.971 45.952C144.187 45.784 144.343 45.664 144.439 45.592C144.559 45.52 144.703 45.46 144.871 45.412C145.063 45.34 145.243 45.328 145.411 45.376C145.603 45.424 145.735 45.508 145.807 45.628C145.879 45.748 145.951 45.94 146.023 46.204C146.047 46.252 146.059 46.288 146.059 46.312C146.083 46.312 146.095 46.312 146.095 46.312C146.143 46.36 146.275 46.324 146.491 46.204C147.739 45.604 149.095 45.412 150.559 45.628C151.879 45.796 153.115 46.312 154.267 47.176C154.507 47.344 154.735 47.524 154.951 47.716C156.631 49.228 157.531 51.232 157.651 53.728C157.699 54.496 157.711 55.588 157.687 57.004C157.687 58.42 157.687 59.524 157.687 60.316C157.783 62.908 157.903 64.756 158.047 65.86C158.311 68.044 158.803 69.544 159.523 70.36C160.147 71.056 161.059 71.548 162.259 71.836C161.275 71.092 160.915 70.18 161.179 69.1C161.443 68.044 162.043 67.36 162.979 67.048C163.915 66.736 164.851 66.952 165.787 67.696ZM170.814 62.476C170.886 62.764 170.85 63.148 170.706 63.628C170.586 64.108 170.25 64.576 169.698 65.032C169.146 65.488 168.438 65.704 167.574 65.68C166.998 65.68 166.338 65.536 165.594 65.248C164.874 64.96 164.262 64.576 163.758 64.096C163.662 64 163.578 63.904 163.506 63.808C163.386 63.688 163.278 63.568 163.182 63.448C163.086 63.304 162.99 63.172 162.894 63.052C162.822 62.908 162.75 62.764 162.678 62.62C162.606 62.476 162.534 62.332 162.462 62.188C162.39 62.044 162.33 61.888 162.282 61.72C162.234 61.552 162.186 61.384 162.138 61.216C162.114 61.024 162.078 60.82 162.03 60.604C162.006 60.388 161.982 60.172 161.958 59.956C161.934 59.716 161.922 59.464 161.922 59.2C161.898 58.96 161.886 58.696 161.886 58.408C161.862 58.12 161.85 57.82 161.85 57.508C161.85 57.196 161.85 56.848 161.85 56.464C161.85 56.128 161.85 55.756 161.85 55.348C161.85 54.964 161.85 54.544 161.85 54.088C161.85 53.776 161.85 53.32 161.85 52.72C161.85 52.168 161.85 51.652 161.85 51.172C161.85 50.596 161.862 50.044 161.886 49.516C161.886 49.204 161.886 48.904 161.886 48.616C161.886 48.52 161.886 48.364 161.886 48.148C161.886 47.932 161.862 47.8 161.814 47.752C161.766 47.68 161.67 47.644 161.526 47.644H160.302C159.87 47.644 159.582 47.452 159.438 47.068C159.294 46.66 159.33 46.288 159.546 45.952C159.738 45.616 160.182 45.292 160.878 44.98C161.598 44.644 162.042 44.248 162.21 43.792C162.282 43.576 162.318 43.216 162.318 42.712C162.342 42.208 162.402 41.836 162.498 41.596C162.714 41.188 163.194 40.828 163.938 40.516C163.986 40.492 164.202 40.396 164.586 40.228C164.97 40.036 165.282 39.904 165.522 39.832C165.762 39.736 166.05 39.652 166.386 39.58C166.746 39.484 167.034 39.472 167.25 39.544C167.49 39.616 167.658 39.772 167.754 40.012C167.826 40.18 167.862 40.36 167.862 40.552C167.886 40.744 167.886 41.008 167.862 41.344C167.862 41.656 167.862 41.824 167.862 41.848C167.862 42.352 167.862 43.216 167.862 44.44C167.862 44.656 167.862 44.86 167.862 45.052C167.862 45.076 167.862 45.112 167.862 45.16C167.862 45.184 167.862 45.22 167.862 45.268C167.862 45.316 167.862 45.352 167.862 45.376C167.862 45.496 167.874 45.58 167.898 45.628C167.922 45.676 168.03 45.7 168.222 45.7H169.482C169.914 45.7 170.214 45.868 170.382 46.204C170.55 46.516 170.55 46.84 170.382 47.176C170.214 47.488 169.914 47.644 169.482 47.644H168.222C168.03 47.644 167.91 47.668 167.862 47.716C167.838 47.764 167.826 47.908 167.826 48.148C167.826 48.316 167.826 48.472 167.826 48.616C167.826 48.952 167.826 49.264 167.826 49.552C167.826 50.248 167.814 50.98 167.79 51.748C167.79 52.276 167.778 52.924 167.754 53.692C167.754 54.532 167.754 55.108 167.754 55.42C167.73 56.02 167.718 56.524 167.718 56.932C167.718 57.436 167.718 57.868 167.718 58.228C167.742 58.636 167.766 58.996 167.79 59.308C167.79 59.644 167.814 59.944 167.862 60.208C167.886 60.472 167.934 60.712 168.006 60.928C168.054 61.12 168.114 61.3 168.186 61.468C168.282 61.612 168.378 61.732 168.474 61.828C168.57 61.924 168.678 61.996 168.798 62.044C168.942 62.092 169.098 62.116 169.266 62.116C169.434 62.116 169.626 62.104 169.842 62.08C169.938 62.008 170.094 61.996 170.31 62.044C170.55 62.068 170.718 62.212 170.814 62.476ZM180.75 64.6C180.774 64.864 180.726 65.092 180.606 65.284C180.51 65.452 180.342 65.536 180.102 65.536C179.478 65.56 178.506 65.572 177.186 65.572C175.89 65.596 174.894 65.62 174.198 65.644C174.15 65.644 174.03 65.656 173.838 65.68C173.67 65.704 173.538 65.704 173.442 65.68C173.37 65.68 173.274 65.656 173.154 65.608C173.058 65.56 172.986 65.476 172.938 65.356C172.818 65.068 172.902 64.54 173.19 63.772C173.79 62.14 174.066 59.74 174.018 56.572C174.018 55.108 173.946 53.98 173.802 53.188C173.682 52.468 173.538 51.928 173.37 51.568C173.322 51.496 173.262 51.388 173.19 51.244C173.142 51.1 173.094 50.992 173.046 50.92C172.998 50.824 172.95 50.716 172.902 50.596C172.878 50.452 172.878 50.32 172.902 50.2C172.902 49.888 173.022 49.576 173.262 49.264C173.526 48.952 173.79 48.712 174.054 48.544C174.318 48.376 174.678 48.16 175.134 47.896C175.614 47.608 175.902 47.44 175.998 47.392C176.214 47.248 176.574 46.936 177.078 46.456C177.582 45.976 178.002 45.676 178.338 45.556C178.722 45.388 179.046 45.4 179.31 45.592C179.598 45.784 179.778 46.096 179.85 46.528C179.946 47.056 179.994 47.656 179.994 48.328C180.018 48.976 180.018 49.492 179.994 49.876C179.994 50.26 179.97 50.896 179.922 51.784C179.874 52.648 179.838 53.188 179.814 53.404C179.814 53.524 179.814 53.656 179.814 53.8C179.67 55.24 179.634 56.908 179.706 58.804C179.778 60.676 180.054 62.308 180.534 63.7C180.678 64.132 180.75 64.432 180.75 64.6ZM176.394 44.224C174.882 44.2 173.862 43.72 173.334 42.784C172.878 41.92 172.902 40.984 173.406 39.976C173.982 38.872 174.87 38.284 176.07 38.212C177.294 38.116 178.266 38.584 178.986 39.616C179.538 40.384 179.61 41.332 179.202 42.46C178.746 43.612 177.87 44.2 176.574 44.224C176.502 44.224 176.442 44.224 176.394 44.224ZM209.697 67.696C210.201 68.176 210.465 68.74 210.489 69.388C210.537 70.06 210.405 70.684 210.093 71.26C209.805 71.836 209.409 72.352 208.905 72.808C207.585 73.96 205.917 74.452 203.901 74.284C201.909 74.14 200.313 73.42 199.113 72.124C197.841 70.732 197.073 68.848 196.809 66.472C196.521 63.928 196.365 61.372 196.341 58.804C196.341 58.276 196.341 57.772 196.341 57.292C196.341 56.788 196.329 56.272 196.305 55.744C196.305 55.192 196.281 54.676 196.233 54.196C196.209 53.716 196.149 53.212 196.053 52.684C195.957 52.156 195.837 51.652 195.693 51.172C195.501 50.596 195.165 50.08 194.685 49.624C194.229 49.144 193.713 48.868 193.137 48.796C192.585 48.7 192.045 48.928 191.517 49.48C190.845 50.176 190.341 51.16 190.005 52.432C189.357 54.952 189.189 57.604 189.501 60.388C189.621 61.588 189.885 62.896 190.293 64.312C190.485 64.984 190.461 65.38 190.221 65.5C190.125 65.548 189.981 65.584 189.789 65.608C187.701 65.632 185.793 65.608 184.065 65.536C183.609 65.512 183.345 65.38 183.273 65.14C183.249 65.02 183.249 64.9 183.273 64.78C183.321 64.66 183.369 64.516 183.417 64.348C183.489 64.156 183.537 64.036 183.561 63.988C183.705 63.508 183.825 63.004 183.921 62.476C184.113 61.54 184.245 60.532 184.317 59.452C184.581 55.996 184.485 53.224 184.029 51.136C183.885 50.752 183.813 50.32 183.813 49.84C183.837 49.36 183.993 48.952 184.281 48.616C184.497 48.352 184.869 48.04 185.397 47.68C186.789 46.72 187.497 46.24 187.521 46.24C187.569 46.192 187.689 46.096 187.881 45.952C188.097 45.784 188.253 45.664 188.349 45.592C188.469 45.52 188.613 45.46 188.781 45.412C188.973 45.34 189.153 45.328 189.321 45.376C189.513 45.424 189.645 45.508 189.717 45.628C189.789 45.748 189.861 45.94 189.933 46.204C189.957 46.252 189.969 46.288 189.969 46.312C189.993 46.312 190.005 46.312 190.005 46.312C190.053 46.36 190.185 46.324 190.401 46.204C191.649 45.604 193.005 45.412 194.469 45.628C195.789 45.796 197.025 46.312 198.177 47.176C198.417 47.344 198.645 47.524 198.861 47.716C200.541 49.228 201.441 51.232 201.561 53.728C201.609 54.496 201.621 55.588 201.597 57.004C201.597 58.42 201.597 59.524 201.597 60.316C201.693 62.908 201.813 64.756 201.957 65.86C202.221 68.044 202.713 69.544 203.433 70.36C204.057 71.056 204.969 71.548 206.169 71.836C205.185 71.092 204.825 70.18 205.089 69.1C205.353 68.044 205.953 67.36 206.889 67.048C207.825 66.736 208.761 66.952 209.697 67.696ZM230.201 67.804C230.705 68.284 230.969 68.848 230.993 69.496C231.017 70.168 230.873 70.792 230.561 71.368C230.273 71.944 229.889 72.46 229.409 72.916C228.089 74.068 226.421 74.56 224.405 74.392C222.413 74.248 220.817 73.528 219.617 72.232C218.585 71.128 217.901 69.796 217.565 68.236C217.253 66.7 217.109 64.96 217.133 63.016C216.629 63.784 215.945 64.432 215.081 64.96C214.241 65.464 213.365 65.716 212.453 65.716C210.653 65.716 209.153 65.236 207.953 64.276C207.209 63.676 206.681 63.004 206.369 62.26C206.081 61.492 205.925 60.556 205.901 59.452C205.901 59.38 205.901 59.272 205.901 59.128C205.877 58.528 205.853 57.676 205.829 56.572C205.805 55.444 205.793 54.664 205.793 54.232C205.745 52.816 205.709 51.94 205.685 51.604C205.637 51.172 205.505 50.548 205.289 49.732C205.097 48.916 204.989 48.436 204.965 48.292C204.917 48.172 204.905 48.052 204.929 47.932C204.977 47.812 205.049 47.704 205.145 47.608C205.265 47.488 205.385 47.392 205.505 47.32C205.649 47.224 205.853 47.128 206.117 47.032C206.381 46.912 206.621 46.804 206.837 46.708C207.077 46.612 207.401 46.48 207.809 46.312C208.241 46.144 208.637 45.988 208.997 45.844C209.741 45.532 210.317 45.388 210.725 45.412C211.085 45.412 211.385 45.532 211.625 45.772C211.889 46.012 212.009 46.312 211.985 46.672C211.985 46.792 211.949 46.984 211.877 47.248C211.829 47.512 211.805 47.668 211.805 47.716C211.661 48.508 211.565 49.384 211.517 50.344C211.349 53.416 211.373 55.876 211.589 57.724C211.589 57.844 211.601 57.964 211.625 58.084C211.841 59.788 212.225 60.892 212.777 61.396C213.137 61.732 213.605 61.912 214.181 61.936C214.757 61.936 215.237 61.78 215.621 61.468C216.317 60.988 216.725 59.68 216.845 57.544C216.965 55.384 216.929 53.38 216.737 51.532C216.545 49.66 216.365 48.4 216.197 47.752C216.101 47.344 216.113 47.056 216.233 46.888C216.353 46.696 216.629 46.54 217.061 46.42C217.373 46.348 217.829 46.192 218.429 45.952C219.029 45.712 219.389 45.568 219.509 45.52C220.997 44.992 221.933 45.04 222.317 45.664C222.461 45.904 222.533 46.444 222.533 47.284C222.533 48.532 222.473 51.076 222.353 54.916C222.233 59.428 222.209 62.296 222.281 63.52C222.281 63.544 222.281 63.772 222.281 64.204C222.305 64.612 222.317 64.852 222.317 64.924C222.341 64.996 222.365 65.224 222.389 65.608C222.413 66.016 222.437 66.28 222.461 66.4C222.485 66.544 222.521 66.784 222.569 67.12C222.617 67.48 222.665 67.744 222.713 67.912C222.785 68.08 222.857 68.308 222.929 68.596C223.001 68.884 223.085 69.112 223.181 69.28C223.277 69.472 223.385 69.676 223.505 69.892C223.649 70.108 223.793 70.3 223.937 70.468C224.561 71.164 225.461 71.656 226.637 71.944C225.677 71.2 225.329 70.288 225.593 69.208C225.857 68.152 226.445 67.468 227.357 67.156C228.293 66.844 229.241 67.06 230.201 67.804ZM250.912 67.588C251.392 68.068 251.644 68.632 251.668 69.28C251.716 69.952 251.584 70.576 251.272 71.152C250.984 71.728 250.588 72.244 250.084 72.7C248.764 73.852 247.096 74.344 245.08 74.176C243.088 74.032 241.504 73.312 240.328 72.016C239.344 70.936 238.66 69.508 238.276 67.732C238.204 67.444 238.096 66.652 237.952 65.356C237.88 64.828 237.832 64.324 237.808 63.844C237.808 63.82 237.796 63.7 237.772 63.484C237.772 63.244 237.772 63.052 237.772 62.908C237.772 62.74 237.796 62.62 237.844 62.548C237.46 63.22 236.932 63.772 236.26 64.204C234.34 65.428 232 65.68 229.24 64.96C228.04 64.648 227.104 64.012 226.432 63.052C225.76 62.068 225.436 60.952 225.46 59.704C225.484 57.952 226.12 56.5 227.368 55.348C228.64 54.196 230.152 53.596 231.904 53.548C232.696 53.524 233.464 53.608 234.208 53.8C234.784 53.944 235.24 54.112 235.576 54.304C236.272 54.688 236.62 54.976 236.62 55.168C236.716 54.088 236.716 53.008 236.62 51.928C236.524 50.56 236.32 49.612 236.008 49.084C235.672 48.508 235.228 48.184 234.676 48.112C234.388 48.088 234.076 48.124 233.74 48.22C233.404 48.316 233.152 48.472 232.984 48.688C232.888 48.832 232.804 49.012 232.732 49.228C232.684 49.42 232.66 49.576 232.66 49.696C232.66 49.816 232.66 50.02 232.66 50.308C232.684 50.596 232.696 50.764 232.696 50.812C232.696 51.1 232.672 51.316 232.624 51.46C232.528 51.892 232.276 52.24 231.868 52.504C231.052 53.056 230.164 53.164 229.204 52.828C228.268 52.492 227.728 51.832 227.584 50.848C227.416 49.6 227.872 48.472 228.952 47.464C230.056 46.456 231.28 45.796 232.624 45.484C234.424 45.052 236.164 45.076 237.844 45.556C239.956 46.204 241.42 47.32 242.236 48.904C242.356 49.168 242.464 49.468 242.56 49.804C242.656 50.116 242.728 50.392 242.776 50.632C242.824 50.848 242.848 51.172 242.848 51.604C242.872 52.036 242.884 52.336 242.884 52.504C242.884 52.672 242.884 53.008 242.884 53.512C242.884 53.992 242.884 54.28 242.884 54.376C242.812 56.248 242.8 58.396 242.848 60.82C242.92 63.244 243.112 65.38 243.424 67.228C243.664 68.62 244.072 69.628 244.648 70.252C245.272 70.948 246.172 71.44 247.348 71.728C246.388 70.984 246.028 70.072 246.268 68.992C246.532 67.936 247.132 67.252 248.068 66.94C249.004 66.628 249.952 66.844 250.912 67.588ZM231.58 61.936C232.18 61.48 232.684 60.832 233.092 59.992C233.524 59.128 233.74 58.324 233.74 57.58C233.764 56.836 233.572 56.368 233.164 56.176C232.756 55.96 232.252 56.08 231.652 56.536C231.076 56.992 230.572 57.652 230.14 58.516C229.708 59.356 229.48 60.148 229.456 60.892C229.456 61.636 229.66 62.116 230.068 62.332C230.5 62.524 231.004 62.392 231.58 61.936ZM260.971 47.752C261.259 49.912 260.695 51.4 259.279 52.216C257.839 53.056 256.735 52.816 255.967 51.496C255.919 51.4 255.847 51.304 255.751 51.208C255.127 50.368 254.467 50.068 253.771 50.308C253.627 50.356 253.495 50.416 253.375 50.488C253.255 50.536 253.147 50.62 253.051 50.74C252.979 50.836 252.907 50.932 252.835 51.028C252.787 51.1 252.739 51.22 252.691 51.388C252.667 51.532 252.643 51.64 252.619 51.712C252.595 51.784 252.571 51.916 252.547 52.108C252.547 52.3 252.547 52.432 252.547 52.504C252.547 52.576 252.547 52.72 252.547 52.936C252.547 53.128 252.547 53.248 252.547 53.296C252.523 55.6 252.523 57.232 252.547 58.192C252.547 58.336 252.535 58.828 252.511 59.668C252.511 60.508 252.511 61.096 252.511 61.432C252.535 61.744 252.583 62.2 252.655 62.8C252.727 63.4 252.847 63.928 253.015 64.384C253.207 64.912 253.195 65.248 252.979 65.392C252.835 65.464 252.619 65.5 252.331 65.5C250.939 65.524 249.895 65.536 249.199 65.536C247.303 65.536 246.355 65.536 246.355 65.536C245.923 65.488 245.767 65.26 245.887 64.852C246.055 64.348 246.187 63.832 246.283 63.304C246.403 62.776 246.475 62.212 246.499 61.612C246.547 60.988 246.571 60.472 246.571 60.064C246.595 59.656 246.595 59.08 246.571 58.336C246.571 57.592 246.571 57.064 246.571 56.752C246.595 55.288 246.583 54.304 246.535 53.8C246.439 52.504 246.295 51.544 246.103 50.92C245.839 50.056 246.043 49.324 246.715 48.724C247.867 47.74 249.055 46.78 250.279 45.844C250.639 45.58 251.083 45.4 251.611 45.304C251.947 45.232 252.199 45.28 252.367 45.448C252.559 45.616 252.655 45.88 252.655 46.24C252.655 46.336 252.655 46.936 252.655 48.04C254.047 47.032 254.791 46.492 254.887 46.42C256.039 45.724 257.095 45.364 258.055 45.34C258.751 45.34 259.387 45.568 259.963 46.024C260.539 46.456 260.875 47.032 260.971 47.752Z" fill="#FDDFFC"/>
</g>
<g clip-path="url(#clip0_73_74)">
<path d="M251.47 11.7822C251.768 8.77125 248.29 7.13765 245.685 8.16266C243.096 9.18232 241.996 12.7912 243.107 15.1935C243.67 16.4161 244.493 17.5105 245.598 18.3112C247.174 19.4537 249.146 19.7313 251.053 19.5017C252.737 19.3042 254.411 18.7437 255.83 17.8254C260.841 14.5849 259.914 7.57008 256.491 3.5021C251.199 -2.78138 240.068 -0.0426993 237.175 7.22307C235.832 10.5917 235.588 14.3394 236.704 17.8148C237.907 21.5464 240.729 24.4132 243.632 26.9597C247.017 29.9279 251.026 32.704 255.391 34.0493C257.211 34.6098 259.113 34.9782 260.981 35.3412C265.721 36.2755 270.515 36.9214 275.319 37.3966C278.179 37.6795 281.088 37.7382 283.91 38.3255C287.36 39.0409 291.277 40.4235 293.172 43.5733C295.567 47.5505 294.294 52.7609 291.087 55.9053C288.866 58.0835 285.914 59.1725 282.832 59.0017C280.671 58.8789 278.25 57.966 276.831 56.2897C275.606 54.843 274.794 52.7129 274.664 50.8551C274.528 48.8638 275.265 46.7444 276.717 45.3403C277.48 44.6036 278.428 44.1071 279.474 43.8829C279.918 43.7868 280.389 43.7334 280.839 43.7388C280.996 43.7388 280.72 43.7228 280.85 43.7388C280.953 43.7548 281.055 43.7761 281.153 43.7922C282.61 44.0804 284.175 44.6784 285.096 45.8902C286.228 47.385 286.158 50.1023 284.869 51.4957C283.796 52.6542 282.106 52.7342 280.671 52.2805C280.113 52.1043 278.829 52.9051 279.728 53.1934C281.44 53.7379 283.401 53.6044 284.977 52.7236C286.667 51.7733 287.485 50.0436 287.42 48.1538C287.35 46.1038 286.391 44.5983 284.517 43.6854C283.558 43.2156 282.383 42.7992 281.299 42.7725C276.852 42.6497 273.109 46.2052 273.061 50.5668C273.039 52.7396 273.922 54.859 275.151 56.6314C276.246 58.2116 278.39 59.2473 280.232 59.685C287.637 61.4468 295.978 55.7452 295.984 48.0203C295.984 45.9276 295.366 43.7868 294.039 42.1265C292.891 40.6958 291.282 39.6601 289.608 38.9127C286.819 37.6688 283.726 37.0496 280.682 36.8307C273.017 36.2755 265.304 35.3839 257.834 33.5368C255.153 32.8748 252.683 31.695 250.343 30.2429C246.649 27.9527 243.204 25.0218 240.507 21.6265C237.809 18.2312 236.991 13.5706 237.999 9.36917C238.112 8.89938 238.248 8.42958 238.416 7.97581C238.459 7.85836 238.416 7.96513 238.405 7.99182C238.486 7.76227 238.567 7.52737 238.654 7.29781C238.871 6.72659 239.147 6.17672 239.467 5.65354C240.534 3.91317 242.153 2.60522 244.044 1.82046C247.397 0.427093 251.372 0.66199 254.119 3.17111C255.63 4.55379 256.805 6.44898 257.325 8.42425C258.159 11.5687 257.889 15.2256 254.953 17.2008C254.081 17.7881 253.23 18.1191 252.293 18.3593C252.12 18.402 251.952 18.4394 251.779 18.4767C251.54 18.5248 251.93 18.4554 251.714 18.4874C251.649 18.4981 251.589 18.5088 251.524 18.5194C251.242 18.5568 250.961 18.5942 250.679 18.6102C247.711 18.8024 245.257 16.7364 244.379 14.0351C243.995 12.8499 244.379 11.3765 244.954 10.3141C245.327 9.62008 245.88 8.87268 246.747 8.86201C247.613 8.85133 248.561 9.09157 249.168 9.75355C249.704 10.3354 249.969 11.2483 249.899 11.953C249.829 12.6577 251.421 12.3748 251.475 11.7875L251.47 11.7822Z" fill="#03023E"/>
</g>
<g clip-path="url(#clip1_73_74)">
<path d="M39.1376 46.9461C39.1376 46.9461 38.8352 46.9193 39.2005 46.953C39.3989 46.9716 39.6049 46.9783 39.8054 47.0067C40.3971 47.0938 41.0567 47.2584 41.4987 47.695C42.1897 48.3848 42.0366 49.2874 41.6997 50.0966C40.9069 52.017 38.9827 52.0128 37.2994 51.4655C34.6386 50.6074 33.0708 48.2245 33.3929 45.403C33.7151 42.5816 36.0983 39.7349 38.6488 38.6118C42.3294 36.989 47.4546 38.5532 50.4354 40.9893C51.5395 41.8866 52.3647 43.151 53.06 44.3821C54.1929 46.4087 54.9644 48.6566 55.0585 50.9892C55.1944 54.2744 53.7466 57.2364 51.3457 59.4322C50.6279 60.0883 49.8381 60.6475 49.0364 61.199C48.6812 61.4495 49.2018 61.1122 48.9819 61.2312C48.2199 61.6821 47.4494 62.0938 46.6509 62.4707C42.9336 64.2549 38.9312 65.4765 34.9326 66.4313C29.611 67.7023 24.053 68.257 19.0661 70.6527C16.7956 71.7462 14.5538 73.304 12.7292 75.089C10.5489 77.2167 8.959 79.9945 8.7112 83.0659C8.40654 86.9167 10.3049 90.9265 13.5786 93.013C16.256 94.7064 19.6786 95.349 22.7546 94.4807C24.8658 93.882 26.6845 92.3541 27.9524 90.5971C29.7292 88.1166 29.652 85.3404 28.3799 82.6686C26.7757 79.3114 23.1693 77.0103 19.4588 78.2099C15.9668 79.3316 12.6365 83.6205 14.0135 87.3949C15.0183 90.1551 18.5453 91.614 21.2961 90.8978C22.7106 90.5312 23.8234 89.667 24.3676 88.3015C24.6398 87.6188 23.788 87.3218 23.2747 87.3609C22.5302 87.4192 21.873 87.9293 21.6107 88.61C21.5313 88.8112 21.4804 88.812 21.2296 88.8354C20.6186 88.8956 20.0507 88.8238 19.4651 88.6228C18.1738 88.1853 16.9879 87.1931 16.6318 85.8274C16.1592 84.0164 17.2533 81.7855 18.7143 80.7336C20.3365 79.5754 22.1575 80.1442 23.5951 81.3071C25.69 83.0035 27.3121 86.2545 26.3003 88.8666C25.8737 89.9715 25.0544 90.9155 24.1377 91.6453C23.8837 91.8433 23.6179 92.0336 23.35 92.2142C23.5384 92.0917 23.7381 92.0691 23.3925 92.1743C23.1426 92.2487 22.8955 92.3839 22.6337 92.4506C15.4642 94.3555 9.47656 85.9493 12.2689 79.5463C13.1656 77.491 14.6783 75.9677 16.41 74.6529C16.4798 74.5969 16.5614 74.5486 16.6333 74.5024C15.9404 74.9895 16.8154 74.3506 17.0191 74.2043C18.2045 73.345 19.4174 72.6127 20.7659 72.0353C23.1999 70.9884 25.8154 70.4036 28.3925 69.8782C35.6939 68.3949 43.4206 66.8915 49.8986 62.9669C54.9537 59.8916 58.7291 54.678 57.7007 48.5368C57.1118 45.0015 55.1944 40.9037 52.1944 38.7582C48.9427 36.4419 44.5158 35.2692 40.5665 35.9781C36.6172 36.687 33.0851 39.5667 31.451 43.1827C30.424 45.4401 30.1476 48.047 31.3842 50.3172C32.6208 52.5875 34.8957 53.6005 37.2463 53.9219C39.9037 54.2898 42.6232 53.1915 43.9839 50.8212C45.1878 48.72 45.1108 46.087 42.5113 45.1338C41.6238 44.8138 40.6591 44.7048 39.7163 44.7446C38.3265 44.7989 37.1772 47.0111 39.1355 46.9364L39.1376 46.9461Z" fill="#03023E"/>
</g>
<defs>
<filter id="filter0_d_73_74" x="23" y="22" width="309" height="82" filterUnits="userSpaceOnUse" color-interpolation-filters="sRGB">
<feFlood flood-opacity="0" result="BackgroundImageFix"/>
<feColorMatrix in="SourceAlpha" type="matrix" values="0 0 0 0 0 0 0 0 0 0 0 0 0 0 0 0 0 0 127 0" result="hardAlpha"/>
<feOffset dy="4"/>
<feGaussianBlur stdDeviation="2"/>
<feComposite in2="hardAlpha" operator="out"/>
<feColorMatrix type="matrix" values="0 0 0 0 0 0 0 0 0 0 0 0 0 0 0 0 0 0 0.25 0"/>
<feBlend mode="normal" in2="BackgroundImageFix" result="effect1_dropShadow_73_74"/>
<feBlend mode="normal" in="SourceGraphic" in2="effect1_dropShadow_73_74" result="shape"/>
</filter>
<clipPath id="clip0_73_74">
<rect width="60" height="60" fill="white" transform="translate(236)"/>
</clipPath>
<clipPath id="clip1_73_74">
<rect width="55.62" height="53.45" fill="white" transform="translate(65.642 85.2477) rotate(167.824)"/>
</clipPath>
</defs>
</svg>
