<svg width="254" height="93" viewBox="0 0 254 93" fill="none" xmlns="http://www.w3.org/2000/svg">
<g filter="url(#filter0_d_70_64)">
<g clip-path="url(#clip0_70_64)">
<path d="M13.6441 64.9145C12.379 63.9935 10.6659 65.2822 10.39 66.8262C10.1164 68.3609 11.4231 69.8297 12.8128 69.902C13.5196 69.9397 14.2422 69.8166 14.9128 69.4796C15.8694 68.9989 16.5501 68.1014 16.9852 67.1054C17.372 66.2267 17.5931 65.26 17.5821 64.3263C17.5439 61.0305 14.1394 59.681 11.3508 60.3168C7.04221 61.301 5.12861 67.4757 7.56803 70.7663C8.69837 72.293 10.3088 73.377 12.1808 73.7227C14.1921 74.0917 16.2729 73.4424 18.2331 72.6707C20.5183 71.7707 22.8931 70.515 24.7277 68.7157C25.4924 67.9655 26.1939 67.1259 26.8838 66.301C28.6397 64.2122 30.2817 62.0226 31.8502 59.7837C32.7839 58.4511 33.6309 57.0367 34.6903 55.801C35.9844 54.2894 37.7089 52.7206 39.6551 52.5992C42.1127 52.4458 44.0881 54.4118 44.5923 56.7965C44.9416 58.4483 44.5966 60.1792 43.6505 61.6498C42.9857 62.6803 41.8935 63.6353 40.742 63.9015C39.7483 64.1309 38.5647 63.9822 37.6956 63.5681C36.7651 63.1224 36.0233 62.2152 35.8038 61.1406C35.6892 60.5757 35.7342 59.9822 35.9287 59.4107C36.011 59.1677 36.12 58.9224 36.2493 58.7029C36.2936 58.6257 36.2085 58.7573 36.2523 58.6975C36.2885 58.6511 36.3272 58.606 36.3618 58.5622C36.9021 57.9203 37.6117 57.3049 38.4145 57.1641C39.4037 56.9923 40.6014 57.726 40.862 58.718C41.0784 59.543 40.6375 60.3941 40.0291 60.9828C39.7928 61.2117 39.7894 62.0485 40.1722 61.6808C40.8992 60.9798 41.3926 59.9818 41.4427 58.9806C41.4937 57.9056 40.9495 57.0587 40.0844 56.6045C39.146 56.1117 38.2009 56.1956 37.2631 56.8817C36.7821 57.232 36.2639 57.7025 35.9462 58.228C34.6365 60.3818 35.1735 63.1359 37.114 64.2819C38.0814 64.8515 39.2802 64.9629 40.4213 64.8146C41.438 64.6834 42.5073 63.8957 43.2231 63.1033C46.1017 59.9177 45.9006 54.3517 42.4409 52.3617C41.5032 51.8234 40.3698 51.5761 39.2514 51.8011C38.2863 51.9974 37.3684 52.5215 36.5612 53.1518C35.2168 54.2026 34.0667 55.5632 33.1097 57.0029C30.6983 60.6266 28.1225 64.1878 25.1873 67.3833C24.1342 68.5306 22.9086 69.4409 21.5978 70.2173C19.5293 71.4435 17.2441 72.3825 14.9616 72.8346C12.6792 73.2868 10.3602 72.4898 8.76193 70.9138C8.58353 70.737 8.41124 70.5496 8.25529 70.3504C8.21489 70.2989 8.25051 70.3476 8.25941 70.3598C8.17948 70.2608 8.09716 70.1605 8.01875 70.0588C7.82394 69.8054 7.6555 69.5282 7.51126 69.2365C7.03254 68.2644 6.90346 67.1321 7.08522 66.0012C7.40693 63.995 8.63397 62.1016 10.5331 61.3975C11.579 61.0106 12.7598 60.9205 13.7916 61.1731C15.4359 61.5721 16.998 62.646 17.0547 64.5969C17.0717 65.1765 16.9801 65.6796 16.8233 66.2019C16.7936 66.2981 16.7629 66.3902 16.7308 66.485C16.6851 66.6145 16.764 66.4049 16.7172 66.5197C16.7037 66.5544 16.6916 66.5864 16.6781 66.6211C16.6153 66.7691 16.5526 66.9171 16.4803 67.0597C15.7289 68.5678 14.1109 69.2422 12.6529 68.9784C12.0134 68.8625 11.4617 68.2945 11.1477 67.739C10.9422 67.3768 10.7632 66.913 11.0029 66.4844C11.2427 66.0557 11.6178 65.6517 12.0856 65.5239C12.4976 65.4101 12.9815 65.5145 13.2774 65.7304C13.5733 65.9463 13.8958 65.0909 13.648 64.9132L13.6441 64.9145Z" fill="#FDDFFC"/>
</g>
<g clip-path="url(#clip1_70_64)">
<path d="M233.616 15.0904C233.336 13.9069 232.552 12.5101 231.24 12.3306C229.644 12.1108 227.896 13.2459 227.265 14.6871C226.567 16.2861 226.963 18.3146 227.854 19.7596C228.81 21.308 230.35 22.4563 232.087 22.9756C234.072 23.5676 236.34 23.0652 237.933 21.7782C239.212 20.7458 240.214 19.1716 240.629 17.5769C240.896 16.5577 241.01 15.4775 241.037 14.4259C241.085 12.6654 240.82 10.8374 240.01 9.25201C239.286 7.83669 238.11 6.7972 236.72 6.06111C234.937 5.11306 232.919 4.67662 230.928 4.45967C230.436 4.40615 229.923 4.31356 229.424 4.36927C229.076 4.40883 228.729 4.47076 228.39 4.54443C225.277 5.23065 222.521 7.14015 220.695 9.73769C219.396 11.5862 218.619 13.7562 217.979 15.9113C217.408 17.8286 217.008 19.7989 216.827 21.7948C216.52 25.1394 216.808 28.5872 218.009 31.7497C218.975 34.2998 220.567 36.6804 222.798 38.2894C223.299 38.6505 223.831 38.9685 224.384 39.247C224.663 39.3867 225.167 38.7372 224.829 38.5698C222.61 37.4564 220.848 35.576 219.649 33.4174C218.214 30.8352 217.535 27.8957 217.404 24.9643C217.24 21.2893 217.926 17.6024 219.146 14.1534C219.856 12.1411 220.748 10.2282 222.21 8.65203C223.291 7.48819 224.609 6.56693 226.063 5.92806C226.943 5.54094 227.897 5.24892 228.84 5.10531C228.998 5.08088 229.163 5.05201 229.325 5.04847C229.773 5.03768 230.246 5.11306 230.691 5.16381C231.23 5.22393 231.77 5.30641 232.303 5.40953C234.019 5.74112 235.757 6.29282 237.202 7.30688C238.484 8.20733 239.363 9.42867 239.859 10.9128C240.355 12.397 240.457 14.0489 240.325 15.6217C240.262 16.3673 240.171 17.153 239.952 17.8715C239.456 19.5041 238.376 21.0786 236.844 21.8788C235.873 22.3861 234.758 22.5792 233.668 22.5064C231.168 22.3425 228.759 20.4339 227.919 18.0773C227.394 16.6048 227.363 14.6349 228.73 13.6325C229.306 13.2083 230.068 12.939 230.792 13.0132C231.587 13.0953 232.15 13.7138 232.512 14.3871C232.713 14.7667 232.882 15.177 232.98 15.5956C233.057 15.9226 233.692 15.4075 233.618 15.0951L233.616 15.0904Z" fill="#FDDFFC"/>
</g>
<rect x="4" y="12" width="230" height="56" rx="28" fill="#FDDFFC"/>
<path d="M89.4001 43.904C87.9601 43.808 86.7841 43.448 85.8721 42.824C85.3761 42.472 85.0081 42.008 84.7681 41.432C84.5281 40.84 84.5041 40.256 84.6961 39.68C84.8241 39.264 85.1041 38.92 85.5361 38.648C85.9681 38.376 86.4241 38.232 86.9041 38.216C87.3841 38.2 87.8321 38.264 88.2481 38.408C88.7761 38.648 89.0961 39.04 89.2081 39.584C89.2401 39.728 89.2321 39.904 89.1841 40.112C89.1521 40.304 89.1041 40.48 89.0401 40.64C88.9921 40.784 88.9761 40.944 88.9921 41.12C89.0241 41.296 89.1121 41.456 89.2561 41.6C89.4641 41.792 89.7681 41.904 90.1681 41.936C90.5841 41.968 90.9441 41.904 91.2481 41.744C91.6641 41.52 91.8881 41.184 91.9201 40.736C91.9681 40.288 91.8801 39.864 91.6561 39.464C91.4321 39.048 91.1521 38.728 90.8161 38.504C90.6401 38.392 90.4481 38.28 90.2401 38.168C90.0321 38.056 89.7921 37.936 89.5201 37.808C89.2481 37.68 89.0481 37.584 88.9201 37.52C87.0161 36.528 85.7201 35.424 85.0321 34.208C84.6321 33.488 84.4641 32.656 84.5281 31.712C84.6081 30.768 84.8881 29.968 85.3681 29.312C85.9121 28.576 86.6481 28.024 87.5761 27.656C88.5041 27.288 89.4641 27.144 90.4561 27.224C91.4481 27.288 92.3281 27.552 93.0961 28.016C94.4081 28.8 95.0001 29.808 94.8721 31.04C94.8401 31.44 94.6961 31.8 94.4401 32.12C94.1841 32.44 93.8641 32.656 93.4801 32.768C93.1121 32.896 92.6961 32.936 92.2321 32.888C91.7841 32.84 91.4161 32.688 91.1281 32.432C90.6161 32 90.4001 31.28 90.4801 30.272C90.5281 29.808 90.4241 29.496 90.1681 29.336C90.0721 29.272 89.9441 29.232 89.7841 29.216C89.2881 29.184 88.9281 29.352 88.7041 29.72C88.4321 30.152 88.4481 30.664 88.7521 31.256C89.0401 31.752 89.4241 32.176 89.9041 32.528C90.2401 32.752 90.7281 33.056 91.3681 33.44C92.0241 33.808 92.4241 34.04 92.5681 34.136C93.4321 34.664 94.1521 35.328 94.7281 36.128C95.3201 36.912 95.6881 37.784 95.8321 38.744C95.9761 39.688 95.7201 40.608 95.0641 41.504C94.4561 42.352 93.6881 42.952 92.7601 43.304C91.4321 43.816 90.3121 44.016 89.4001 43.904ZM114.457 45.392C114.777 45.712 114.945 46.088 114.961 46.52C114.993 46.968 114.905 47.384 114.697 47.768C114.505 48.152 114.241 48.496 113.905 48.8C113.025 49.568 111.913 49.896 110.569 49.784C109.241 49.688 108.185 49.208 107.401 48.344C106.745 47.624 106.289 46.672 106.033 45.488C105.985 45.296 105.913 44.768 105.817 43.904C105.769 43.552 105.737 43.216 105.721 42.896C105.721 42.88 105.713 42.8 105.697 42.656C105.697 42.496 105.697 42.368 105.697 42.272C105.697 42.16 105.713 42.08 105.745 42.032C105.489 42.48 105.137 42.848 104.689 43.136C103.409 43.952 101.849 44.12 100.009 43.64C99.2091 43.432 98.5851 43.008 98.1371 42.368C97.6891 41.712 97.4731 40.968 97.4891 40.136C97.5051 38.968 97.9291 38 98.7611 37.232C99.6091 36.464 100.617 36.064 101.785 36.032C102.313 36.016 102.825 36.072 103.321 36.2C103.705 36.296 104.009 36.408 104.233 36.536C104.697 36.792 104.929 36.984 104.929 37.112C104.993 36.392 104.993 35.672 104.929 34.952C104.865 34.04 104.729 33.408 104.521 33.056C104.297 32.672 104.001 32.456 103.633 32.408C103.441 32.392 103.233 32.416 103.009 32.48C102.785 32.544 102.617 32.648 102.505 32.792C102.441 32.888 102.385 33.008 102.337 33.152C102.305 33.28 102.289 33.384 102.289 33.464C102.289 33.544 102.289 33.68 102.289 33.872C102.305 34.064 102.313 34.176 102.313 34.208C102.313 34.4 102.297 34.544 102.265 34.64C102.201 34.928 102.033 35.16 101.761 35.336C101.217 35.704 100.625 35.776 99.9851 35.552C99.3611 35.328 99.0011 34.888 98.9051 34.232C98.7931 33.4 99.0971 32.648 99.8171 31.976C100.553 31.304 101.369 30.864 102.265 30.656C103.465 30.368 104.625 30.384 105.745 30.704C107.153 31.136 108.129 31.88 108.673 32.936C108.753 33.112 108.825 33.312 108.889 33.536C108.953 33.744 109.001 33.928 109.033 34.088C109.065 34.232 109.081 34.448 109.081 34.736C109.097 35.024 109.105 35.224 109.105 35.336C109.105 35.448 109.105 35.672 109.105 36.008C109.105 36.328 109.105 36.52 109.105 36.584C109.057 37.832 109.049 39.264 109.081 40.88C109.129 42.496 109.257 43.92 109.465 45.152C109.625 46.08 109.897 46.752 110.281 47.168C110.697 47.632 111.297 47.96 112.081 48.152C111.441 47.656 111.201 47.048 111.361 46.328C111.537 45.624 111.937 45.168 112.561 44.96C113.185 44.752 113.817 44.896 114.457 45.392ZM101.569 41.624C101.969 41.32 102.305 40.888 102.577 40.328C102.865 39.752 103.009 39.216 103.009 38.72C103.025 38.224 102.897 37.912 102.625 37.784C102.353 37.64 102.017 37.72 101.617 38.024C101.233 38.328 100.897 38.768 100.609 39.344C100.321 39.904 100.169 40.432 100.153 40.928C100.153 41.424 100.289 41.744 100.561 41.888C100.849 42.016 101.185 41.928 101.569 41.624ZM116.718 43.712C116.734 43.808 116.734 43.88 116.718 43.928C116.686 44.04 116.534 44.104 116.262 44.12C116.182 44.136 115.894 44.136 115.398 44.12C114.902 44.12 114.614 44.12 114.534 44.12C113.318 44.12 112.47 44.128 111.99 44.144C111.686 44.144 111.574 44.008 111.654 43.736C111.782 43.272 111.886 42.792 111.966 42.296C112.062 41.8 112.118 41.264 112.134 40.688C112.166 40.112 112.182 39.632 112.182 39.248C112.198 38.864 112.198 38.328 112.182 37.64C112.166 36.952 112.158 36.456 112.158 36.152C112.158 33.544 112.158 31.16 112.158 29C112.158 28.6 112.126 28.288 112.062 28.064C111.966 27.76 111.822 27.52 111.63 27.344C111.39 27.12 111.278 26.872 111.294 26.6C111.31 26.312 111.462 26.088 111.75 25.928C111.926 25.816 112.23 25.656 112.662 25.448C113.382 25.112 114.142 24.432 114.942 23.408C114.958 23.392 114.974 23.376 114.99 23.36C115.006 23.328 115.014 23.312 115.014 23.312C115.286 22.96 115.558 22.824 115.83 22.904C116.102 22.984 116.238 23.256 116.238 23.72C116.254 25.096 116.254 26.224 116.238 27.104C116.222 27.776 116.19 28.704 116.142 29.888C116.11 31.072 116.078 32.16 116.046 33.152C116.03 34.128 116.022 35.048 116.022 35.912C116.038 37.512 116.078 38.848 116.142 39.92C116.19 40.704 116.246 41.344 116.31 41.84C116.358 42.208 116.414 42.552 116.478 42.872C116.51 42.952 116.55 43.088 116.598 43.28C116.662 43.472 116.702 43.616 116.718 43.712ZM130.942 30.992C130.942 31.088 130.91 31.184 130.846 31.28C130.75 31.424 130.574 31.552 130.318 31.664C130.062 31.76 129.886 31.856 129.79 31.952C129.47 32.256 129.142 32.904 128.806 33.896C127.734 37.048 126.958 39.304 126.478 40.664C125.998 42.024 125.694 42.856 125.566 43.16C125.438 43.464 125.326 43.672 125.23 43.784C125.022 43.992 124.774 44.08 124.486 44.048C124.214 44.016 123.99 43.896 123.814 43.688C123.67 43.528 123.35 42.816 122.854 41.552C122.374 40.272 121.79 38.688 121.102 36.8C120.43 34.896 119.99 33.672 119.782 33.128C119.622 32.696 119.35 32.392 118.966 32.216C118.886 32.168 118.718 32.112 118.462 32.048C118.222 31.968 118.038 31.888 117.91 31.808C117.766 31.712 117.678 31.592 117.646 31.448C117.63 31.4 117.622 31.336 117.622 31.256C117.622 31.048 117.678 30.896 117.79 30.8C117.87 30.72 118.038 30.672 118.294 30.656C118.486 30.64 118.71 30.632 118.966 30.632C119.078 30.632 119.278 30.64 119.566 30.656C119.854 30.656 120.07 30.648 120.214 30.632C120.998 30.632 121.782 30.648 122.566 30.68C122.614 30.68 122.774 30.68 123.046 30.68C123.318 30.68 123.526 30.688 123.67 30.704C123.766 30.72 123.83 30.744 123.862 30.776C123.958 30.84 124.014 30.936 124.03 31.064C124.046 31.176 124.038 31.288 124.006 31.4C123.974 31.496 123.934 31.616 123.886 31.76C123.854 31.888 123.846 31.984 123.862 32.048C123.862 32.192 123.91 32.464 124.006 32.864C124.166 33.488 124.43 34.312 124.798 35.336C124.99 35.928 125.174 36.448 125.35 36.896C125.526 37.36 125.63 37.608 125.662 37.64C125.886 37.912 126.102 37.728 126.31 37.088C126.406 36.784 126.494 36.496 126.574 36.224C127.038 34.768 127.35 33.728 127.51 33.104C127.606 32.752 127.67 32.48 127.702 32.288C127.734 32.112 127.726 31.976 127.678 31.88C127.63 31.784 127.51 31.656 127.318 31.496C127.142 31.32 127.03 31.152 126.982 30.992C126.95 30.832 126.99 30.728 127.102 30.68C127.134 30.664 127.182 30.648 127.246 30.632C127.582 30.616 128.23 30.6 129.19 30.584C129.814 30.584 130.254 30.608 130.51 30.656C130.702 30.688 130.83 30.752 130.894 30.848C130.91 30.88 130.926 30.928 130.942 30.992ZM146.731 45.392C147.051 45.712 147.219 46.088 147.235 46.52C147.267 46.968 147.179 47.384 146.971 47.768C146.779 48.152 146.515 48.496 146.179 48.8C145.299 49.568 144.187 49.896 142.843 49.784C141.515 49.688 140.459 49.208 139.675 48.344C139.019 47.624 138.563 46.672 138.307 45.488C138.259 45.296 138.187 44.768 138.091 43.904C138.043 43.552 138.011 43.216 137.995 42.896C137.995 42.88 137.987 42.8 137.971 42.656C137.971 42.496 137.971 42.368 137.971 42.272C137.971 42.16 137.987 42.08 138.019 42.032C137.763 42.48 137.411 42.848 136.963 43.136C135.683 43.952 134.123 44.12 132.283 43.64C131.483 43.432 130.859 43.008 130.411 42.368C129.963 41.712 129.747 40.968 129.763 40.136C129.779 38.968 130.203 38 131.035 37.232C131.883 36.464 132.891 36.064 134.059 36.032C134.587 36.016 135.099 36.072 135.595 36.2C135.979 36.296 136.283 36.408 136.507 36.536C136.971 36.792 137.203 36.984 137.203 37.112C137.267 36.392 137.267 35.672 137.203 34.952C137.139 34.04 137.003 33.408 136.795 33.056C136.571 32.672 136.275 32.456 135.907 32.408C135.715 32.392 135.507 32.416 135.283 32.48C135.059 32.544 134.891 32.648 134.779 32.792C134.715 32.888 134.659 33.008 134.611 33.152C134.579 33.28 134.562 33.384 134.562 33.464C134.562 33.544 134.562 33.68 134.562 33.872C134.579 34.064 134.587 34.176 134.587 34.208C134.587 34.4 134.571 34.544 134.539 34.64C134.475 34.928 134.307 35.16 134.035 35.336C133.491 35.704 132.899 35.776 132.259 35.552C131.635 35.328 131.275 34.888 131.179 34.232C131.067 33.4 131.371 32.648 132.09 31.976C132.827 31.304 133.643 30.864 134.539 30.656C135.739 30.368 136.899 30.384 138.019 30.704C139.427 31.136 140.403 31.88 140.947 32.936C141.027 33.112 141.099 33.312 141.163 33.536C141.227 33.744 141.275 33.928 141.307 34.088C141.339 34.232 141.355 34.448 141.355 34.736C141.371 35.024 141.379 35.224 141.379 35.336C141.379 35.448 141.379 35.672 141.379 36.008C141.379 36.328 141.379 36.52 141.379 36.584C141.331 37.832 141.323 39.264 141.355 40.88C141.403 42.496 141.531 43.92 141.739 45.152C141.899 46.08 142.171 46.752 142.555 47.168C142.971 47.632 143.571 47.96 144.355 48.152C143.715 47.656 143.475 47.048 143.635 46.328C143.811 45.624 144.211 45.168 144.835 44.96C145.459 44.752 146.091 44.896 146.731 45.392ZM133.843 41.624C134.243 41.32 134.579 40.888 134.851 40.328C135.139 39.752 135.283 39.216 135.283 38.72C135.299 38.224 135.171 37.912 134.898 37.784C134.627 37.64 134.291 37.72 133.891 38.024C133.507 38.328 133.171 38.768 132.883 39.344C132.595 39.904 132.443 40.432 132.427 40.928C132.427 41.424 132.563 41.744 132.835 41.888C133.123 42.016 133.459 41.928 133.843 41.624ZM153.436 32.168C153.628 33.608 153.252 34.6 152.308 35.144C151.348 35.704 150.612 35.544 150.1 34.664C150.068 34.6 150.02 34.536 149.956 34.472C149.54 33.912 149.1 33.712 148.636 33.872C148.54 33.904 148.452 33.944 148.372 33.992C148.292 34.024 148.22 34.08 148.156 34.16C148.108 34.224 148.06 34.288 148.012 34.352C147.98 34.4 147.948 34.48 147.916 34.592C147.9 34.688 147.884 34.76 147.868 34.808C147.852 34.856 147.836 34.944 147.82 35.072C147.82 35.2 147.82 35.288 147.82 35.336C147.82 35.384 147.82 35.48 147.82 35.624C147.82 35.752 147.82 35.832 147.82 35.864C147.804 37.4 147.804 38.488 147.82 39.128C147.82 39.224 147.812 39.552 147.796 40.112C147.796 40.672 147.796 41.064 147.796 41.288C147.812 41.496 147.844 41.8 147.892 42.2C147.94 42.6 148.02 42.952 148.132 43.256C148.26 43.608 148.252 43.832 148.108 43.928C148.012 43.976 147.868 44 147.676 44C146.748 44.016 146.052 44.024 145.588 44.024C144.324 44.024 143.692 44.024 143.692 44.024C143.404 43.992 143.3 43.84 143.38 43.568C143.492 43.232 143.58 42.888 143.644 42.536C143.724 42.184 143.772 41.808 143.788 41.408C143.82 40.992 143.836 40.648 143.836 40.376C143.852 40.104 143.852 39.72 143.836 39.224C143.836 38.728 143.836 38.376 143.836 38.168C143.852 37.192 143.844 36.536 143.812 36.2C143.748 35.336 143.652 34.696 143.524 34.28C143.348 33.704 143.484 33.216 143.932 32.816C144.7 32.16 145.492 31.52 146.308 30.896C146.548 30.72 146.844 30.6 147.196 30.536C147.42 30.488 147.588 30.52 147.7 30.632C147.828 30.744 147.892 30.92 147.892 31.16C147.892 31.224 147.892 31.624 147.892 32.36C148.82 31.688 149.316 31.328 149.38 31.28C150.148 30.816 150.852 30.576 151.492 30.56C151.956 30.56 152.38 30.712 152.764 31.016C153.148 31.304 153.372 31.688 153.436 32.168Z" fill="#03023E"/>
</g>
<defs>
<filter id="filter0_d_70_64" x="0" y="0" width="253.175" height="92.9211" filterUnits="userSpaceOnUse" color-interpolation-filters="sRGB">
<feFlood flood-opacity="0" result="BackgroundImageFix"/>
<feColorMatrix in="SourceAlpha" type="matrix" values="0 0 0 0 0 0 0 0 0 0 0 0 0 0 0 0 0 0 127 0" result="hardAlpha"/>
<feOffset dy="4"/>
<feGaussianBlur stdDeviation="2"/>
<feComposite in2="hardAlpha" operator="out"/>
<feColorMatrix type="matrix" values="0 0 0 0 0 0 0 0 0 0 0 0 0 0 0 0 0 0 0.25 0"/>
<feBlend mode="normal" in2="BackgroundImageFix" result="effect1_dropShadow_70_64"/>
<feBlend mode="normal" in="SourceGraphic" in2="effect1_dropShadow_70_64" result="shape"/>
</filter>
<clipPath id="clip0_70_64">
<rect width="34" height="31" fill="white" transform="translate(4 69.4856) rotate(-60.1376)"/>
</clipPath>
<clipPath id="clip1_70_64">
<rect width="31" height="28" fill="white" transform="translate(208 16.6039) rotate(-32.3852)"/>
</clipPath>
</defs>
</svg>
