<svg width="238" height="95" viewBox="0 0 238 95" fill="none" xmlns="http://www.w3.org/2000/svg">
<g filter="url(#filter0_d_70_68)">
<g clip-path="url(#clip0_70_68)">
<path d="M174.334 13.7148C173.928 13.7748 173.497 13.7547 173.048 13.7089C172.059 13.6057 171.095 13.2947 170.258 12.7635C169.021 11.9782 168.165 10.7543 167.645 9.40521C167.465 8.9399 167.475 8.41334 167.514 7.87924C167.571 7.09858 167.708 6.31247 167.954 5.56638C168.2 4.82029 168.527 4.17021 169.072 3.62668C169.558 3.13916 170.105 2.69628 170.741 2.42114C171.954 1.89849 173.519 1.925 174.676 2.57411C175.225 2.88238 175.732 3.29054 176.08 3.81935C176.595 4.59987 176.637 5.53326 176.458 6.43212C176.155 7.96342 174.949 9.1909 173.366 9.35341C172.646 9.42734 171.865 9.29309 171.273 8.86817C170.659 8.42828 170.332 7.64941 170.442 6.90563C170.52 6.3838 170.79 5.86843 171.168 5.49535C171.655 5.01159 172.46 4.95254 173.091 5.13756C173.364 5.21808 173.691 5.351 173.78 5.64482C173.855 5.89396 174.335 6.07675 174.221 5.69195C173.973 4.86373 172.99 4.5078 172.194 4.51705C171.506 4.52429 170.95 4.77204 170.533 5.31194C170.117 5.85184 169.878 6.57275 169.964 7.26839C170.073 8.13987 170.619 8.94952 171.367 9.40531C172.755 10.2504 174.642 9.99381 175.799 8.86678C177.168 7.52347 177.449 5.19233 176.375 3.60966C175.953 2.98617 175.352 2.48122 174.694 2.11741C174.209 1.84842 173.756 1.70922 173.199 1.61887C172.215 1.46023 171.198 1.54095 170.29 1.97141C169.608 2.29507 169.015 2.78378 168.506 3.33664C167.917 3.97633 167.593 4.81111 167.369 5.63427C167.144 6.45743 167.029 7.24753 167.016 8.06454C167.012 8.34295 167.012 8.62617 167.062 8.9013C167.132 9.2982 167.323 9.67917 167.493 10.0406C167.857 10.8189 168.339 11.5408 168.933 12.166C170.336 13.6396 172.458 14.449 174.507 14.2538C174.546 14.2505 174.582 14.2462 174.62 14.2411C174.878 14.2046 174.571 13.6827 174.333 13.7175L174.334 13.7148Z" fill="#FDDFFC"/>
</g>
<g clip-path="url(#clip1_70_68)">
<path d="M22.5012 34.7641C22.8189 31.5022 19.1096 29.7325 16.3305 30.8429C13.5688 31.9475 12.3959 35.8571 13.5803 38.4597C14.1812 39.7841 15.0594 40.9697 16.2381 41.8372C17.9194 43.0749 20.0225 43.3756 22.0563 43.1269C23.8532 42.9129 25.6385 42.3057 27.1523 41.3109C32.4967 37.8004 31.5087 30.2009 27.8571 25.794C22.2123 18.9869 10.339 21.9538 7.25372 29.825C5.82084 33.4744 5.56084 37.5343 6.75106 41.2993C8.03372 45.342 11.0439 48.4477 14.1408 51.2064C17.7519 54.422 22.0274 57.4293 26.6843 58.8868C28.6256 59.494 30.6536 59.8931 32.6469 60.2864C37.7024 61.2985 42.8157 61.9983 47.9405 62.513C50.9912 62.8195 54.0938 62.8831 57.104 63.5193C60.7845 64.2943 64.9618 65.7922 66.984 69.2044C69.5377 73.5131 68.18 79.1577 64.7595 82.5641C62.3907 84.9238 59.2418 86.1036 55.9543 85.9185C53.649 85.7855 51.0663 84.7965 49.5525 82.9805C48.2468 81.4132 47.3801 79.1056 47.2414 77.093C47.097 74.9358 47.8828 72.6398 49.4312 71.1187C50.2459 70.3206 51.257 69.7828 52.3721 69.5398C52.8459 69.4357 53.3485 69.3779 53.8281 69.3837C53.9956 69.3837 53.701 69.3663 53.8396 69.3837C53.9494 69.401 54.0592 69.4242 54.1632 69.4415C55.7174 69.7538 57.3872 70.4016 58.3694 71.7144C59.5769 73.3338 59.5018 76.2775 58.1267 77.787C56.9827 79.042 55.1801 79.1288 53.649 78.6372C53.0539 78.4463 51.6845 79.3139 52.6436 79.6262C54.4694 80.2161 56.5609 80.0715 58.2423 79.1172C60.0449 78.0878 60.9174 76.2139 60.848 74.1666C60.7729 71.9458 59.7502 70.3148 57.7512 69.3259C56.7285 68.8169 55.4747 68.3658 54.3192 68.3369C49.5757 68.2039 45.5832 72.0556 45.5312 76.7807C45.5081 79.1346 46.4499 81.4306 47.7614 83.3507C48.9285 85.0626 51.2165 86.1846 53.181 86.6588C61.0791 88.5673 69.9768 82.3906 69.9826 74.022C69.9826 71.7549 69.324 69.4358 67.9084 67.6371C66.6835 66.0871 64.9675 64.9652 63.1822 64.1555C60.2067 62.8079 56.9076 62.1371 53.6605 61.8999C45.485 61.2985 37.2575 60.3326 29.29 58.3316C26.43 57.6144 23.7954 56.3363 21.2994 54.7632C17.359 52.2821 13.6843 49.107 10.807 45.4287C7.92972 41.7505 7.05728 36.7015 8.13194 32.15C8.25327 31.641 8.39771 31.1321 8.57682 30.6405C8.62305 30.5132 8.57682 30.6289 8.56527 30.6578C8.65193 30.4091 8.7386 30.1547 8.83104 29.906C9.06215 29.2872 9.35682 28.6915 9.6977 28.1247C10.8359 26.2393 12.5635 24.8223 14.5799 23.9722C18.1563 22.4627 22.3972 22.7172 25.3265 25.4354C26.9385 26.9333 28.1922 28.9864 28.7469 31.1263C29.6367 34.5327 29.3478 38.4944 26.2163 40.6343C25.286 41.2704 24.3789 41.629 23.3794 41.8893C23.1945 41.9355 23.0154 41.976 22.8305 42.0165C22.5763 42.0685 22.9923 41.9934 22.7612 42.0281C22.6918 42.0396 22.6283 42.0512 22.5589 42.0628C22.2585 42.1032 21.9581 42.1437 21.6576 42.1611C18.4914 42.3693 15.8741 40.1311 14.9381 37.2047C14.5279 35.9208 14.9381 34.3245 15.5506 33.1736C15.9492 32.4218 16.5385 31.6121 17.463 31.6005C18.3874 31.589 19.3985 31.8492 20.0456 32.5664C20.6176 33.1968 20.9007 34.1857 20.8256 34.9491C20.7505 35.7126 22.4492 35.406 22.5069 34.7699L22.5012 34.7641Z" fill="#FDDFFC"/>
</g>
<rect x="4" y="12" width="230" height="56" rx="28" fill="#FDDFFC"/>
<path d="M103.353 34.688C103.353 34.992 103.353 35.272 103.353 35.528C103.321 37.224 103.345 38.92 103.425 40.616C103.473 41.672 103.577 42.536 103.737 43.208C103.785 43.4 103.793 43.536 103.761 43.616C103.745 43.696 103.713 43.76 103.665 43.808C103.617 43.84 103.545 43.864 103.449 43.88C103.369 43.896 103.297 43.912 103.233 43.928C103.185 43.928 103.105 43.928 102.993 43.928C102.881 43.912 102.809 43.904 102.777 43.904C102.617 43.904 102.369 43.904 102.033 43.904C101.713 43.904 101.473 43.904 101.313 43.904C101.249 43.904 101.017 43.92 100.617 43.952C100.217 43.984 99.873 44 99.585 44C99.313 44 99.025 43.96 98.721 43.88C98.433 43.784 98.257 43.632 98.193 43.424C98.177 43.344 98.185 43.224 98.217 43.064C98.553 41.496 98.753 39.76 98.817 37.856C98.897 35.936 98.889 34.184 98.793 32.6C98.777 32.232 98.761 31.928 98.745 31.688C98.617 32.136 98.513 32.504 98.433 32.792C97.601 35.72 97.113 37.464 96.969 38.024C96.841 38.488 96.665 39.168 96.441 40.064C96.217 40.96 96.049 41.616 95.937 42.032C95.809 42.528 95.641 43.024 95.433 43.52C95.401 43.584 95.337 43.648 95.241 43.712C95.145 43.776 95.065 43.808 95.001 43.808C94.649 43.808 94.401 43.752 94.257 43.64C94.113 43.512 93.985 43.264 93.873 42.896C93.457 41.52 92.865 39.568 92.097 37.04C91.345 34.512 90.833 32.792 90.561 31.88C90.545 31.832 90.417 31.4 90.177 30.584C90.161 30.584 90.137 30.584 90.105 30.584C90.073 30.584 90.049 30.592 90.033 30.608C90.033 32.928 90.033 34.176 90.033 34.352C90.033 35.552 90.057 36.976 90.105 38.624C90.169 40.384 90.305 41.704 90.513 42.584C90.529 42.616 90.561 42.704 90.609 42.848C90.657 42.992 90.689 43.12 90.705 43.232C90.721 43.328 90.729 43.432 90.729 43.544C90.745 43.656 90.713 43.744 90.633 43.808C90.569 43.872 90.473 43.904 90.345 43.904C89.913 43.904 89.497 43.904 89.097 43.904C89.049 43.904 88.961 43.912 88.833 43.928C88.721 43.928 88.617 43.928 88.521 43.928C88.441 43.928 88.353 43.92 88.257 43.904C88.161 43.888 88.081 43.856 88.017 43.808C87.953 43.76 87.913 43.696 87.897 43.616C87.881 43.52 87.881 43.416 87.897 43.304C87.913 43.192 87.945 43.072 87.993 42.944C88.041 42.8 88.073 42.704 88.089 42.656C88.153 42.352 88.209 42.032 88.257 41.696C88.401 40.672 88.465 39.32 88.449 37.64C88.401 34.36 88.369 32.472 88.353 31.976C88.321 31.128 88.265 30.288 88.185 29.456C88.153 28.944 88.105 28.632 88.041 28.52C88.009 28.456 87.953 28.376 87.873 28.28C87.809 28.168 87.753 28.072 87.705 27.992C87.673 27.896 87.657 27.8 87.657 27.704C87.657 27.608 87.673 27.536 87.705 27.488C87.769 27.376 87.937 27.312 88.209 27.296C89.201 27.296 90.769 27.304 92.913 27.32C93.329 27.32 93.609 27.384 93.753 27.512C93.865 27.624 93.969 27.792 94.065 28.016C94.145 28.192 94.233 28.472 94.329 28.856C94.457 29.304 94.641 29.984 94.881 30.896C95.137 31.792 95.329 32.472 95.457 32.936C95.473 32.984 95.489 33.056 95.505 33.152C95.521 33.232 95.537 33.28 95.553 33.296C95.681 33.808 95.793 34.216 95.889 34.52C95.969 34.728 96.033 34.88 96.081 34.976C96.113 35.04 96.137 35.072 96.153 35.072C96.201 35.088 96.233 35.072 96.249 35.024C96.281 34.976 96.305 34.92 96.321 34.856C96.369 34.68 96.457 34.376 96.585 33.944C96.697 33.528 96.809 33.12 96.921 32.72C96.969 32.512 97.017 32.304 97.065 32.096C97.177 31.712 97.233 31.512 97.233 31.496C97.409 30.76 97.577 30.024 97.737 29.288C97.881 28.616 97.961 28.248 97.977 28.184C97.977 28.152 97.977 28.072 97.977 27.944C97.993 27.816 98.009 27.704 98.025 27.608C98.041 27.512 98.073 27.448 98.121 27.416C98.313 27.304 98.625 27.24 99.057 27.224C101.345 27.208 102.857 27.232 103.593 27.296C103.833 27.312 103.969 27.392 104.001 27.536C104.017 27.6 104.001 27.696 103.953 27.824C103.681 28.608 103.513 29.536 103.449 30.608C103.401 31.136 103.369 32.496 103.353 34.688ZM116.799 39.392C116.863 39.44 116.911 39.52 116.943 39.632C117.039 39.936 116.943 40.424 116.655 41.096C116.223 42.184 115.479 43 114.423 43.544C113.367 44.072 112.239 44.272 111.039 44.144C110.991 44.144 110.935 44.136 110.871 44.12C109.575 43.96 108.447 43.448 107.487 42.584C106.655 41.848 106.071 40.92 105.735 39.8C105.399 38.68 105.319 37.552 105.495 36.416C105.687 35.264 106.095 34.232 106.719 33.32C107.423 32.296 108.191 31.592 109.023 31.208C109.983 30.76 111.047 30.632 112.215 30.824C113.815 31.08 115.079 31.712 116.007 32.72C116.919 33.728 117.207 35.048 116.871 36.68C116.759 37.224 116.535 37.712 116.199 38.144C115.799 38.704 115.255 39.12 114.567 39.392C113.927 39.68 113.247 39.8 112.527 39.752C111.519 39.704 110.751 39.4 110.223 38.84C110.207 38.84 110.191 38.832 110.175 38.816C110.143 38.816 110.127 38.848 110.127 38.912C110.111 39.264 110.255 39.616 110.559 39.968C110.831 40.272 111.151 40.504 111.519 40.664C112.383 41.016 113.263 41.104 114.159 40.928C114.591 40.848 115.015 40.648 115.431 40.328C115.479 40.296 115.599 40.176 115.791 39.968C115.983 39.76 116.167 39.6 116.343 39.488C116.535 39.36 116.687 39.328 116.799 39.392ZM111.807 33.56C111.423 33.864 111.087 34.296 110.799 34.856C110.527 35.416 110.383 35.952 110.367 36.464C110.367 36.96 110.503 37.28 110.775 37.424C111.047 37.552 111.383 37.464 111.783 37.16C112.183 36.856 112.519 36.424 112.791 35.864C113.079 35.288 113.223 34.752 113.223 34.256C113.239 33.76 113.103 33.448 112.815 33.32C112.543 33.176 112.207 33.256 111.807 33.56ZM136.14 45.464C136.476 45.784 136.652 46.16 136.668 46.592C136.7 47.04 136.612 47.456 136.404 47.84C136.212 48.224 135.948 48.568 135.612 48.872C134.732 49.64 133.62 49.968 132.276 49.856C130.948 49.76 129.884 49.28 129.084 48.416C128.236 47.488 127.724 46.232 127.548 44.648C127.356 42.952 127.252 41.248 127.236 39.536C127.236 39.184 127.236 38.848 127.236 38.528C127.236 38.192 127.228 37.848 127.212 37.496C127.212 37.128 127.196 36.784 127.164 36.464C127.148 36.144 127.108 35.808 127.044 35.456C126.98 35.104 126.9 34.768 126.804 34.448C126.676 34.064 126.452 33.72 126.132 33.416C125.828 33.096 125.484 32.912 125.1 32.864C124.732 32.8 124.372 32.952 124.02 33.32C123.572 33.784 123.236 34.44 123.012 35.288C122.58 36.968 122.468 38.736 122.676 40.592C122.756 41.392 122.932 42.264 123.204 43.208C123.332 43.656 123.316 43.92 123.156 44C123.092 44.032 122.996 44.056 122.868 44.072C121.476 44.088 120.204 44.072 119.052 44.024C118.748 44.008 118.572 43.92 118.524 43.76C118.508 43.68 118.508 43.6 118.524 43.52C118.556 43.44 118.588 43.344 118.62 43.232C118.668 43.104 118.7 43.024 118.716 42.992C118.812 42.672 118.892 42.336 118.956 41.984C119.084 41.36 119.172 40.688 119.22 39.968C119.396 37.664 119.332 35.816 119.028 34.424C118.932 34.168 118.884 33.88 118.884 33.56C118.9 33.24 119.004 32.968 119.196 32.744C119.34 32.568 119.588 32.36 119.94 32.12C120.868 31.48 121.34 31.16 121.356 31.16C121.388 31.128 121.468 31.064 121.596 30.968C121.74 30.856 121.844 30.776 121.908 30.728C121.988 30.68 122.084 30.64 122.196 30.608C122.324 30.56 122.444 30.552 122.556 30.584C122.684 30.616 122.772 30.672 122.82 30.752C122.868 30.832 122.916 30.96 122.964 31.136C122.98 31.168 122.988 31.192 122.988 31.208C123.004 31.208 123.012 31.208 123.012 31.208C123.044 31.24 123.132 31.216 123.276 31.136C124.108 30.736 125.012 30.608 125.988 30.752C126.868 30.864 127.692 31.208 128.46 31.784C128.62 31.896 128.772 32.016 128.916 32.144C130.036 33.152 130.636 34.488 130.716 36.152C130.748 36.664 130.756 37.392 130.74 38.336C130.74 39.28 130.74 40.016 130.74 40.544C130.804 42.272 130.884 43.504 130.98 44.24C131.156 45.696 131.484 46.696 131.964 47.24C132.38 47.704 132.988 48.032 133.788 48.224C133.132 47.728 132.892 47.12 133.068 46.4C133.244 45.696 133.644 45.24 134.268 45.032C134.892 44.824 135.516 44.968 136.14 45.464ZM149.81 45.536C150.146 45.856 150.322 46.232 150.338 46.664C150.354 47.112 150.258 47.528 150.05 47.912C149.858 48.296 149.602 48.64 149.282 48.944C148.402 49.712 147.29 50.04 145.946 49.928C144.618 49.832 143.554 49.352 142.754 48.488C142.066 47.752 141.61 46.864 141.386 45.824C141.178 44.8 141.082 43.64 141.098 42.344C140.762 42.856 140.306 43.288 139.73 43.64C139.17 43.976 138.586 44.144 137.978 44.144C136.778 44.144 135.778 43.824 134.978 43.184C134.482 42.784 134.13 42.336 133.922 41.84C133.73 41.328 133.626 40.704 133.61 39.968C133.61 39.92 133.61 39.848 133.61 39.752C133.594 39.352 133.578 38.784 133.562 38.048C133.546 37.296 133.538 36.776 133.538 36.488C133.506 35.544 133.482 34.96 133.466 34.736C133.434 34.448 133.346 34.032 133.202 33.488C133.074 32.944 133.002 32.624 132.986 32.528C132.954 32.448 132.946 32.368 132.962 32.288C132.994 32.208 133.042 32.136 133.106 32.072C133.186 31.992 133.266 31.928 133.346 31.88C133.442 31.816 133.578 31.752 133.754 31.688C133.93 31.608 134.09 31.536 134.234 31.472C134.394 31.408 134.61 31.32 134.882 31.208C135.17 31.096 135.434 30.992 135.674 30.896C136.17 30.688 136.554 30.592 136.826 30.608C137.066 30.608 137.266 30.688 137.426 30.848C137.602 31.008 137.682 31.208 137.666 31.448C137.666 31.528 137.642 31.656 137.594 31.832C137.562 32.008 137.546 32.112 137.546 32.144C137.45 32.672 137.386 33.256 137.354 33.896C137.242 35.944 137.258 37.584 137.402 38.816C137.402 38.896 137.41 38.976 137.426 39.056C137.57 40.192 137.826 40.928 138.194 41.264C138.434 41.488 138.746 41.608 139.13 41.624C139.514 41.624 139.834 41.52 140.09 41.312C140.554 40.992 140.826 40.12 140.906 38.696C140.986 37.256 140.962 35.92 140.834 34.688C140.706 33.44 140.586 32.6 140.474 32.168C140.41 31.896 140.418 31.704 140.498 31.592C140.578 31.464 140.762 31.36 141.05 31.28C141.258 31.232 141.562 31.128 141.962 30.968C142.362 30.808 142.602 30.712 142.682 30.68C143.674 30.328 144.298 30.36 144.554 30.776C144.65 30.936 144.698 31.296 144.698 31.856C144.698 32.688 144.658 34.384 144.578 36.944C144.498 39.952 144.482 41.864 144.53 42.68C144.53 42.696 144.53 42.848 144.53 43.136C144.546 43.408 144.554 43.568 144.554 43.616C144.57 43.664 144.586 43.816 144.602 44.072C144.618 44.344 144.634 44.52 144.65 44.6C144.666 44.696 144.69 44.856 144.722 45.08C144.754 45.32 144.786 45.496 144.818 45.608C144.866 45.72 144.914 45.872 144.962 46.064C145.01 46.256 145.066 46.408 145.13 46.52C145.194 46.648 145.266 46.784 145.346 46.928C145.442 47.072 145.538 47.2 145.634 47.312C146.05 47.776 146.65 48.104 147.434 48.296C146.794 47.8 146.562 47.192 146.738 46.472C146.914 45.768 147.306 45.312 147.914 45.104C148.538 44.896 149.17 45.04 149.81 45.536Z" fill="#03023E"/>
</g>
<defs>
<filter id="filter0_d_70_68" x="0" y="0" width="238" height="95" filterUnits="userSpaceOnUse" color-interpolation-filters="sRGB">
<feFlood flood-opacity="0" result="BackgroundImageFix"/>
<feColorMatrix in="SourceAlpha" type="matrix" values="0 0 0 0 0 0 0 0 0 0 0 0 0 0 0 0 0 0 127 0" result="hardAlpha"/>
<feOffset dy="4"/>
<feGaussianBlur stdDeviation="2"/>
<feComposite in2="hardAlpha" operator="out"/>
<feColorMatrix type="matrix" values="0 0 0 0 0 0 0 0 0 0 0 0 0 0 0 0 0 0 0.25 0"/>
<feBlend mode="normal" in2="BackgroundImageFix" result="effect1_dropShadow_70_68"/>
<feBlend mode="normal" in="SourceGraphic" in2="effect1_dropShadow_70_68" result="shape"/>
</filter>
<clipPath id="clip0_70_68">
<rect width="12.9916" height="10.7735" fill="white" transform="translate(174.914) rotate(66.9537)"/>
</clipPath>
<clipPath id="clip1_70_68">
<rect width="64" height="65" fill="white" transform="translate(6 22)"/>
</clipPath>
</defs>
</svg>
