<svg width="416" height="92" viewBox="0 0 416 92" fill="none" xmlns="http://www.w3.org/2000/svg">
<g clip-path="url(#clip0_73_2)">
<path d="M26.102 52.2133C28.7259 52.5014 31.5306 53.7909 33.251 55.7936C35.3978 58.2861 35.6508 61.6863 34.7183 64.7191C33.728 67.9536 31.892 71.1954 28.9211 72.9819C26.8321 74.2426 24.3671 74.5812 21.9673 74.3146C21.1288 74.221 20.312 74.0409 19.4807 73.8752C19.112 73.7959 19.1626 73.8248 18.8807 73.7455C10.5318 71.3322 7.70545 60.5625 8.21144 52.9481C8.60178 47.0337 11.7462 41.8686 16.3363 38.2019C17.3194 37.4166 18.353 36.7035 19.4084 36.0335C19.5385 35.9543 19.2132 36.1416 19.4228 36.0263C19.5024 35.9759 19.5891 35.9327 19.6686 35.8894C19.8782 35.7742 20.0879 35.6661 20.3047 35.5653C21.042 35.2195 21.5408 35.0322 22.1697 34.8233C23.16 34.4991 24.172 34.2398 25.1984 34.038C28.1693 33.4545 31.292 33.3249 34.328 33.4545C45.9153 33.966 57.2496 37.8705 67.7743 42.4881C71.8222 44.2675 75.9786 46.054 79.7519 48.3737C81.8554 49.6631 83.9878 50.9094 86.1346 52.1196C94.4619 56.8309 103.042 61.1172 111.839 64.8776C122.855 69.5817 134.32 73.5582 146.146 75.6329C151.827 76.6342 157.624 77.1745 163.4 76.8936C165.981 76.7711 168.677 76.6126 171.171 75.8778C175.703 74.5451 180.055 72.5137 184.074 70.0355C190.529 66.059 196.131 60.6129 199.687 53.8846C204.581 44.6277 204.928 33.8796 202.738 23.8086C202.188 21.2801 201.581 18.9028 200.41 16.5976C198.617 13.0749 195.972 10.0133 192.871 7.57121C184.168 0.698767 171.568 -1.94504 160.942 1.49119C156.092 3.06162 151.647 5.88552 148.452 9.88364C144.707 14.5733 142.98 20.4877 142.806 26.4236C142.647 31.985 145.177 37.6616 149.406 41.2635C151.357 42.9276 153.663 44.1522 156.085 44.9879C158.051 45.665 160.4 46.371 162.496 46.3278C164.773 46.2845 167.087 45.7515 169.205 44.9446C172.761 43.5903 175.833 41.0834 177.416 37.5751C178.45 35.2771 178.818 32.7342 178.768 30.2344C178.732 28.5199 178.58 26.8342 177.98 25.2134C176.231 20.4733 171.366 17.0875 166.226 17.6638C163.588 17.9591 161.268 19.3423 159.62 21.3953C158.398 22.9154 157.379 24.6155 157.256 26.5749C157.01 30.4794 158.123 34.9457 162.612 35.6229C163.4 35.7382 164.202 34.6216 163.154 34.4703C159.179 33.8724 158.224 28.7649 158.955 25.4223C159.179 24.4065 159.88 23.3476 160.473 22.4975C161.289 21.3305 162.316 20.286 163.588 19.616C165.634 18.5354 168.012 18.5859 170.159 19.3495C174.561 20.9271 176.874 25.0117 177.149 29.4564C177.423 33.9012 176.274 38.7493 172.573 41.7317C170.274 43.5831 167.311 44.6277 164.455 45.0095C161.21 45.4417 157.877 44.4476 154.943 43.1005C148.69 40.2405 144.577 33.8652 144.396 27.072C144.281 22.5984 145.343 17.9087 147.425 13.9466C149.854 9.32895 153.83 5.74144 158.586 3.60191C168.742 -0.97252 181.327 1.16701 190.283 7.44875C193.68 9.83321 196.572 12.9237 198.581 16.5544C199.637 18.4562 200.251 20.3868 200.764 22.4831C203.244 32.5685 203.301 43.439 198.588 52.9049C195.227 59.662 189.741 65.0937 183.38 69.0774C179.483 71.5195 175.24 73.479 170.947 74.754C168.605 75.4528 166.082 75.5897 163.653 75.7122C157.979 75.9931 152.275 75.4456 146.688 74.4659C134.985 72.4128 123.643 68.4507 112.743 63.797C104.047 60.0799 95.5678 55.8512 87.3418 51.1903C85.2311 49.9945 83.1276 48.7699 81.0602 47.502C77.6267 45.3985 73.8896 43.7416 70.2175 42.0847C59.5627 37.2798 48.1055 33.2024 36.352 32.3668C31.0607 31.985 25.4297 32.2155 20.4493 34.2326C19.6542 34.5567 18.9024 34.9385 18.1868 35.3996C13.5605 38.3603 9.54149 42.4449 7.71268 47.7037C5.88387 52.9625 6.38264 58.4446 7.92231 63.4945C9.10055 67.3701 11.2908 71.1017 14.7822 73.3277C16.4592 74.4011 18.2663 74.9197 20.1963 75.2727C24.8298 76.1156 29.5138 74.9486 32.7016 71.3755C36.8797 66.693 38.9759 58.4878 33.4967 53.9062C31.6318 52.343 29.0729 51.2984 26.6441 51.0319C25.8634 50.9454 25.0466 52.0692 26.102 52.1845V52.2133Z" fill="#FDDFFC"/>
<path d="M391.922 51.0679C389.291 51.3561 386.537 52.5015 384.563 54.252C381.903 56.6149 380.819 60.3104 381.621 63.761C382.294 66.6354 383.609 69.5025 385.626 71.678C388.922 75.2367 393.642 76.1156 398.283 75.1719C400.162 74.7901 401.89 74.2138 403.509 73.1404C407.044 70.8136 409.212 66.9812 410.383 63.0046C411.851 58.0052 412.27 52.3646 410.477 47.4012C408.685 42.4377 404.687 38.2451 400.112 35.3204C397.669 33.7571 394.676 33.0584 391.842 32.6477C383.638 31.4591 375.116 32.9359 367.208 35.1259C360.5 36.9844 353.98 39.513 347.647 42.3873C344.091 44.001 340.506 45.6218 337.173 47.6677C331.564 51.0967 325.644 54.3168 319.716 57.3064C309.705 62.3491 299.361 66.8299 288.67 70.2445C277.979 73.6591 265.965 76.4038 254.342 75.7194C252.043 75.5825 249.687 75.4312 247.475 74.7685C245.74 74.2498 244.034 73.6087 242.364 72.8955C236.495 70.3958 230.958 66.8659 226.491 62.2915C220.382 56.0458 216.703 47.9991 215.915 39.3113C215.395 33.541 216.11 27.6987 217.498 22.0941C218.026 19.969 218.575 18.2833 219.703 16.2518C224.691 7.2975 235.027 2.0315 245.053 1.24629C255.079 0.46107 266.009 4.89142 270.881 14.3068C274.032 20.394 274.994 28.1382 272.11 34.5063C270.281 38.5333 267.035 41.6165 262.973 43.367C261.65 43.9361 260.269 44.3612 258.867 44.6781C258.079 44.8582 257.291 45.0023 256.496 45.1104C256.474 45.1104 255.715 45.1968 255.932 45.1824C256.113 45.1752 255.809 45.1824 255.751 45.1824C255.592 45.1752 255.441 45.168 255.282 45.1536C254.819 45.1176 254.349 45.0671 253.894 45.0023C250.887 44.5701 247.916 43.4679 245.567 41.5084C241.866 38.418 240.76 33.5842 241.114 28.9522C241.439 24.6155 243.832 20.5741 248.205 19.2054C250.424 18.5138 252.831 18.6291 254.848 19.8538C256.113 20.6246 257.125 21.7123 257.927 22.9442C258.477 23.787 259.12 24.7452 259.293 25.7465C259.836 28.8441 259.236 33.9084 255.419 34.4775C255.101 34.5279 254.573 34.708 254.552 35.1042C254.537 35.4788 254.949 35.6589 255.274 35.6085C257.595 35.2627 259.438 33.9372 260.291 31.7257C260.97 29.9751 261.086 28.0517 260.949 26.1931C260.804 24.2409 259.684 22.4615 258.426 20.992C256.756 19.0541 254.443 17.7863 251.863 17.635C246.709 17.3396 241.873 20.7254 240.196 25.552C238.851 29.4348 239.155 34.319 240.926 38.0002C243.485 43.3238 249.701 46.263 255.47 46.299C257.761 46.3134 260.262 45.5498 262.394 44.7646C264.78 43.8929 267.042 42.6394 268.951 40.961C271.82 38.4396 273.772 35.1187 274.755 31.4447C275.254 29.5645 275.485 27.6555 275.399 25.7177C275.138 19.8754 273.389 14.0835 269.63 9.50907C263.023 1.48401 251.841 -1.26785 241.866 0.525905C231.89 2.31966 222.334 7.80176 217.737 16.9434C216.58 19.2414 215.988 21.6907 215.453 24.1977C214.253 29.759 213.805 35.5077 214.513 41.1699C215.597 49.7784 219.616 57.6882 225.84 63.725C230.459 68.213 236.025 71.6636 241.967 74.1201C243.557 74.7829 245.183 75.3736 246.846 75.8563C249.513 76.6343 252.412 76.7784 255.173 76.872C266.977 77.297 278.774 74.5956 289.928 70.9577C301.081 67.3197 311.071 62.9254 321.14 57.8179C327.032 54.8283 332.843 51.6514 338.467 48.1864C342.342 45.8019 346.643 43.9866 350.813 42.1712C357.081 39.4409 363.536 37.0925 370.179 35.45C377.566 33.6275 385.561 32.5037 393.107 34.0525C396.794 34.8089 399.266 36.1272 402.186 38.5405C406.682 42.2576 409.762 47.4948 410.051 53.3803C410.196 56.2979 409.791 59.3091 409.075 62.133C408.453 64.5895 407.463 67.0244 405.952 69.0775C404.34 71.2602 401.991 73.1188 399.505 73.7599C399.374 73.796 399.237 73.8248 399.1 73.8536C398.825 73.9112 399.266 73.8248 399.056 73.8608C398.044 74.0553 397.054 74.2786 396.028 74.3507C393.642 74.5236 391.242 74.0553 389.218 72.7514C386.305 70.8712 384.491 67.6799 383.515 64.431C382.539 61.1821 382.865 57.8611 385.163 55.3902C386.334 54.1295 387.903 53.2579 389.529 52.7176C390.086 52.5303 390.657 52.3862 391.235 52.2637C391.532 52.1989 391.445 52.2133 391.806 52.1701C392.674 52.0764 393.021 50.9166 391.951 51.0391L391.922 51.0679Z" fill="#FDDFFC"/>
<path d="M332.778 50.3331C332.374 50.5924 332.193 50.6717 331.658 50.9166C330.603 51.4065 329.497 51.7883 328.362 52.062C324.668 52.9697 320.75 52.6167 317.288 51.0463C314.823 49.9297 312.56 48.28 310.695 46.3278C309.748 45.3337 309.235 43.9361 308.772 42.6754C307.399 38.9511 306.344 34.3983 307.732 30.537C308.881 27.3241 310.804 24.493 313.97 22.973C316.485 21.77 318.784 21.3665 321.393 21.8636C325.152 22.5768 327.979 24.9108 329.193 28.5632C330.639 32.8999 329.605 37.9353 325.47 40.3918C323.584 41.5156 321.234 41.9911 319.116 41.2707C316.999 40.5503 315.329 38.6989 314.895 36.509C314.635 35.1907 314.75 33.6491 315.314 32.4172C316.037 30.8252 318.003 29.8815 319.695 29.8454C320.483 29.831 321.256 30.0255 321.784 30.6307C322.189 31.0845 323.685 30.501 323.237 29.9895C321.928 28.5127 319.543 28.7072 317.837 29.2547C316.131 29.8022 314.36 30.9116 313.688 32.6765C312.141 36.7395 314.367 41.2275 318.639 42.3441C323.186 43.5327 328.521 40.8241 330.422 36.6098C332.439 32.1435 331.318 26.2147 327.364 23.1243C321.697 18.7011 312.698 20.5741 308.505 26.0995C307.45 27.4826 306.727 29.0746 306.141 30.7099C305.361 32.8999 305.418 35.2843 305.758 37.5607C306.098 39.8371 306.734 42.0991 307.638 44.2243C307.948 44.9519 308.288 45.6866 308.729 46.3494C309.387 47.3435 310.413 48.1431 311.331 48.8923C315.206 52.062 319.955 53.827 324.986 53.5316C327.892 53.3659 330.841 52.5519 333.386 51.1399C333.523 51.0679 333.653 50.9887 333.783 50.9094C334.065 50.7365 334.173 50.4412 333.899 50.2178C333.624 49.9945 333.039 50.1818 332.778 50.3403V50.3331Z" fill="#FDDFFC"/>
<path d="M144.635 74.2498C141.903 74.0913 139.069 75.3087 137.19 77.2466C135.758 78.7234 134.392 81.0646 134.515 83.1753C134.638 85.286 135.296 87.9659 136.828 89.5939C138.556 91.4381 140.999 92.317 143.507 91.8847C145.271 91.5822 146.789 90.7826 147.924 89.385C149.529 87.4184 149.492 84.508 148.011 82.4549C146.63 80.5387 144.194 79.7823 141.931 80.4091C139.127 81.1871 137.406 84.436 139.481 86.8709C140.233 87.7569 141.266 88.1171 142.43 88.0019C143.674 87.8794 145.054 87.2743 145.387 85.9776C145.589 85.1924 143.977 85.3581 143.789 86.0785C143.601 86.7988 142.264 86.9285 141.678 86.7268C141.035 86.5107 140.551 85.7903 140.32 85.1924C139.481 82.988 141.512 81.2519 143.601 81.4032C145.69 81.5545 146.984 83.2257 147.396 85.0843C147.808 86.9429 147.187 88.5998 145.69 89.7524C142.972 91.8415 139.004 90.5664 137.421 87.6921C136.604 86.2153 136.062 84.2559 136.098 82.563C136.134 80.8701 137.327 78.9827 138.462 77.8085C139.503 76.7207 140.862 75.9931 142.322 75.6473C142.792 75.5393 143.168 75.4816 143.674 75.4456C143.818 75.4384 143.963 75.4384 144.107 75.4312C144.064 75.4312 144.339 75.424 144.107 75.4312C144.476 75.4528 144.982 75.3304 145.126 74.9413C145.257 74.5956 145.004 74.2642 144.635 74.2426V74.2498Z" fill="#FDDFFC"/>
<path d="M269.948 74.4659C267.259 74.3074 264.375 75.4312 262.452 77.2826C260.999 78.6801 259.539 80.9925 259.597 83.0744C259.655 85.1563 260.341 87.7713 261.78 89.4066C264.635 92.6555 270.006 92.5042 272.868 89.3562C274.545 87.5048 274.61 84.7385 273.223 82.6782C271.835 80.6179 269.449 80.0344 267.172 80.6251C265.85 80.9709 264.599 81.7273 263.992 82.988C263.385 84.2487 263.623 85.7254 264.548 86.806C265.286 87.6705 266.341 87.9082 267.454 87.7713C268.567 87.6345 270.143 87.1302 270.454 85.9127C270.577 85.4373 269.008 85.675 268.893 86.1433C268.669 87.0293 267.541 87.2166 266.789 86.8708C266.139 86.5683 265.647 85.8407 265.409 85.1924C264.599 82.9952 266.421 80.9493 268.64 81.2087C270.656 81.4392 272.059 83.2041 272.478 85.0843C272.897 86.9645 272.312 88.751 270.787 89.9685C270.454 90.235 270.1 90.4728 269.724 90.6529C269.594 90.7177 269.818 90.6096 269.818 90.6096C269.464 90.7393 269.095 90.8402 268.726 90.9122C268.105 91.0275 267.469 91.0491 266.847 90.941C265.076 90.624 263.37 89.3201 262.524 87.7497C261.679 86.1793 261.216 84.3711 261.173 82.6422C261.129 80.9133 262.286 79.0259 263.37 77.794C264.389 76.6342 265.734 75.8058 267.23 75.4384C267.635 75.3375 268.206 75.2583 268.495 75.2367C268.64 75.2295 268.784 75.2295 268.929 75.2223C269.059 75.2223 269.211 75.2295 268.965 75.2223C269.319 75.2439 269.811 75.1863 270.078 74.9269C270.273 74.7396 270.317 74.4875 269.955 74.4659H269.948Z" fill="#FDDFFC"/>
<path d="M332.872 67.3557C332.576 66.9163 332.374 66.3472 332.366 65.8141C332.366 65.3387 332.526 64.892 332.872 64.5535C333.162 64.2653 333.538 64.114 333.921 64.006C334.058 63.9699 333.978 63.9916 334.015 63.9844C336.602 63.5017 338.684 65.8357 338.518 68.3283C338.424 69.7978 337.477 71.0369 336.205 71.7357C335.937 71.887 335.648 72.0022 335.359 72.1103C335.251 72.1463 335.258 72.1463 335.374 72.1103C335.113 72.1967 334.846 72.2615 334.571 72.3264C332.417 72.8018 329.851 72.6073 328.412 70.7271C327.119 69.0414 326.28 66.5993 326.822 64.5102C327.957 60.1231 333.458 59.1146 337.296 58.5022C341.135 57.8899 345.103 57.4721 349.028 57.4361C353.185 57.3929 357.298 58.4518 361.454 58.1925C367.548 57.8107 374.017 53.3803 374.697 46.9329C375.145 42.6322 371.834 38.3532 367.403 38.1659C364.692 38.0506 361.671 39.0735 359.95 41.2347C359.054 42.3585 358.628 43.7344 358.49 45.1536C358.266 47.4084 359.206 49.3966 361.346 50.3259C363.485 51.2552 366.124 50.434 367.873 49.1589C369.095 48.2656 369.969 47.0266 369.767 45.4561C369.615 44.2891 368.878 43.0789 367.808 42.5314C366.102 41.6597 363.023 42.7331 362.611 44.6925C362.372 45.8091 362.972 46.7456 363.919 47.3075C364.316 47.5452 365.632 46.9041 365.393 46.76C364.447 46.1981 363.861 45.1968 364.244 44.109C364.7 42.8195 365.95 42.6466 366.911 43.4679C367.967 44.3756 368.509 45.9676 368.046 47.3003C367.519 48.8347 365.784 49.9225 364.194 50.0089C362.206 50.1098 360.399 48.3881 360.081 46.3926C359.856 45.0095 360.131 43.4319 360.724 42.1568C361.844 39.7363 364.649 38.4468 367.23 38.9079C369.564 39.3257 371.451 41.0402 372.391 43.1653C374.61 48.1792 371.285 53.7117 366.789 56.197C363.174 58.1925 359.004 57.4865 355.093 57.0687C350.987 56.6293 346.903 56.7589 342.797 57.1839C338.019 57.6882 332.359 58.1565 328.261 60.9083C325.543 62.7309 324.393 65.67 325.557 68.7677C325.817 69.4521 326.179 70.1148 326.555 70.7415C327.776 72.7586 330.104 73.3133 332.323 73.1908C335.937 72.9963 341.308 70.828 339.862 66.2896C339.111 63.9195 336.87 62.983 334.535 63.3216C332.909 63.5521 330.581 64.431 330.783 66.4192C330.834 66.8875 331.015 67.3774 331.275 67.7736C331.535 68.1698 332.988 67.5719 332.844 67.3557H332.872Z" fill="#FDDFFC"/>
<path d="M82.152 67.579C82.9689 66.3616 82.9183 64.7912 81.6171 63.9339C80.0124 62.8749 77.6415 62.9037 75.9717 63.7682C73.8754 64.8488 72.7767 67.579 73.767 69.769C74.5766 71.5483 76.4054 72.5281 78.2414 72.9747C80.1859 73.4429 82.3544 73.515 84.2266 72.7442C85.7012 72.1391 86.5903 71.0657 87.3493 69.7186C88.5709 67.5502 88.8745 64.8704 87.4578 62.7093C85.0434 59.0281 79.7955 58.2645 75.762 57.6522C72.0177 57.0831 68.23 56.7085 64.435 56.6652C60.3798 56.6148 56.368 57.6161 52.32 57.4361C48.7708 57.2776 45.5542 55.6711 43.2194 53.0129C41.3689 50.9022 39.9882 47.999 40.393 45.1391C40.6171 43.5615 41.405 41.9262 42.4965 40.7664C44.441 38.7061 47.3757 38.4684 49.8551 39.6858C51.59 40.5359 52.7248 41.9983 53.1947 43.828C53.6645 45.6578 53.6573 47.9126 52.0309 49.1949C51.308 49.7712 50.6575 49.9873 49.7539 49.9009C48.1203 49.7424 46.1975 48.7482 45.5252 47.185C44.9831 45.9388 45.359 44.3971 46.3204 43.4534C47.1733 42.6178 48.648 43.2373 49.1467 44.2603C49.6093 45.2184 49.2551 46.2701 48.3444 46.8104C48.0769 46.9689 47.9468 47.1994 48.207 47.4155C48.4672 47.6317 49.0817 47.4083 49.3202 47.2643C50.3394 46.6591 51.0912 45.7082 50.9105 44.4764C50.7659 43.4534 49.9635 42.7258 49.0238 42.3945C46.6746 41.566 44.2169 43.1437 43.7615 45.557C43.1688 48.6762 46.6167 50.6501 49.3202 50.7869C51.4092 50.895 53.6428 49.7568 54.5609 47.8406C55.3271 46.2413 55.1102 44.3179 54.5536 42.6826C53.8886 40.7304 52.2116 39.268 50.2888 38.5909C45.8144 36.9988 41.0942 39.1672 39.3449 43.5183C37.1113 49.0868 41.6797 55.066 46.6746 57.2271C50.2599 58.776 54.1922 58.3509 57.9655 57.9331C62.3387 57.4505 66.6252 57.5225 70.9985 58.0052C73.4417 58.2717 75.8994 58.6031 78.3065 59.1073C80.7136 59.6116 83.5977 60.5841 85.3687 62.5219C87.2554 64.5822 87.1397 67.4494 85.8386 69.7762C84.9856 71.3034 83.9519 72.3119 82.1231 72.4344C80.4533 72.5497 78.7257 72.1895 77.3523 71.4259C76.1235 70.7415 75.191 69.6105 75.0103 68.1914C74.8513 66.9163 75.35 65.3963 76.3765 64.5822C77.6993 63.5305 81.0316 63.9987 81.14 66.0446C81.169 66.5633 80.981 67.1324 80.6919 67.5574C80.2943 68.1481 81.8701 68.0113 82.152 67.5862V67.579Z" fill="#FDDFFC"/>
<path d="M226.924 52.7968C227.018 51.637 226.035 50.9166 224.951 50.8806C223.462 50.8302 222.312 52.2853 222.544 53.7477C222.862 55.7792 225.095 56.5932 226.902 56.1466C229.259 55.5703 230.473 53.4523 229.765 51.1111C229.013 48.633 226.635 47.3579 224.127 47.927C221.055 48.6258 219.508 51.6226 220.057 54.5978C220.353 56.1898 221.271 57.3568 222.392 58.459C223.758 59.8061 225.356 60.9659 227.141 61.7007C229.31 62.594 231.876 62.8317 234.174 63.1055C235.75 63.2928 236.827 63.3072 238.128 63.4873C239.429 63.6674 241.041 64.0636 241.923 65.1586C243.289 66.8587 242.379 69.5169 240.55 70.4606C240.405 70.5398 240.253 70.5974 240.094 70.6551C239.979 70.6983 240.333 70.5758 240.066 70.6623C239.747 70.7631 239.429 70.8352 239.097 70.864C238.208 70.936 237.225 70.6335 236.639 69.9347C235.656 68.7677 235.512 65.6484 237.702 65.7277C238.331 65.7493 239.032 66.1887 239.198 66.801C239.429 67.6583 238.974 68.566 237.998 68.2778C237.622 68.1698 237.131 68.2346 236.885 68.5732C236.683 68.8541 236.719 69.2719 237.102 69.3872C238.389 69.7618 240.015 69.4592 240.622 68.1193C241.265 66.7074 240.514 65.2882 239.133 64.7696C236.018 63.5881 233.372 66.8731 234.695 69.7618C235.873 72.3336 239.191 72.6145 241.453 71.3322C244.309 69.7186 245.306 65.3819 242.212 63.4585C239.907 62.0249 236.979 62.1762 234.391 61.852C232.085 61.5639 229.584 61.3333 227.502 60.3464C224.452 58.9056 220.982 55.9377 221.604 52.2277C221.821 50.9238 222.522 49.728 223.809 49.2309C225.16 48.705 226.606 49.022 227.488 50.1962C228.724 51.8315 228.76 54.5185 226.418 55.0084C226.281 55.0372 226.548 55.0012 226.346 55.0156C225.97 55.0516 225.616 55.0516 225.269 54.8931C224.777 54.6698 224.344 54.1511 224.177 53.6396C224.047 53.2434 224.069 52.3934 224.474 52.1341C224.944 51.8315 225.341 52.4582 225.305 52.8688C225.24 53.7189 226.837 53.5244 226.902 52.768L226.924 52.7968Z" fill="#FDDFFC"/>
<path d="M174.843 67.1612C173.99 66.9307 172.645 67.2909 172.118 68.0041C171.106 69.3728 172.645 70.6263 173.997 70.6119C175.956 70.5902 177.85 69.2719 177.785 67.2044C177.712 64.82 175.638 63.8331 173.455 64.1068C170.874 64.431 168.568 66.0807 168.8 68.8973C169.067 72.1679 172.501 73.5438 175.407 73.0972C178.558 72.6145 181.536 70.1364 183.286 67.5862C184.674 65.5548 185.389 62.9398 186.105 60.6202C186.517 59.2874 186.748 58.0988 187.211 56.8237C187.637 55.6567 188.562 53.4596 190.023 53.3587C192.061 53.2146 193.781 55.1813 194.107 57.0182C194.345 58.3798 193.998 60.3176 192.632 61.002C190.651 62.0033 188.555 59.3451 189.408 57.5657C189.531 57.3136 189.748 56.8526 190.001 56.7085C190.254 56.5644 190.81 56.8309 191.1 57.1119C191.7 57.6954 191.649 58.6031 191.295 59.2946C191.215 59.4459 192.647 59.3811 192.842 58.9993C193.398 57.9115 193.124 56.6004 191.866 56.2042C190.608 55.808 188.967 56.2402 188.179 57.328C187.391 58.4158 187.464 59.7989 188.389 60.7714C189.567 62.0033 191.389 61.8664 192.885 61.3766C195.299 60.5913 196.348 57.998 195.422 55.6783C194.15 52.487 189.777 51.8387 187.399 54.2015C185.512 56.0745 185.151 59.0641 184.384 61.4774C183.705 63.6097 183.025 66.0014 181.739 67.8744C180.669 69.4304 179.209 70.7559 177.611 71.7717C176.18 72.6793 174.669 72.8234 173.079 72.1319C171.814 71.5772 170.831 70.6119 170.491 69.2431C170.151 67.8744 170.412 66.1383 171.633 65.1946C172.522 64.503 173.621 64.4238 174.691 64.9497C175.681 65.4395 176.158 66.4697 176.216 67.5358C176.267 68.4291 175.898 69.7834 174.958 70.0139C174.901 70.0283 174.893 70.0283 174.59 69.9203C174.192 69.7762 173.751 69.5169 173.527 69.1495C173.426 68.991 173.368 68.8181 173.354 68.6308C173.339 68.3354 173.571 68.1049 173.571 67.8528L173.672 67.7015C173.31 67.6871 173.216 67.6799 173.383 67.6871C173.44 67.7015 173.498 67.7015 173.556 67.7159C173.874 67.8024 174.366 67.6439 174.648 67.4998C174.785 67.435 175.182 67.2333 174.857 67.1468L174.843 67.1612Z" fill="#FDDFFC"/>
<path d="M138.975 25.9266C137.341 24.7451 136.055 23.1243 135.289 21.2297C134.522 23.1243 133.236 24.7451 131.602 25.9266C133.236 27.108 134.522 28.7289 135.289 30.6235C136.055 28.7289 137.341 27.108 138.975 25.9266Z" fill="#B16AF6"/>
<path d="M135.296 38.6917C135.296 38.6917 135.281 38.7349 135.274 38.7638C135.288 38.7638 135.31 38.7638 135.325 38.7638C135.317 38.7421 135.31 38.7205 135.303 38.6989L135.296 38.6917Z" fill="#B16AF6"/>
<path d="M285.916 25.9266C284.282 24.7451 282.996 23.1243 282.23 21.2297C281.463 23.1243 280.177 24.7451 278.543 25.9266C280.177 27.108 281.463 28.7289 282.23 30.6235C282.996 28.7289 284.282 27.108 285.916 25.9266Z" fill="#B16AF6"/>
<path d="M282.23 38.6917C282.23 38.6917 282.215 38.7349 282.208 38.7638C282.222 38.7638 282.244 38.7638 282.259 38.7638C282.251 38.7421 282.244 38.7205 282.237 38.6989L282.23 38.6917Z" fill="#B16AF6"/>
<path d="M380.595 60.0439C378.961 58.8624 377.674 57.2416 376.908 55.347C376.142 57.2416 374.855 58.8624 373.222 60.0439C374.855 61.2253 376.142 62.8462 376.908 64.7408C377.674 62.8462 378.961 61.2253 380.595 60.0439Z" fill="#B16AF6"/>
<path d="M376.915 72.809C376.915 72.809 376.901 72.8522 376.894 72.8811C376.908 72.8811 376.93 72.8811 376.944 72.8811C376.937 72.8594 376.93 72.8378 376.922 72.8162L376.915 72.809Z" fill="#B16AF6"/>
<path d="M7.37307 70.7776C5.73943 69.5962 4.45275 67.9753 3.68653 66.0807C2.92031 67.9753 1.63364 69.5962 0 70.7776C1.63364 71.959 2.92031 73.5799 3.68653 75.4745C4.45275 73.5799 5.73943 71.959 7.37307 70.7776Z" fill="#B16AF6"/>
<path d="M3.68672 83.5355C3.68672 83.5355 3.67227 83.5787 3.66504 83.6076C3.6795 83.6076 3.70118 83.6076 3.71564 83.6076C3.70841 83.5859 3.70118 83.5643 3.69395 83.5427L3.68672 83.5355Z" fill="#B16AF6"/>
<path d="M95.3803 47.1634C94.7514 46.7096 94.2526 46.0829 93.9562 45.3481C93.6599 46.0829 93.1611 46.7024 92.5322 47.1634C93.1611 47.6173 93.6599 48.244 93.9562 48.9788C94.2526 48.244 94.7514 47.6245 95.3803 47.1634Z" fill="#FDDFFC"/>
<path d="M93.9564 52.0981C93.9564 52.0981 93.9564 52.1125 93.9492 52.1269C93.9492 52.1269 93.9637 52.1269 93.9709 52.1269C93.9709 52.1197 93.9709 52.1125 93.9637 52.0981H93.9564Z" fill="#FDDFFC"/>
<path d="M252.477 33.5266C251.848 33.0728 251.349 32.446 251.053 31.7112C250.757 32.446 250.258 33.0656 249.629 33.5266C250.258 33.9804 250.757 34.6072 251.053 35.342C251.349 34.6072 251.848 33.9877 252.477 33.5266Z" fill="#FDDFFC"/>
<path d="M251.053 38.454C251.053 38.454 251.053 38.4684 251.046 38.4829C251.046 38.4829 251.06 38.4829 251.068 38.4829C251.068 38.4756 251.068 38.4684 251.06 38.454H251.053Z" fill="#FDDFFC"/>
<path d="M358.49 51.4929C357.861 51.0391 357.362 50.4123 357.066 49.6776C356.77 50.4123 356.271 51.0319 355.642 51.4929C356.271 51.9468 356.77 52.5735 357.066 53.3083C357.362 52.5735 357.861 51.954 358.49 51.4929Z" fill="#FDDFFC"/>
<path d="M357.066 56.4276C357.066 56.4276 357.066 56.442 357.059 56.4564C357.059 56.4564 357.074 56.4564 357.081 56.4564C357.081 56.4492 357.081 56.442 357.074 56.4276H357.066Z" fill="#FDDFFC"/>
<path d="M268.293 20.5669C269.064 20.5669 269.688 19.9445 269.688 19.1766C269.688 18.4087 269.064 17.7863 268.293 17.7863C267.523 17.7863 266.898 18.4087 266.898 19.1766C266.898 19.9445 267.523 20.5669 268.293 20.5669Z" fill="#FDDFFC"/>
<path d="M224.618 68.7749C225.389 68.7749 226.013 68.1524 226.013 67.3845C226.013 66.6167 225.389 65.9942 224.618 65.9942C223.848 65.9942 223.223 66.6167 223.223 67.3845C223.223 68.1524 223.848 68.7749 224.618 68.7749Z" fill="#FDDFFC"/>
<path d="M169.559 32.0138C170.329 32.0138 170.954 31.3913 170.954 30.6234C170.954 29.8556 170.329 29.2331 169.559 29.2331C168.788 29.2331 168.164 29.8556 168.164 30.6234C168.164 31.3913 168.788 32.0138 169.559 32.0138Z" fill="#FDDFFC"/>
<path d="M133.872 77.6212C134.642 77.6212 135.267 76.9987 135.267 76.2309C135.267 75.463 134.642 74.8405 133.872 74.8405C133.101 74.8405 132.477 75.463 132.477 76.2309C132.477 76.9987 133.101 77.6212 133.872 77.6212Z" fill="#FDDFFC"/>
<path d="M74.4605 62.8822C75.231 62.8822 75.8556 62.2597 75.8556 61.4918C75.8556 60.724 75.231 60.1015 74.4605 60.1015C73.69 60.1015 73.0654 60.724 73.0654 61.4918C73.0654 62.2597 73.69 62.8822 74.4605 62.8822Z" fill="#FDDFFC"/>
<path d="M5.97811 42.87C6.7486 42.87 7.37321 42.2475 7.37321 41.4796C7.37321 40.7118 6.7486 40.0893 5.97811 40.0893C5.20762 40.0893 4.58301 40.7118 4.58301 41.4796C4.58301 42.2475 5.20762 42.87 5.97811 42.87Z" fill="#FDDFFC"/>
<path d="M27.815 68.8614C28.5855 68.8614 29.2101 68.2389 29.2101 67.471C29.2101 66.7032 28.5855 66.0807 27.815 66.0807C27.0445 66.0807 26.4199 66.7032 26.4199 67.471C26.4199 68.2389 27.0445 68.8614 27.815 68.8614Z" fill="#FDDFFC"/>
<path d="M314.302 58.459C315.073 58.459 315.697 57.8365 315.697 57.0687C315.697 56.3008 315.073 55.6783 314.302 55.6783C313.532 55.6783 312.907 56.3008 312.907 57.0687C312.907 57.8365 313.532 58.459 314.302 58.459Z" fill="#FDDFFC"/>
<path d="M395.977 71.8797C396.748 71.8797 397.372 71.2573 397.372 70.4894C397.372 69.7215 396.748 69.0991 395.977 69.0991C395.207 69.0991 394.582 69.7215 394.582 70.4894C394.582 71.2573 395.207 71.8797 395.977 71.8797Z" fill="#FDDFFC"/>
<path d="M402.085 33.1015C402.856 33.1015 403.48 32.4791 403.48 31.7112C403.48 30.9433 402.856 30.3209 402.085 30.3209C401.315 30.3209 400.69 30.9433 400.69 31.7112C400.69 32.4791 401.315 33.1015 402.085 33.1015Z" fill="#B16AF6"/>
<path d="M321.198 37.1069C321.969 37.1069 322.593 36.4844 322.593 35.7166C322.593 34.9487 321.969 34.3262 321.198 34.3262C320.428 34.3262 319.803 34.9487 319.803 35.7166C319.803 36.4844 320.428 37.1069 321.198 37.1069Z" fill="#B16AF6"/>
<path d="M334.651 69.6177C335.066 69.6177 335.402 69.2823 335.402 68.8685C335.402 68.4548 335.066 68.1193 334.651 68.1193C334.235 68.1193 333.899 68.4548 333.899 68.8685C333.899 69.2823 334.235 69.6177 334.651 69.6177Z" fill="#B16AF6"/>
<path d="M241.569 21.1C241.984 21.1 242.321 20.7646 242.321 20.3508C242.321 19.9371 241.984 19.6016 241.569 19.6016C241.154 19.6016 240.817 19.9371 240.817 20.3508C240.817 20.7646 241.154 21.1 241.569 21.1Z" fill="#B16AF6"/>
<path d="M148.307 22.3462C148.722 22.3462 149.059 22.0108 149.059 21.597C149.059 21.1833 148.722 20.8478 148.307 20.8478C147.892 20.8478 147.555 21.1833 147.555 21.597C147.555 22.0108 147.892 22.3462 148.307 22.3462Z" fill="#B16AF6"/>
<path d="M179.448 68.1049C179.863 68.1049 180.199 67.7695 180.199 67.3557C180.199 66.9419 179.863 66.6065 179.448 66.6065C179.032 66.6065 178.696 66.9419 178.696 67.3557C178.696 67.7695 179.032 68.1049 179.448 68.1049Z" fill="#B16AF6"/>
<path d="M24.678 36.3216C25.0932 36.3216 25.4298 35.9862 25.4298 35.5724C25.4298 35.1587 25.0932 34.8232 24.678 34.8232C24.2628 34.8232 23.9263 35.1587 23.9263 35.5724C23.9263 35.9862 24.2628 36.3216 24.678 36.3216Z" fill="#B16AF6"/>
<path d="M147.425 39.5778C147.1 40.788 146.268 41.9479 145.293 42.7187C144.317 43.4895 143.088 43.8641 141.809 43.8785C140.594 43.8929 139.43 43.1365 138.469 42.4017C137.312 41.5228 136.546 40.4134 136.286 38.9727C136.026 37.5319 136.517 35.9687 137.544 34.9529C138.483 34.0092 139.64 33.7787 140.84 34.4199C142.155 35.1114 143.182 36.4513 143.045 38.0002C142.972 38.7854 142.633 39.6066 142.062 40.1685C141.49 40.7304 140.789 40.6368 140.16 40.1685C139.748 39.866 139.387 39.4049 139.242 38.9078C139.127 38.5188 139.199 38.1226 139.351 37.7552C139.43 37.5535 139.539 37.359 139.676 37.1789C139.719 37.1213 139.77 37.0637 139.821 37.0132C140.117 36.7179 140.074 36.9772 139.618 36.9412C139.98 36.9628 140.435 36.8692 140.731 36.6458C140.963 36.473 140.956 36.2712 140.623 36.2496C138.982 36.1344 136.965 37.8561 137.782 39.5994C138.599 41.3427 140.486 41.5661 142.098 40.9609C143.71 40.3558 144.917 38.5477 144.577 36.7683C144.194 34.7584 142.192 33.3033 140.182 33.3249C138.693 33.3393 137.023 34.0165 136.011 35.133C134.681 36.5954 134.327 38.5909 135.007 40.4206C135.643 42.1208 137.182 43.2734 138.773 44.0514C140.363 44.8294 142.192 44.6637 143.861 44.1522C146.138 43.4607 148.336 41.7029 148.972 39.3257C149.073 38.9367 147.533 39.1528 147.418 39.585L147.425 39.5778Z" fill="#FDDFFC"/>
<path d="M409.082 52.1125C408.757 53.3155 407.919 54.4681 406.95 55.2317C405.981 55.9953 404.738 56.3627 403.466 56.3843C402.194 56.4059 401.095 55.6639 400.133 54.9364C398.977 54.0575 398.218 52.9625 397.95 51.5217C397.683 50.081 398.189 48.525 399.215 47.5236C400.068 46.688 401.232 46.3638 402.418 46.9329C403.777 47.5885 404.875 48.986 404.709 50.5564C404.564 51.954 403.379 53.8486 401.825 52.7032C401.42 52.4006 401.059 51.9468 400.914 51.4569C400.806 51.0751 400.878 50.6789 401.023 50.3115C401.102 50.1098 401.21 49.9225 401.348 49.7496C401.391 49.692 401.449 49.6416 401.492 49.5839C401.688 49.3246 401.861 49.5623 401.297 49.5263C401.666 49.5479 402.114 49.4759 402.41 49.2309C402.627 49.0436 402.627 48.7915 402.288 48.7699C400.639 48.6546 398.63 50.398 399.454 52.1485C400.278 53.899 402.157 54.18 403.784 53.5532C405.41 52.9265 406.588 51.0895 406.249 49.3174C405.858 47.3003 403.863 45.8379 401.839 45.8307C398.153 45.8163 395.377 49.4831 396.678 52.9625C397.314 54.6698 398.84 55.8008 400.43 56.6004C402.02 57.4001 403.871 57.256 405.548 56.7373C407.825 56.0385 410.008 54.252 410.651 51.8747C410.774 51.4137 409.22 51.637 409.09 52.1053L409.082 52.1125Z" fill="#FDDFFC"/>
<path d="M188.714 12.7652C188.657 12.4698 188.895 12.2177 188.324 12.5923C188.237 12.6499 188.18 12.5202 188.245 12.5923C188.245 12.5923 188.339 12.6499 188.281 12.5923C188.367 12.6715 188.461 12.6715 188.534 12.7868C188.599 12.8876 188.62 13.0101 188.635 13.1254C188.649 13.2118 188.635 13.0389 188.635 13.1614C188.635 13.3631 188.62 13.6296 188.498 13.7953C188.461 13.8457 188.411 13.889 188.375 13.9322C188.36 13.9538 188.1 13.9898 188.281 13.9682C188.44 13.9466 188.179 13.961 188.136 13.9466C187.97 13.9034 187.818 13.8457 187.674 13.7665C186.864 13.3127 186.633 12.441 186.77 11.5765C186.922 10.6617 187.637 9.78279 188.628 9.77559C189.842 9.76838 190.681 11.2091 191.179 12.1312C192.09 13.8025 192.386 15.8628 193.796 17.2243C194.859 18.2545 196.312 18.6507 197.699 17.9519C198.95 17.3252 199.882 15.6035 198.979 14.3068C198.191 13.1758 196.622 13.2046 195.589 13.9466C194.945 14.4004 194.389 15.2433 194.678 16.0501C194.967 16.8569 195.979 17.2892 196.81 17.1955C197.577 17.1091 198.278 16.612 198.466 15.8556C198.61 15.2649 198.401 14.5949 197.764 14.4293C197.396 14.3356 196.912 14.4293 196.651 14.7246C196.427 14.9767 196.478 15.3297 196.839 15.4234C196.94 15.4522 196.832 15.3297 196.868 15.4522C196.897 15.5458 196.919 15.6251 196.919 15.7187C196.919 15.9277 196.774 16.0357 196.745 16.1942C196.781 16.0213 197.085 16.223 196.695 16.0645C196.528 15.9925 196.377 15.87 196.283 15.7187C196.109 15.4234 196.16 15.0992 196.355 14.8255C196.478 14.6526 196.586 14.5877 196.666 14.5445C196.832 14.4581 196.745 14.4509 196.912 14.5013C197.056 14.5445 197.222 14.667 197.338 14.7678C197.678 15.0776 197.75 15.5747 197.692 16.0069C197.598 16.6768 197.078 17.354 196.333 17.2171C195.9 17.1379 195.531 16.8497 195.227 16.5544C193.825 15.1857 193.507 13.0749 192.582 11.3964C192.003 10.3447 191.273 9.33615 190.095 8.90393C188.714 8.39245 187.175 8.95435 186.134 9.91246C185.237 10.7409 184.854 12.1961 185.31 13.3487C185.852 14.7318 187.558 15.3874 188.91 14.8471C189.958 14.4221 190.818 12.8012 189.755 11.9079C188.693 11.0146 186.849 11.7206 187.139 13.183C187.269 13.8529 188.845 13.4567 188.707 12.7652H188.714Z" fill="#FDDFFC"/>
<path d="M407.955 79.3068C407.81 79.278 407.687 79.2348 407.586 79.1123C407.456 78.9467 407.752 78.8314 407.687 78.7594C407.622 78.6873 407.499 78.8818 407.514 78.8314C407.514 78.8314 407.651 78.8818 407.608 78.8602C407.825 78.9539 408.02 79.0835 408.143 79.2924C408.316 79.5734 408.287 79.912 408.2 80.2145C408.251 80.0488 408.2 80.2145 408.164 80.2794C408.099 80.3874 408.034 80.4955 407.955 80.5891C407.362 81.2735 406.56 80.9997 405.916 80.5315C405.23 80.0272 404.897 79.1196 404.94 78.2767C404.969 77.7004 405.193 77.1601 405.649 76.7999C405.88 76.6126 406.14 76.5406 406.393 76.4037C406.393 76.4037 406.169 76.4685 406.372 76.4109C406.495 76.3749 406.61 76.3389 406.733 76.3101C408.721 75.8202 410.795 76.3173 412.783 75.849C413.962 75.5681 415.313 74.8837 415.798 73.7095C416.455 72.1174 415.292 70.4966 413.651 70.3021C412.516 70.1724 410.861 70.9072 410.817 72.2111C410.788 72.9675 411.157 73.7887 411.858 74.1417C412.827 74.6316 414.128 74.1129 414.728 73.2845C415.942 71.5844 413.08 70.2733 411.995 71.75C411.764 72.0598 412.191 72.2615 412.444 72.2831C412.827 72.3191 413.253 72.1462 413.477 71.8365L413.015 72.067C412.87 72.0526 412.841 72.0526 412.921 72.067C412.935 72.0814 413.007 72.0958 413.029 72.1102C413.138 72.1967 413.239 72.2399 413.318 72.3624C413.506 72.6361 413.463 72.9603 413.246 73.2052C413.239 73.2196 413.138 73.3277 413.087 73.3493C413.109 73.3421 413.203 73.3493 413.13 73.3349C412.957 73.3061 412.783 73.0899 412.697 72.9603C412.53 72.7298 412.458 72.4632 412.429 72.1823C412.4 71.9229 412.422 71.678 412.603 71.4763C412.682 71.3898 413.007 71.2314 413.007 71.217C413.007 71.3466 412.711 71.1881 412.899 71.2602C412.928 71.2674 413.087 71.289 413.159 71.3106C413.492 71.3971 413.781 71.606 413.998 71.8653C414.482 72.4416 414.569 73.3349 414.164 73.976C413.911 74.3794 413.571 74.5667 413.282 74.6964C412.436 75.0854 411.562 75.071 410.651 75.0566C409.624 75.0422 408.598 75.0566 407.586 75.2079C406.386 75.388 405.143 75.7121 404.246 76.591C403.401 77.4194 403.198 78.6081 403.524 79.7175C403.849 80.8269 404.68 81.5112 405.743 81.8498C407.188 82.318 409.191 81.6337 409.755 80.1281C410.246 78.8098 409.003 77.722 407.731 77.8373C407.044 77.9021 406.205 78.3271 406.017 79.0547C405.851 79.6959 406.451 80.1137 407.015 80.2217C407.391 80.2866 407.853 80.2145 408.128 79.9264C408.345 79.6959 408.316 79.3645 407.962 79.2996L407.955 79.3068Z" fill="#FDDFFC"/>
<path d="M274.047 64.8704C274.365 63.9267 274.401 62.6877 273.577 61.9889C272.666 61.2109 271.213 61.1605 270.129 61.5495C267.353 62.5292 266.948 66.1671 268.206 68.4507C269.059 70.0068 270.562 71.0153 272.348 71.217C274.675 71.4691 276.902 70.2229 278.333 68.4724C279.923 66.5345 281.131 63.9267 280.234 61.427C279.728 60.0079 278.738 58.7976 277.646 57.7819C276.952 57.1335 276.201 56.4276 275.312 56.0458C273.157 55.1237 270.656 55.03 268.416 55.6856C265.213 56.6221 262.402 59.093 260.276 61.5927C256.828 65.6485 254.414 71.7573 257.385 76.7351C257.696 77.2538 259.214 76.7207 258.831 76.0868C256.857 72.773 257.551 68.602 259.257 65.3387C260.414 63.1271 262.047 61.2037 263.919 59.5612C266.059 57.681 268.502 56.1106 271.459 56.2907C272.753 56.3699 274.039 56.6869 275.073 57.4865C276.916 58.9057 278.998 61.0164 278.962 63.5161C278.911 66.8875 275.189 71.8149 271.444 69.7042C269.811 68.7821 268.878 66.7722 269.102 64.9281C269.261 63.6602 270.114 61.9313 271.654 62.4283C272.811 62.7957 272.796 64.0636 272.464 65.0361C272.254 65.6629 273.844 65.4684 274.047 64.8776V64.8704Z" fill="#FDDFFC"/>
<path d="M127.93 63.4009C127.684 62.6733 127.503 61.4126 128.4 61.074C129.672 60.5986 130.713 61.8953 131.081 62.9398C131.689 64.6759 131.125 66.8875 129.686 68.0689C126.455 70.7271 122.682 66.5705 121.742 63.653C120.962 61.2253 121.974 59.1002 123.694 57.3568C124.879 56.161 125.891 55.3686 127.54 55.066C130.221 54.569 132.744 55.5343 134.869 57.1263C136.994 58.7184 138.867 60.6058 140.298 62.8101C142.596 66.34 143.84 71.1738 141.548 75.0134C141.136 75.705 142.727 75.6329 143.03 75.1143C145.567 70.8568 144.107 65.5692 141.469 61.7368C138.129 56.8958 132.368 52.4222 126.195 54.4177C124.092 55.1021 122.321 56.7877 121.084 58.5815C119.444 60.966 119.61 63.5954 121.099 66.023C122.248 67.896 123.925 69.4737 126.181 69.8267C127.959 70.1076 129.889 69.4953 131.175 68.2346C133.156 66.2968 133.828 62.0537 131.06 60.4041C129.874 59.6981 128.132 59.8782 127.034 60.6778C126.036 61.4054 125.978 62.7309 126.347 63.8187C126.556 64.4454 128.125 64.006 127.915 63.4009H127.93Z" fill="#FDDFFC"/>
</g>
<defs>
<clipPath id="clip0_73_2">
<rect width="416" height="92" fill="white"/>
</clipPath>
</defs>
</svg>
