<svg width="113" height="38" viewBox="0 0 113 38" fill="none" xmlns="http://www.w3.org/2000/svg">
<path d="M101.265 17.1476C101.385 14.1499 99.6149 11.4657 96.4279 11.3644C92.4955 11.2365 88.3921 13.826 86.4063 17.1217C83.9082 21.2511 84.9164 27.1887 88.9887 29.9468C92.3061 32.1824 96.5443 31.9321 100.224 30.7445C104.116 29.4785 107.975 27.2816 110.414 23.9324C112.337 21.2979 112.738 18.474 112.619 15.3121C112.427 10.2227 110.086 5.22469 105.301 2.97359C97.1484 -0.859632 87.1796 3.42933 79.4904 6.68148C72.3518 9.69933 65.3458 13.1028 58.682 17.0918C51.5569 21.347 45.6337 27.3897 38.3823 31.4111C32.0237 34.9359 24.6941 35.5797 17.7759 33.4451C12.2885 31.7464 6.77178 28.1628 4.41466 22.7423C3.11575 19.7513 2.73828 16.056 3.39941 12.8646C4.58348 7.18945 9.44634 3.63178 15.0736 3.09927C19.0091 2.72352 22.5542 4.05807 25.3332 6.7455C28.1122 9.43293 30.5145 13.3724 29.0518 17.3503C28.4085 19.1294 27.5056 20.203 25.8374 21.02C22.8191 22.4932 18.4015 22.819 15.5551 20.8132C13.275 19.2206 12.2793 16.1299 12.9451 13.4547C13.5374 11.084 16.7723 10.585 18.7376 11.8346C20.5704 13.0098 21.0792 15.2231 20.0697 17.1407C19.773 17.7035 19.793 18.2448 20.4783 18.3429C21.1635 18.4411 21.9957 17.3936 22.2574 16.8869C23.3865 14.7402 23.679 12.2769 22.0445 10.3224C20.6969 8.69352 18.5185 8.28413 16.525 8.71272C11.5413 9.7842 8.94536 15.1674 10.7359 19.8632C13.043 25.9372 21.1694 25.6863 26.0301 23.0295C29.7886 20.9806 32.4644 16.6037 32.0129 12.2791C31.6362 8.66981 29.1981 5.54812 26.4762 3.29276C23.2257 0.600813 18.7352 -0.153105 14.6572 0.725407C5.14982 2.74143 -0.758675 11.5778 0.851052 21.0385C2.92016 33.1408 17.29 38.6741 28.3143 37.0931C36.225 35.9539 42.6267 31.0013 48.7588 26.2315C55.8677 20.7061 63.4194 16.2409 71.5621 12.3988C76.1079 10.2469 80.7484 8.19251 85.4858 6.49383C90.2232 4.79514 96.294 3.40201 101.457 4.88435C106.954 6.45637 109.823 11.5797 110.046 17.0306C110.194 20.6072 109.472 23.4729 106.414 25.6451C103.626 27.6344 100.228 28.8566 97.0151 28.996C94.1394 29.1188 91.3021 28.1453 89.467 25.8642C87.8241 23.8111 87.0659 20.6264 87.984 18.1077C89.1642 14.8569 95.4764 12.1045 97.8566 15.5559C98.4625 16.4293 98.7443 17.623 98.6953 18.6738C98.6347 20.1296 101.236 18.2033 101.272 17.1602L101.265 17.1476Z" fill="#FDDFFC"/>
</svg>
