<svg width="113" height="38" viewBox="0 0 113 38" fill="none" xmlns="http://www.w3.org/2000/svg">
<path d="M12.0479 17.1476C11.9275 14.1499 13.6976 11.4657 16.8846 11.3644C20.817 11.2365 24.9204 13.826 26.9062 17.1217C29.4043 21.2511 28.3961 27.1887 24.3238 29.9468C21.0064 32.1824 16.7682 31.9321 13.0882 30.7445C9.1961 29.4785 5.33757 27.2816 2.89852 23.9324C0.975263 21.2979 0.574485 18.474 0.693763 15.3121C0.885891 10.2227 3.22658 5.22469 8.01167 2.97359C16.1641 -0.859632 26.1329 3.42933 33.8221 6.68148C40.9607 9.69933 47.9667 13.1028 54.6305 17.0918C61.7556 21.347 67.6788 27.3897 74.9302 31.4111C81.2888 34.9359 88.6184 35.5797 95.5366 33.4451C101.024 31.7464 106.541 28.1628 108.898 22.7423C110.197 19.7513 110.574 16.056 109.913 12.8646C108.729 7.18945 103.866 3.63178 98.2389 3.09927C94.3034 2.72352 90.7583 4.05807 87.9793 6.7455C85.2003 9.43293 82.798 13.3724 84.2607 17.3503C84.904 19.1294 85.8069 20.203 87.4751 21.02C90.4934 22.4932 94.911 22.819 97.7574 20.8132C100.038 19.2206 101.033 16.1299 100.367 13.4547C99.7751 11.084 96.5402 10.585 94.5749 11.8346C92.7421 13.0098 92.2333 15.2231 93.2428 17.1407C93.5395 17.7035 93.5195 18.2448 92.8342 18.3429C92.149 18.4411 91.3168 17.3936 91.0551 16.8869C89.926 14.7402 89.6335 12.2769 91.268 10.3224C92.6156 8.69352 94.794 8.28413 96.7875 8.71272C101.771 9.7842 104.367 15.1674 102.577 19.8632C100.269 25.9372 92.1431 25.6863 87.2824 23.0295C83.5239 20.9806 80.8481 16.6037 81.2996 12.2791C81.6763 8.66981 84.1144 5.54812 86.8363 3.29276C90.0868 0.600813 94.5773 -0.153105 98.6553 0.725407C108.163 2.74143 114.071 11.5778 112.461 21.0385C110.392 33.1408 96.0225 38.6741 84.9982 37.0931C77.0875 35.9539 70.6858 31.0013 64.5537 26.2315C57.4448 20.7061 49.8931 16.2409 41.7504 12.3988C37.2046 10.2469 32.5641 8.19251 27.8267 6.49383C23.0893 4.79514 17.0185 3.40201 11.855 4.88435C6.35863 6.45637 3.48961 11.5797 3.2664 17.0306C3.1181 20.6072 3.8404 23.4729 6.89821 25.6451C9.68643 27.6344 13.0847 28.8566 16.2974 28.996C19.1731 29.1188 22.0104 28.1453 23.8455 25.8642C25.4884 23.8111 26.2466 20.6264 25.3285 18.1077C24.1483 14.8569 17.8361 12.1045 15.4559 15.5559C14.85 16.4293 14.5682 17.623 14.6172 18.6738C14.6778 20.1296 12.0766 18.2033 12.0402 17.1602L12.0479 17.1476Z" fill="#FDDFFC"/>
</svg>
