<svg width="101" height="111" viewBox="0 0 101 111" fill="none" xmlns="http://www.w3.org/2000/svg">
<path d="M85.5116 16.8448C85.0955 16.5205 84.611 16.2953 84.0948 16.1862C83.5787 16.0771 83.0445 16.087 82.5327 16.2151L26.9493 30.111C26.1977 30.2988 25.5305 30.7325 25.0537 31.3431C24.5769 31.9536 24.3179 32.706 24.3178 33.4807V81.2825C21.4198 79.3461 17.9578 78.4338 14.4819 78.6904C11.006 78.947 7.71551 80.3579 5.13327 82.6988C2.55103 85.0397 0.825128 88.1764 0.229776 91.6105C-0.365577 95.0447 0.203767 98.5793 1.84735 101.653C3.49093 104.726 6.11448 107.162 9.30117 108.574C12.4879 109.986 16.0549 110.292 19.4356 109.444C22.8163 108.596 25.8167 106.643 27.9601 103.895C30.1035 101.146 31.267 97.7604 31.2657 94.2751V36.1948L79.9012 24.0359V67.3866C77.0032 65.4503 73.5412 64.538 70.0653 64.7946C66.5894 65.0512 63.2989 66.462 60.7167 68.8029C58.1344 71.1438 56.4085 74.2805 55.8132 77.7147C55.2178 81.1488 55.7872 84.6834 57.4308 87.7569C59.0744 90.8304 61.6979 93.2665 64.8846 94.6782C68.0713 96.0898 71.6383 96.3961 75.019 95.5483C78.3997 94.7004 81.4001 92.7472 83.5435 89.9988C85.6869 87.2504 86.8504 83.8646 86.8491 80.3792V19.5849C86.8492 19.0565 86.7288 18.5351 86.4971 18.0602C86.2653 17.5854 85.9283 17.1697 85.5116 16.8448ZM15.6329 102.96C13.9151 102.96 12.236 102.451 10.8078 101.496C9.37955 100.542 8.26639 99.1856 7.60905 97.5986C6.95171 96.0117 6.77972 94.2654 7.11483 92.5807C7.44993 90.896 8.27709 89.3485 9.4917 88.1339C10.7063 86.9193 12.2538 86.0922 13.9385 85.757C15.6232 85.4219 17.3695 85.5939 18.9564 86.2513C20.5434 86.9086 21.8998 88.0218 22.8541 89.45C23.8084 90.8782 24.3178 92.5574 24.3178 94.2751C24.3178 96.5785 23.4028 98.7875 21.774 100.416C20.1453 102.045 17.9362 102.96 15.6329 102.96ZM71.2163 89.0641C69.4986 89.0641 67.8194 88.5548 66.3912 87.6005C64.963 86.6462 63.8498 85.2898 63.1925 83.7028C62.5351 82.1158 62.3631 80.3696 62.6982 78.6849C63.0333 77.0002 63.8605 75.4527 65.0751 74.2381C66.2897 73.0235 67.8372 72.1963 69.5219 71.8612C71.2066 71.5261 72.9529 71.6981 74.5398 72.3554C76.1268 73.0128 77.4832 74.1259 78.4375 75.5541C79.3918 76.9824 79.9012 78.6615 79.9012 80.3792C79.9012 82.6826 78.9862 84.8916 77.3574 86.5204C75.7287 88.1491 73.5197 89.0641 71.2163 89.0641Z" fill="#B16AF6"/>
<path d="M100.618 8.33931C97.6044 6.23709 95.2238 3.36022 93.8097 0C92.3947 3.36022 90.015 6.23709 87 8.33931C90.015 10.4406 92.3947 13.3184 93.8097 16.6786C95.2247 13.3184 97.6044 10.4406 100.619 8.33931H100.618Z" fill="#FDDFFC"/>
<path d="M44.2298 101.784C41.2157 99.6817 38.8351 96.8048 37.421 93.4446C36.006 96.8048 33.6264 99.6817 30.6113 101.784C33.6264 103.885 36.006 106.763 37.421 110.123C38.8361 106.763 41.2157 103.885 44.2308 101.784H44.2298Z" fill="#FDDFFC"/>
<circle cx="69.2779" cy="53.1667" r="4.83334" fill="#B16AF6"/>
<circle cx="14.4998" cy="67.6667" r="4.83334" fill="#B16AF6"/>
</svg>
