<svg width="112" height="112" viewBox="0 0 112 112" fill="none" xmlns="http://www.w3.org/2000/svg">
<mask id="path-1-inside-1_77_111" fill="white">
<path d="M23.625 45V73C23.625 73.6962 23.3484 74.3639 22.8562 74.8562C22.3639 75.3484 21.6962 75.625 21 75.625C20.3038 75.625 19.6361 75.3484 19.1438 74.8562C18.6516 74.3639 18.375 73.6962 18.375 73V45C18.375 44.3038 18.6516 43.6361 19.1438 43.1438C19.6361 42.6516 20.3038 42.375 21 42.375C21.6962 42.375 22.3639 42.6516 22.8562 43.1438C23.3484 43.6361 23.625 44.3038 23.625 45ZM38.5 14.375C37.8038 14.375 37.1361 14.6516 36.6438 15.1438C36.1516 15.6361 35.875 16.3038 35.875 17V101C35.875 101.696 36.1516 102.364 36.6438 102.856C37.1361 103.348 37.8038 103.625 38.5 103.625C39.1962 103.625 39.8639 103.348 40.3562 102.856C40.8484 102.364 41.125 101.696 41.125 101V17C41.125 16.3038 40.8484 15.6361 40.3562 15.1438C39.8639 14.6516 39.1962 14.375 38.5 14.375ZM56 28.375C55.3038 28.375 54.6361 28.6516 54.1438 29.1438C53.6516 29.6361 53.375 30.3038 53.375 31V87C53.375 87.6962 53.6516 88.3639 54.1438 88.8562C54.6361 89.3484 55.3038 89.625 56 89.625C56.6962 89.625 57.3639 89.3484 57.8562 88.8562C58.3484 88.3639 58.625 87.6962 58.625 87V31C58.625 30.3038 58.3484 29.6361 57.8562 29.1438C57.3639 28.6516 56.6962 28.375 56 28.375ZM73.5 42.375C72.8038 42.375 72.1361 42.6516 71.6438 43.1438C71.1516 43.6361 70.875 44.3038 70.875 45V73C70.875 73.6962 71.1516 74.3639 71.6438 74.8562C72.1361 75.3484 72.8038 75.625 73.5 75.625C74.1962 75.625 74.8639 75.3484 75.3562 74.8562C75.8484 74.3639 76.125 73.6962 76.125 73V45C76.125 44.3038 75.8484 43.6361 75.3562 43.1438C74.8639 42.6516 74.1962 42.375 73.5 42.375ZM91 35.375C90.3038 35.375 89.6361 35.6516 89.1438 36.1438C88.6516 36.6361 88.375 37.3038 88.375 38V80C88.375 80.6962 88.6516 81.3639 89.1438 81.8562C89.6361 82.3484 90.3038 82.625 91 82.625C91.6962 82.625 92.3639 82.3484 92.8562 81.8562C93.3484 81.3639 93.625 80.6962 93.625 80V38C93.625 37.3038 93.3484 36.6361 92.8562 36.1438C92.3639 35.6516 91.6962 35.375 91 35.375Z"/>
</mask>
<path d="M23.625 45V73C23.625 73.6962 23.3484 74.3639 22.8562 74.8562C22.3639 75.3484 21.6962 75.625 21 75.625C20.3038 75.625 19.6361 75.3484 19.1438 74.8562C18.6516 74.3639 18.375 73.6962 18.375 73V45C18.375 44.3038 18.6516 43.6361 19.1438 43.1438C19.6361 42.6516 20.3038 42.375 21 42.375C21.6962 42.375 22.3639 42.6516 22.8562 43.1438C23.3484 43.6361 23.625 44.3038 23.625 45ZM38.5 14.375C37.8038 14.375 37.1361 14.6516 36.6438 15.1438C36.1516 15.6361 35.875 16.3038 35.875 17V101C35.875 101.696 36.1516 102.364 36.6438 102.856C37.1361 103.348 37.8038 103.625 38.5 103.625C39.1962 103.625 39.8639 103.348 40.3562 102.856C40.8484 102.364 41.125 101.696 41.125 101V17C41.125 16.3038 40.8484 15.6361 40.3562 15.1438C39.8639 14.6516 39.1962 14.375 38.5 14.375ZM56 28.375C55.3038 28.375 54.6361 28.6516 54.1438 29.1438C53.6516 29.6361 53.375 30.3038 53.375 31V87C53.375 87.6962 53.6516 88.3639 54.1438 88.8562C54.6361 89.3484 55.3038 89.625 56 89.625C56.6962 89.625 57.3639 89.3484 57.8562 88.8562C58.3484 88.3639 58.625 87.6962 58.625 87V31C58.625 30.3038 58.3484 29.6361 57.8562 29.1438C57.3639 28.6516 56.6962 28.375 56 28.375ZM73.5 42.375C72.8038 42.375 72.1361 42.6516 71.6438 43.1438C71.1516 43.6361 70.875 44.3038 70.875 45V73C70.875 73.6962 71.1516 74.3639 71.6438 74.8562C72.1361 75.3484 72.8038 75.625 73.5 75.625C74.1962 75.625 74.8639 75.3484 75.3562 74.8562C75.8484 74.3639 76.125 73.6962 76.125 73V45C76.125 44.3038 75.8484 43.6361 75.3562 43.1438C74.8639 42.6516 74.1962 42.375 73.5 42.375ZM91 35.375C90.3038 35.375 89.6361 35.6516 89.1438 36.1438C88.6516 36.6361 88.375 37.3038 88.375 38V80C88.375 80.6962 88.6516 81.3639 89.1438 81.8562C89.6361 82.3484 90.3038 82.625 91 82.625C91.6962 82.625 92.3639 82.3484 92.8562 81.8562C93.3484 81.3639 93.625 80.6962 93.625 80V38C93.625 37.3038 93.3484 36.6361 92.8562 36.1438C92.3639 35.6516 91.6962 35.375 91 35.375Z" fill="#B16AF6"/>
<path d="M23.625 73H33.625H23.625ZM18.375 73L8.375 73L18.375 73ZM56 28.375L56 18.375L56 28.375ZM13.625 45V73H33.625V45H13.625ZM13.625 73C13.625 71.044 14.402 69.1682 15.7851 67.7851L29.9272 81.9272C32.2949 79.5596 33.625 76.3483 33.625 73L13.625 73ZM15.7851 67.7851C17.1682 66.402 19.044 65.625 21 65.625V85.625C24.3483 85.625 27.5596 84.2949 29.9272 81.9272L15.7851 67.7851ZM21 65.625C22.956 65.625 24.8318 66.402 26.2149 67.7851L12.0728 81.9272C14.4404 84.2949 17.6517 85.625 21 85.625V65.625ZM26.2149 67.7851C27.598 69.1682 28.375 71.044 28.375 73L8.375 73C8.375 76.3483 9.70512 79.5596 12.0728 81.9272L26.2149 67.7851ZM28.375 73V45H8.375V73H28.375ZM28.375 45C28.375 46.956 27.598 48.8318 26.2149 50.2149L12.0728 36.0728C9.70513 38.4404 8.375 41.6516 8.375 45H28.375ZM26.2149 50.2149C24.8318 51.598 22.956 52.375 21 52.375V32.375C17.6516 32.375 14.4404 33.7051 12.0728 36.0728L26.2149 50.2149ZM21 52.375C19.044 52.375 17.1682 51.598 15.7851 50.2149L29.9272 36.0728C27.5596 33.7051 24.3484 32.375 21 32.375V52.375ZM15.7851 50.2149C14.402 48.8318 13.625 46.956 13.625 45H33.625C33.625 41.6516 32.2949 38.4404 29.9272 36.0728L15.7851 50.2149ZM38.5 4.375C35.1516 4.375 31.9404 5.70513 29.5728 8.07278L43.7149 22.2149C42.3318 23.598 40.456 24.375 38.5 24.375V4.375ZM29.5728 8.07278C27.2051 10.4404 25.875 13.6516 25.875 17H45.875C45.875 18.956 45.098 20.8318 43.7149 22.2149L29.5728 8.07278ZM25.875 17V101H45.875V17H25.875ZM25.875 101C25.875 104.348 27.2051 107.56 29.5728 109.927L43.7149 95.7851C45.098 97.1682 45.875 99.044 45.875 101H25.875ZM29.5728 109.927C31.9404 112.295 35.1517 113.625 38.5 113.625V93.625C40.456 93.625 42.3318 94.402 43.7149 95.7851L29.5728 109.927ZM38.5 113.625C41.8483 113.625 45.0596 112.295 47.4272 109.927L33.2851 95.7851C34.6682 94.402 36.544 93.625 38.5 93.625V113.625ZM47.4272 109.927C49.7949 107.56 51.125 104.348 51.125 101H31.125C31.125 99.044 31.902 97.1682 33.2851 95.7851L47.4272 109.927ZM51.125 101V17H31.125V101H51.125ZM51.125 17C51.125 13.6516 49.7949 10.4404 47.4272 8.07278L33.2851 22.2149C31.902 20.8318 31.125 18.956 31.125 17H51.125ZM47.4272 8.07278C45.0596 5.70513 41.8484 4.375 38.5 4.375V24.375C36.544 24.375 34.6682 23.598 33.2851 22.2149L47.4272 8.07278ZM56 18.375C52.6516 18.375 49.4404 19.7051 47.0728 22.0728L61.2149 36.2149C59.8318 37.598 57.956 38.375 56 38.375L56 18.375ZM47.0728 22.0728C44.7051 24.4404 43.375 27.6516 43.375 31H63.375C63.375 32.956 62.598 34.8318 61.2149 36.2149L47.0728 22.0728ZM43.375 31V87H63.375V31H43.375ZM43.375 87C43.375 90.3484 44.7051 93.5596 47.0728 95.9272L61.2149 81.7851C62.598 83.1682 63.375 85.044 63.375 87H43.375ZM47.0728 95.9272C49.4404 98.2949 52.6517 99.625 56 99.625V79.625C57.956 79.625 59.8318 80.402 61.2149 81.7851L47.0728 95.9272ZM56 99.625C59.3483 99.625 62.5596 98.2949 64.9272 95.9272L50.7851 81.7851C52.1682 80.402 54.0441 79.625 56 79.625V99.625ZM64.9272 95.9272C67.2949 93.5596 68.625 90.3483 68.625 87H48.625C48.625 85.0441 49.402 83.1682 50.7851 81.7851L64.9272 95.9272ZM68.625 87V31H48.625V87H68.625ZM68.625 31C68.625 27.6517 67.2949 24.4404 64.9272 22.0728L50.7851 36.2149C49.402 34.8318 48.625 32.956 48.625 31H68.625ZM64.9272 22.0728C62.5596 19.7051 59.3483 18.375 56 18.375L56 38.375C54.044 38.375 52.1682 37.598 50.7851 36.2149L64.9272 22.0728ZM73.5 32.375C70.1516 32.375 66.9404 33.7051 64.5728 36.0728L78.7149 50.2149C77.3318 51.598 75.456 52.375 73.5 52.375V32.375ZM64.5728 36.0728C62.2051 38.4404 60.875 41.6517 60.875 45H80.875C80.875 46.956 80.098 48.8318 78.7149 50.2149L64.5728 36.0728ZM60.875 45V73H80.875V45H60.875ZM60.875 73C60.875 76.3483 62.2051 79.5596 64.5728 81.9272L78.7149 67.7851C80.098 69.1682 80.875 71.0441 80.875 73H60.875ZM64.5728 81.9272C66.9404 84.2949 70.1517 85.625 73.5 85.625V65.625C75.4559 65.625 77.3318 66.402 78.7149 67.7851L64.5728 81.9272ZM73.5 85.625C76.8483 85.625 80.0596 84.2949 82.4272 81.9272L68.2851 67.7851C69.6682 66.402 71.5441 65.625 73.5 65.625V85.625ZM82.4272 81.9272C84.7949 79.5596 86.125 76.3483 86.125 73H66.125C66.125 71.0441 66.902 69.1682 68.2851 67.7851L82.4272 81.9272ZM86.125 73V45H66.125V73H86.125ZM86.125 45C86.125 41.6517 84.7949 38.4404 82.4272 36.0728L68.2851 50.2149C66.902 48.8318 66.125 46.956 66.125 45H86.125ZM82.4272 36.0728C80.0596 33.7051 76.8484 32.375 73.5 32.375V52.375C71.544 52.375 69.6682 51.598 68.2851 50.2149L82.4272 36.0728ZM91 25.375C87.6516 25.375 84.4404 26.7051 82.0728 29.0728L96.2149 43.2149C94.8318 44.598 92.956 45.375 91 45.375V25.375ZM82.0728 29.0728C79.7051 31.4404 78.375 34.6517 78.375 38H98.375C98.375 39.956 97.598 41.8318 96.2149 43.2149L82.0728 29.0728ZM78.375 38V80H98.375V38H78.375ZM78.375 80C78.375 83.3483 79.7051 86.5596 82.0728 88.9272L96.2149 74.7851C97.598 76.1682 98.375 78.0441 98.375 80H78.375ZM82.0728 88.9272C84.4404 91.2949 87.6517 92.625 91 92.625V72.625C92.9559 72.625 94.8318 73.402 96.2149 74.7851L82.0728 88.9272ZM91 92.625C94.3483 92.625 97.5596 91.2949 99.9272 88.9272L85.7851 74.7851C87.1682 73.402 89.0441 72.625 91 72.625V92.625ZM99.9272 88.9272C102.295 86.5596 103.625 83.3483 103.625 80H83.625C83.625 78.0441 84.402 76.1682 85.7851 74.7851L99.9272 88.9272ZM103.625 80V38H83.625V80H103.625ZM103.625 38C103.625 34.6517 102.295 31.4404 99.9272 29.0728L85.7851 43.2149C84.402 41.8318 83.625 39.956 83.625 38H103.625ZM99.9272 29.0728C97.5596 26.7051 94.3484 25.375 91 25.375V45.375C89.044 45.375 87.1682 44.598 85.7851 43.2149L99.9272 29.0728Z" fill="#B16AF6" mask="url(#path-1-inside-1_77_111)"/>
<path d="M33.6185 27.3393C30.6044 25.2371 28.2238 22.3602 26.8097 19C25.3947 22.3602 23.015 25.2371 20 27.3393C23.015 29.4406 25.3947 32.3184 26.8097 35.6786C28.2247 32.3184 30.6044 29.4406 33.6194 27.3393H33.6185Z" fill="#FDDFFC"/>
<path d="M87.6185 95.3393C84.6044 93.2371 82.2238 90.3602 80.8097 87C79.3947 90.3602 77.015 93.2371 74 95.3393C77.015 97.4406 79.3947 100.318 80.8097 103.679C82.2247 100.318 84.6044 97.4406 87.6194 95.3393H87.6185Z" fill="#FDDFFC"/>
<circle cx="68.8333" cy="30.8333" r="4.83334" fill="#B16AF6"/>
<circle cx="24.8333" cy="89.8333" r="4.83334" fill="#B16AF6"/>
<circle cx="24.8333" cy="89.8333" r="4.83334" fill="#B16AF6"/>
<circle cx="24.8333" cy="89.8333" r="4.83334" fill="#B16AF6"/>
</svg>
