<svg width="84" height="107" viewBox="0 0 84 107" fill="none" xmlns="http://www.w3.org/2000/svg">
<path d="M81.4669 0.684943C80.7745 0.349802 80.0014 0.214297 79.2354 0.293825C78.4693 0.373353 77.7411 0.664725 77.1334 1.13483L41.1895 28.9001H17.9011C15.7171 28.9001 13.6226 29.7619 12.0784 31.2959C10.5341 32.83 9.6665 34.9105 9.6665 37.0799V69.7991C9.6665 71.9685 10.5341 74.0491 12.0784 75.5831C13.6226 77.1171 15.7171 77.9789 17.9011 77.9789H41.1895L77.1334 105.744C77.7417 106.214 78.4704 106.505 79.2367 106.583C80.0031 106.662 80.7763 106.526 81.4684 106.19C82.1606 105.854 82.744 105.331 83.1522 104.682C83.5604 104.033 83.7771 103.284 83.7777 102.518V4.36074C83.7778 3.59454 83.5613 2.84371 83.1527 2.19382C82.7442 1.54393 82.16 1.02111 81.4669 0.684943ZM75.5431 94.1545L45.1318 70.6631C44.4108 70.1019 43.5208 69.7976 42.6048 69.7991H17.9011V37.0799H42.6048C43.5208 37.0814 44.4108 36.7771 45.1318 36.2159L75.5431 12.7246V94.1545Z" fill="#B16AF6"/>
<path d="M42.6185 89.1666C39.6044 87.0644 37.2238 84.1875 35.8097 80.8273C34.3947 84.1875 32.015 87.0644 29 89.1666C32.015 91.2679 34.3947 94.1457 35.8097 97.506C37.2247 94.1457 39.6044 91.2679 42.6194 89.1666H42.6185Z" fill="#FDDFFC"/>
<path d="M18.6185 8.33931C15.6044 6.23709 13.2238 3.36022 11.8097 0C10.3947 3.36022 8.01503 6.23709 5 8.33931C8.01503 10.4406 10.3947 13.3184 11.8097 16.6786C13.2247 13.3184 15.6044 10.4406 18.6194 8.33931H18.6185Z" fill="#FDDFFC"/>
<circle cx="33.8333" cy="16.3827" r="4.83334" fill="#B16AF6"/>
<circle cx="4.83334" cy="85.6607" r="4.83334" fill="#B16AF6"/>
</svg>
