<svg width="108" height="80" viewBox="0 0 108 80" fill="none" xmlns="http://www.w3.org/2000/svg">
<path d="M20.9991 56.5C18.3435 54.6094 16.2459 52.022 15 49C13.7532 52.022 11.6565 54.6094 9 56.5C11.6565 58.3898 13.7532 60.978 15 64C16.2468 60.978 18.3435 58.3898 21 56.5H20.9991Z" fill="#FDDFFC"/>
<path d="M61.5199 59.1406C67.1667 56.1274 71.6467 51.3068 74.2472 45.4456C76.8477 39.5845 77.4193 33.0195 75.8711 26.7949C74.3229 20.5704 70.7439 15.0439 65.7033 11.0946C60.6627 7.1453 54.4501 5 48.0538 5C41.6575 5 35.4448 7.1453 30.4042 11.0946C25.3636 15.0439 21.7846 20.5704 20.2364 26.7949C18.6882 33.0195 19.2598 39.5845 21.8603 45.4456C24.4608 51.3068 28.9408 56.1274 34.5876 59.1406C25.031 61.8506 16.3952 67.4839 9.56225 75.6443C9.14178 76.1774 8.94489 76.8538 9.01333 77.53C9.08177 78.2063 9.41016 78.8292 9.92885 79.2667C10.4475 79.7042 11.1158 79.9219 11.7918 79.8735C12.4678 79.8252 13.0984 79.5146 13.55 79.0077C22.4724 68.3727 34.7223 62.5128 48.0538 62.5128C61.3853 62.5128 73.6395 68.3727 82.5488 79.0077C82.7653 79.2821 83.0344 79.5101 83.3403 79.6783C83.6462 79.8465 83.9827 79.9513 84.3298 79.9866C84.6768 80.022 85.0274 79.9871 85.3608 79.884C85.6941 79.7809 86.0035 79.6118 86.2705 79.3866C86.5374 79.1614 86.7566 78.8847 86.9151 78.573C87.0735 78.2613 87.1679 77.9209 87.1927 77.5719C87.2175 77.2229 87.1722 76.8724 87.0595 76.5413C86.9468 76.2102 86.769 75.9052 86.5366 75.6443C79.7036 67.4839 71.0765 61.8506 61.5199 59.1406ZM24.5966 33.7579C24.5966 29.1047 25.9723 24.556 28.5498 20.6871C31.1273 16.8181 34.7908 13.8026 39.0771 12.0219C43.3633 10.2412 48.0798 9.77534 52.63 10.6831C57.1803 11.5909 61.3599 13.8316 64.6405 17.1219C67.921 20.4122 70.1551 24.6043 71.0602 29.168C71.9653 33.7318 71.5008 38.4622 69.7254 42.7612C67.9499 47.0601 64.9434 50.7345 61.0859 53.3197C57.2284 55.9048 52.6931 57.2846 48.0538 57.2846C41.8346 57.2777 35.8722 54.7968 31.4746 50.3862C27.0771 45.9755 24.6035 39.9954 24.5966 33.7579ZM90.4157 15.6292C92.8464 21.3622 94.0992 27.528 94.0992 33.7579C94.0992 39.9877 92.8464 46.1535 90.4157 51.8866C90.1122 52.4713 89.5997 52.9195 88.9807 53.1413C88.3617 53.3631 87.6821 53.3422 87.0778 53.0827C86.4736 52.8232 85.9895 52.3443 85.7223 51.742C85.4552 51.1397 85.4249 50.4583 85.6374 49.8345C87.793 44.7504 88.9041 39.2825 88.9041 33.7579C88.9041 28.2332 87.793 22.7653 85.6374 17.6812C85.4249 17.0574 85.4552 16.3761 85.7223 15.7737C85.9895 15.1714 86.4736 14.6925 87.0778 14.433C87.6821 14.1735 88.3617 14.1526 88.9807 14.3744C89.5997 14.5962 90.1122 15.0444 90.4157 15.6292ZM108 33.7579C108.016 41.9015 106.372 49.9624 103.169 57.4458C102.87 58.0401 102.356 58.4975 101.732 58.7246C101.108 58.9517 100.421 58.9315 99.8116 58.668C99.202 58.4045 98.7155 57.9177 98.4516 57.3068C98.1876 56.6959 98.166 56.007 98.3911 55.3807C101.3 48.5453 102.8 41.19 102.8 33.7579C102.8 26.3257 101.3 18.9704 98.3911 12.135C98.166 11.5087 98.1876 10.8198 98.4516 10.2089C98.7155 9.59803 99.202 9.11118 99.8116 8.84771C100.421 8.58424 101.108 8.56399 101.732 8.79111C102.356 9.01822 102.87 9.47558 103.169 10.0699C106.372 17.5533 108.016 25.6142 108 33.7579Z" fill="#B16AF6"/>
<path d="M83.9991 7.5C81.3435 5.60936 79.2459 3.02203 78 0C76.7532 3.02203 74.6565 5.60936 72 7.5C74.6565 9.38981 76.7532 11.978 78 15C79.2468 11.978 81.3435 9.38981 84 7.5H83.9991Z" fill="#FDDFFC"/>
<ellipse cx="78" cy="55.5" rx="4" ry="4.5" fill="#B16AF6"/>
<circle cx="4.5" cy="68.5" r="4.5" fill="#B16AF6"/>
</svg>
